G75*
%MOIN*%
%OFA0B0*%
%FSLAX25Y25*%
%IPPOS*%
%LPD*%
%AMOC8*
5,1,8,0,0,1.08239X$1,22.5*
%
%ADD10C,0.00000*%
%ADD11C,0.00700*%
%ADD12C,0.00500*%
%ADD13C,0.00300*%
%ADD14C,0.00200*%
%ADD15C,0.00600*%
%ADD16C,0.00800*%
%ADD17C,0.00050*%
%ADD18C,0.00400*%
D10*
X0006083Y0042283D02*
X0006083Y0214207D01*
X0006080Y0214441D01*
X0006072Y0214675D01*
X0006058Y0214909D01*
X0006038Y0215143D01*
X0006013Y0215376D01*
X0005983Y0215608D01*
X0005947Y0215839D01*
X0005905Y0216070D01*
X0005858Y0216299D01*
X0005806Y0216528D01*
X0005748Y0216755D01*
X0005684Y0216980D01*
X0005616Y0217204D01*
X0005542Y0217426D01*
X0005462Y0217647D01*
X0005378Y0217865D01*
X0005288Y0218082D01*
X0005194Y0218296D01*
X0005094Y0218508D01*
X0004989Y0218717D01*
X0004879Y0218924D01*
X0004764Y0219129D01*
X0004645Y0219330D01*
X0004520Y0219529D01*
X0004391Y0219724D01*
X0004258Y0219917D01*
X0004120Y0220106D01*
X0003977Y0220292D01*
X0003830Y0220474D01*
X0003679Y0220653D01*
X0003523Y0220828D01*
X0003364Y0220999D01*
X0003200Y0221167D01*
X0001083Y0226278D02*
X0001083Y0239134D01*
X0178248Y0239134D01*
X0178248Y0042283D01*
X0006083Y0042283D01*
X0135496Y0133957D02*
X0135498Y0134034D01*
X0135504Y0134110D01*
X0135514Y0134186D01*
X0135528Y0134261D01*
X0135545Y0134336D01*
X0135567Y0134409D01*
X0135592Y0134482D01*
X0135622Y0134553D01*
X0135654Y0134622D01*
X0135691Y0134689D01*
X0135730Y0134755D01*
X0135773Y0134818D01*
X0135820Y0134879D01*
X0135869Y0134938D01*
X0135922Y0134994D01*
X0135977Y0135047D01*
X0136035Y0135097D01*
X0136095Y0135144D01*
X0136158Y0135188D01*
X0136223Y0135229D01*
X0136290Y0135266D01*
X0136359Y0135300D01*
X0136429Y0135330D01*
X0136501Y0135356D01*
X0136575Y0135378D01*
X0136649Y0135397D01*
X0136724Y0135412D01*
X0136800Y0135423D01*
X0136876Y0135430D01*
X0136953Y0135433D01*
X0137029Y0135432D01*
X0137106Y0135427D01*
X0137182Y0135418D01*
X0137258Y0135405D01*
X0137332Y0135388D01*
X0137406Y0135368D01*
X0137479Y0135343D01*
X0137550Y0135315D01*
X0137620Y0135283D01*
X0137688Y0135248D01*
X0137754Y0135209D01*
X0137818Y0135167D01*
X0137879Y0135121D01*
X0137939Y0135072D01*
X0137995Y0135021D01*
X0138049Y0134966D01*
X0138100Y0134909D01*
X0138148Y0134849D01*
X0138193Y0134787D01*
X0138234Y0134722D01*
X0138272Y0134656D01*
X0138307Y0134588D01*
X0138337Y0134517D01*
X0138365Y0134446D01*
X0138388Y0134373D01*
X0138408Y0134299D01*
X0138424Y0134224D01*
X0138436Y0134148D01*
X0138444Y0134072D01*
X0138448Y0133995D01*
X0138448Y0133919D01*
X0138444Y0133842D01*
X0138436Y0133766D01*
X0138424Y0133690D01*
X0138408Y0133615D01*
X0138388Y0133541D01*
X0138365Y0133468D01*
X0138337Y0133397D01*
X0138307Y0133326D01*
X0138272Y0133258D01*
X0138234Y0133192D01*
X0138193Y0133127D01*
X0138148Y0133065D01*
X0138100Y0133005D01*
X0138049Y0132948D01*
X0137995Y0132893D01*
X0137939Y0132842D01*
X0137879Y0132793D01*
X0137818Y0132747D01*
X0137754Y0132705D01*
X0137688Y0132666D01*
X0137620Y0132631D01*
X0137550Y0132599D01*
X0137479Y0132571D01*
X0137406Y0132546D01*
X0137332Y0132526D01*
X0137258Y0132509D01*
X0137182Y0132496D01*
X0137106Y0132487D01*
X0137029Y0132482D01*
X0136953Y0132481D01*
X0136876Y0132484D01*
X0136800Y0132491D01*
X0136724Y0132502D01*
X0136649Y0132517D01*
X0136575Y0132536D01*
X0136501Y0132558D01*
X0136429Y0132584D01*
X0136359Y0132614D01*
X0136290Y0132648D01*
X0136223Y0132685D01*
X0136158Y0132726D01*
X0136095Y0132770D01*
X0136035Y0132817D01*
X0135977Y0132867D01*
X0135922Y0132920D01*
X0135869Y0132976D01*
X0135820Y0133035D01*
X0135773Y0133096D01*
X0135730Y0133159D01*
X0135691Y0133225D01*
X0135654Y0133292D01*
X0135622Y0133361D01*
X0135592Y0133432D01*
X0135567Y0133505D01*
X0135545Y0133578D01*
X0135528Y0133653D01*
X0135514Y0133728D01*
X0135504Y0133804D01*
X0135498Y0133880D01*
X0135496Y0133957D01*
X0148489Y0079626D02*
X0148491Y0079703D01*
X0148497Y0079779D01*
X0148507Y0079855D01*
X0148521Y0079930D01*
X0148538Y0080005D01*
X0148560Y0080078D01*
X0148585Y0080151D01*
X0148615Y0080222D01*
X0148647Y0080291D01*
X0148684Y0080358D01*
X0148723Y0080424D01*
X0148766Y0080487D01*
X0148813Y0080548D01*
X0148862Y0080607D01*
X0148915Y0080663D01*
X0148970Y0080716D01*
X0149028Y0080766D01*
X0149088Y0080813D01*
X0149151Y0080857D01*
X0149216Y0080898D01*
X0149283Y0080935D01*
X0149352Y0080969D01*
X0149422Y0080999D01*
X0149494Y0081025D01*
X0149568Y0081047D01*
X0149642Y0081066D01*
X0149717Y0081081D01*
X0149793Y0081092D01*
X0149869Y0081099D01*
X0149946Y0081102D01*
X0150022Y0081101D01*
X0150099Y0081096D01*
X0150175Y0081087D01*
X0150251Y0081074D01*
X0150325Y0081057D01*
X0150399Y0081037D01*
X0150472Y0081012D01*
X0150543Y0080984D01*
X0150613Y0080952D01*
X0150681Y0080917D01*
X0150747Y0080878D01*
X0150811Y0080836D01*
X0150872Y0080790D01*
X0150932Y0080741D01*
X0150988Y0080690D01*
X0151042Y0080635D01*
X0151093Y0080578D01*
X0151141Y0080518D01*
X0151186Y0080456D01*
X0151227Y0080391D01*
X0151265Y0080325D01*
X0151300Y0080257D01*
X0151330Y0080186D01*
X0151358Y0080115D01*
X0151381Y0080042D01*
X0151401Y0079968D01*
X0151417Y0079893D01*
X0151429Y0079817D01*
X0151437Y0079741D01*
X0151441Y0079664D01*
X0151441Y0079588D01*
X0151437Y0079511D01*
X0151429Y0079435D01*
X0151417Y0079359D01*
X0151401Y0079284D01*
X0151381Y0079210D01*
X0151358Y0079137D01*
X0151330Y0079066D01*
X0151300Y0078995D01*
X0151265Y0078927D01*
X0151227Y0078861D01*
X0151186Y0078796D01*
X0151141Y0078734D01*
X0151093Y0078674D01*
X0151042Y0078617D01*
X0150988Y0078562D01*
X0150932Y0078511D01*
X0150872Y0078462D01*
X0150811Y0078416D01*
X0150747Y0078374D01*
X0150681Y0078335D01*
X0150613Y0078300D01*
X0150543Y0078268D01*
X0150472Y0078240D01*
X0150399Y0078215D01*
X0150325Y0078195D01*
X0150251Y0078178D01*
X0150175Y0078165D01*
X0150099Y0078156D01*
X0150022Y0078151D01*
X0149946Y0078150D01*
X0149869Y0078153D01*
X0149793Y0078160D01*
X0149717Y0078171D01*
X0149642Y0078186D01*
X0149568Y0078205D01*
X0149494Y0078227D01*
X0149422Y0078253D01*
X0149352Y0078283D01*
X0149283Y0078317D01*
X0149216Y0078354D01*
X0149151Y0078395D01*
X0149088Y0078439D01*
X0149028Y0078486D01*
X0148970Y0078536D01*
X0148915Y0078589D01*
X0148862Y0078645D01*
X0148813Y0078704D01*
X0148766Y0078765D01*
X0148723Y0078828D01*
X0148684Y0078894D01*
X0148647Y0078961D01*
X0148615Y0079030D01*
X0148585Y0079101D01*
X0148560Y0079174D01*
X0148538Y0079247D01*
X0148521Y0079322D01*
X0148507Y0079397D01*
X0148497Y0079473D01*
X0148491Y0079549D01*
X0148489Y0079626D01*
X0003199Y0221166D02*
X0003075Y0221293D01*
X0002955Y0221423D01*
X0002837Y0221556D01*
X0002723Y0221692D01*
X0002612Y0221830D01*
X0002505Y0221972D01*
X0002401Y0222115D01*
X0002300Y0222262D01*
X0002204Y0222411D01*
X0002110Y0222562D01*
X0002021Y0222715D01*
X0001936Y0222870D01*
X0001854Y0223028D01*
X0001776Y0223187D01*
X0001702Y0223349D01*
X0001632Y0223512D01*
X0001566Y0223676D01*
X0001505Y0223843D01*
X0001447Y0224010D01*
X0001393Y0224180D01*
X0001344Y0224350D01*
X0001299Y0224521D01*
X0001258Y0224694D01*
X0001221Y0224868D01*
X0001188Y0225042D01*
X0001160Y0225217D01*
X0001136Y0225393D01*
X0001117Y0225569D01*
X0001102Y0225746D01*
X0001091Y0225923D01*
X0001084Y0226101D01*
X0001082Y0226278D01*
D11*
X0017083Y0150316D02*
X0015083Y0148716D01*
X0024083Y0148716D01*
X0022083Y0138505D02*
X0024083Y0136905D01*
X0015083Y0136905D01*
X0022083Y0126694D02*
X0024083Y0125094D01*
X0015083Y0125094D01*
X0017083Y0114883D02*
X0015083Y0113283D01*
X0024083Y0113283D01*
D12*
X0032469Y0095433D02*
X0032469Y0090512D01*
X0035421Y0090512D01*
X0108256Y0090512D02*
X0111209Y0090512D01*
X0111209Y0095433D01*
X0135398Y0079626D02*
X0135398Y0078051D01*
X0151539Y0078051D01*
X0151539Y0133957D02*
X0151539Y0135532D01*
X0135398Y0135532D01*
X0111209Y0202717D02*
X0111209Y0236181D01*
X0032469Y0236181D01*
X0032469Y0202717D01*
X0144577Y0204347D02*
X0144577Y0214141D01*
X0159636Y0214141D01*
X0159636Y0204347D01*
X0144577Y0204347D01*
D13*
X0144267Y0226550D02*
X0142132Y0226550D01*
X0141044Y0227617D02*
X0141044Y0228151D01*
X0140511Y0228685D01*
X0139977Y0228685D01*
X0140511Y0228685D02*
X0141044Y0229219D01*
X0141044Y0229752D01*
X0140511Y0230286D01*
X0139443Y0230286D01*
X0138909Y0229752D01*
X0137822Y0230286D02*
X0137822Y0228151D01*
X0136754Y0227083D01*
X0135687Y0228151D01*
X0135687Y0230286D01*
X0134599Y0229752D02*
X0134599Y0229219D01*
X0134065Y0228685D01*
X0134599Y0228151D01*
X0134599Y0227617D01*
X0134065Y0227083D01*
X0132998Y0227083D01*
X0132464Y0227617D01*
X0133531Y0228685D02*
X0134065Y0228685D01*
X0134599Y0229752D02*
X0134065Y0230286D01*
X0132998Y0230286D01*
X0132464Y0229752D01*
X0138909Y0227617D02*
X0139443Y0227083D01*
X0140511Y0227083D01*
X0141044Y0227617D01*
X0145355Y0227617D02*
X0145889Y0227083D01*
X0146956Y0227083D01*
X0147490Y0227617D01*
X0147490Y0229752D01*
X0146956Y0230286D01*
X0145889Y0230286D01*
X0145355Y0229752D01*
X0145355Y0227617D01*
X0148578Y0227617D02*
X0148578Y0230286D01*
X0148578Y0227617D02*
X0149111Y0227083D01*
X0150179Y0227083D01*
X0150713Y0227617D01*
X0150713Y0230286D01*
X0151800Y0230286D02*
X0153935Y0230286D01*
X0152868Y0230286D02*
X0152868Y0227083D01*
X0161500Y0212416D02*
X0162568Y0212416D01*
X0162034Y0212416D02*
X0162034Y0209213D01*
X0161500Y0209213D02*
X0162568Y0209213D01*
X0163649Y0209747D02*
X0163649Y0211882D01*
X0164183Y0212416D01*
X0165250Y0212416D01*
X0165784Y0211882D01*
X0166872Y0211882D02*
X0167405Y0212416D01*
X0168473Y0212416D01*
X0169007Y0211882D01*
X0169007Y0211348D01*
X0166872Y0209213D01*
X0169007Y0209213D01*
X0165784Y0209747D02*
X0165250Y0209213D01*
X0164183Y0209213D01*
X0163649Y0209747D01*
X0157171Y0167136D02*
X0157171Y0163933D01*
X0156104Y0163933D02*
X0158239Y0163933D01*
X0156104Y0166069D02*
X0157171Y0167136D01*
X0155016Y0166602D02*
X0154483Y0167136D01*
X0153415Y0167136D01*
X0152881Y0166602D01*
X0152881Y0164467D01*
X0153415Y0163933D01*
X0154483Y0163933D01*
X0155016Y0164467D01*
X0151800Y0163933D02*
X0150733Y0163933D01*
X0151266Y0163933D02*
X0151266Y0167136D01*
X0150733Y0167136D02*
X0151800Y0167136D01*
X0172694Y0123079D02*
X0175596Y0123079D01*
X0172694Y0121144D01*
X0175596Y0121144D01*
X0175596Y0120132D02*
X0175596Y0118197D01*
X0172694Y0118197D01*
X0172694Y0120132D01*
X0174145Y0119165D02*
X0174145Y0118197D01*
X0176080Y0117186D02*
X0176080Y0115251D01*
X0175112Y0114239D02*
X0175596Y0113755D01*
X0175596Y0112788D01*
X0175112Y0112304D01*
X0173177Y0112304D01*
X0172694Y0112788D01*
X0172694Y0113755D01*
X0173177Y0114239D01*
X0174145Y0114239D02*
X0174145Y0113272D01*
X0174145Y0114239D02*
X0175112Y0114239D01*
X0175596Y0111293D02*
X0175596Y0109358D01*
X0172694Y0109358D01*
X0172694Y0111293D01*
X0174145Y0110325D02*
X0174145Y0109358D01*
X0174145Y0108346D02*
X0173177Y0108346D01*
X0172694Y0107862D01*
X0172694Y0106411D01*
X0175596Y0106411D01*
X0174629Y0106411D02*
X0174629Y0107862D01*
X0174145Y0108346D01*
X0174629Y0107379D02*
X0175596Y0108346D01*
X0174629Y0105400D02*
X0172694Y0105400D01*
X0174629Y0105400D02*
X0175596Y0104432D01*
X0174629Y0103465D01*
X0172694Y0103465D01*
X0173342Y0089493D02*
X0172859Y0089009D01*
X0172859Y0087558D01*
X0175761Y0087558D01*
X0175761Y0089009D01*
X0175277Y0089493D01*
X0173342Y0089493D01*
X0172859Y0086546D02*
X0175761Y0086546D01*
X0172859Y0084611D01*
X0175761Y0084611D01*
X0175277Y0083600D02*
X0175761Y0083116D01*
X0175761Y0082148D01*
X0175277Y0081665D01*
X0173342Y0081665D01*
X0172859Y0082148D01*
X0172859Y0083116D01*
X0173342Y0083600D01*
X0174310Y0083600D02*
X0174310Y0082632D01*
X0174310Y0083600D02*
X0175277Y0083600D01*
X0158433Y0074346D02*
X0158433Y0072211D01*
X0155230Y0072211D01*
X0155230Y0074346D01*
X0156831Y0073278D02*
X0156831Y0072211D01*
X0157365Y0071123D02*
X0157899Y0071123D01*
X0158433Y0070589D01*
X0158433Y0069522D01*
X0157899Y0068988D01*
X0157899Y0067900D02*
X0155230Y0067900D01*
X0155764Y0068988D02*
X0156298Y0068988D01*
X0156831Y0069522D01*
X0156831Y0070589D01*
X0157365Y0071123D01*
X0155764Y0071123D02*
X0155230Y0070589D01*
X0155230Y0069522D01*
X0155764Y0068988D01*
X0155230Y0065765D02*
X0157899Y0065765D01*
X0158433Y0066299D01*
X0158433Y0067367D01*
X0157899Y0067900D01*
X0156831Y0063610D02*
X0156831Y0062542D01*
X0155230Y0062542D02*
X0155230Y0064678D01*
X0155230Y0062542D02*
X0158433Y0062542D01*
X0172859Y0053253D02*
X0175761Y0053253D01*
X0172859Y0051318D01*
X0175761Y0051318D01*
X0175761Y0050321D02*
X0175761Y0049354D01*
X0175761Y0049837D02*
X0172859Y0049837D01*
X0172859Y0049354D02*
X0172859Y0050321D01*
X0172859Y0048342D02*
X0174794Y0048342D01*
X0175761Y0047375D01*
X0174794Y0046407D01*
X0172859Y0046407D01*
X0142864Y0070976D02*
X0142330Y0070443D01*
X0141262Y0070443D01*
X0140729Y0070976D01*
X0139641Y0070976D02*
X0139107Y0070443D01*
X0138040Y0070443D01*
X0137506Y0070976D01*
X0136418Y0070976D02*
X0135884Y0070443D01*
X0134817Y0070443D01*
X0134283Y0070976D01*
X0134283Y0073111D01*
X0134817Y0073645D01*
X0135884Y0073645D01*
X0136418Y0073111D01*
X0137506Y0073111D02*
X0137506Y0072578D01*
X0138040Y0072044D01*
X0139107Y0072044D01*
X0139641Y0071510D01*
X0139641Y0070976D01*
X0140729Y0072578D02*
X0140729Y0073111D01*
X0141262Y0073645D01*
X0142330Y0073645D01*
X0142864Y0073111D01*
X0142330Y0072044D02*
X0141262Y0072044D01*
X0140729Y0072578D01*
X0139641Y0073111D02*
X0139107Y0073645D01*
X0138040Y0073645D01*
X0137506Y0073111D01*
X0142330Y0072044D02*
X0142864Y0071510D01*
X0142864Y0070976D01*
X0135702Y0063136D02*
X0136236Y0062602D01*
X0135702Y0063136D02*
X0134635Y0063136D01*
X0134101Y0062602D01*
X0134101Y0060467D01*
X0134635Y0059933D01*
X0135702Y0059933D01*
X0136236Y0060467D01*
X0136236Y0061535D01*
X0135168Y0061535D01*
X0133013Y0063136D02*
X0130878Y0063136D01*
X0130878Y0059933D01*
X0133013Y0059933D01*
X0131946Y0061535D02*
X0130878Y0061535D01*
X0129791Y0061535D02*
X0129257Y0061001D01*
X0127655Y0061001D01*
X0127655Y0059933D02*
X0127655Y0063136D01*
X0129257Y0063136D01*
X0129791Y0062602D01*
X0129791Y0061535D01*
X0128723Y0061001D02*
X0129791Y0059933D01*
X0126568Y0061001D02*
X0126568Y0063136D01*
X0126568Y0061001D02*
X0125500Y0059933D01*
X0124433Y0061001D01*
X0124433Y0063136D01*
X0125103Y0049741D02*
X0124570Y0049208D01*
X0124570Y0047072D01*
X0125103Y0046539D01*
X0126171Y0046539D01*
X0126705Y0047072D01*
X0127792Y0046539D02*
X0128860Y0046539D01*
X0128326Y0046539D02*
X0128326Y0049741D01*
X0127792Y0049741D02*
X0128860Y0049741D01*
X0129941Y0049741D02*
X0129941Y0046539D01*
X0132076Y0046539D02*
X0129941Y0049741D01*
X0132076Y0049741D02*
X0132076Y0046539D01*
X0126705Y0049208D02*
X0126171Y0049741D01*
X0125103Y0049741D01*
X0103278Y0048881D02*
X0103278Y0047813D01*
X0102744Y0047279D01*
X0100609Y0047279D01*
X0100075Y0047813D01*
X0100075Y0048881D01*
X0100609Y0049415D01*
X0100609Y0050502D02*
X0102744Y0050502D01*
X0103278Y0051036D01*
X0103278Y0052104D01*
X0102744Y0052637D01*
X0100609Y0052637D01*
X0100075Y0052104D01*
X0100075Y0051036D01*
X0100609Y0050502D01*
X0102744Y0049415D02*
X0103278Y0048881D01*
X0102744Y0053725D02*
X0100075Y0053725D01*
X0100075Y0055860D02*
X0102744Y0055860D01*
X0103278Y0055326D01*
X0103278Y0054259D01*
X0102744Y0053725D01*
X0103278Y0058015D02*
X0100075Y0058015D01*
X0100075Y0056948D02*
X0100075Y0059083D01*
X0099533Y0069088D02*
X0096330Y0069088D01*
X0096330Y0070689D01*
X0096864Y0071223D01*
X0097931Y0071223D01*
X0098465Y0070689D01*
X0098465Y0069088D01*
X0098465Y0070156D02*
X0099533Y0071223D01*
X0099533Y0072311D02*
X0099533Y0074446D01*
X0099533Y0073378D02*
X0096330Y0073378D01*
X0097398Y0072311D01*
X0114933Y0089133D02*
X0114933Y0092336D01*
X0116534Y0092336D01*
X0117068Y0091802D01*
X0117068Y0090735D01*
X0116534Y0090201D01*
X0114933Y0090201D01*
X0116000Y0090201D02*
X0117068Y0089133D01*
X0119223Y0089133D02*
X0119223Y0092336D01*
X0118155Y0092336D02*
X0120291Y0092336D01*
X0121733Y0083186D02*
X0123334Y0083186D01*
X0123868Y0082652D01*
X0123868Y0081585D01*
X0123334Y0081051D01*
X0121733Y0081051D01*
X0122800Y0081051D02*
X0123868Y0079983D01*
X0124955Y0079983D02*
X0126557Y0079983D01*
X0127091Y0080517D01*
X0127091Y0081051D01*
X0126557Y0081585D01*
X0124955Y0081585D01*
X0124955Y0083186D02*
X0124955Y0079983D01*
X0126557Y0081585D02*
X0127091Y0082119D01*
X0127091Y0082652D01*
X0126557Y0083186D01*
X0124955Y0083186D01*
X0121733Y0083186D02*
X0121733Y0079983D01*
X0025997Y0109284D02*
X0025463Y0108750D01*
X0024395Y0108750D01*
X0023862Y0109284D01*
X0024395Y0110352D02*
X0025463Y0110352D01*
X0025997Y0109818D01*
X0025997Y0109284D01*
X0024395Y0110352D02*
X0023862Y0110886D01*
X0023862Y0111419D01*
X0024395Y0111953D01*
X0025463Y0111953D01*
X0025997Y0111419D01*
X0022774Y0111953D02*
X0020639Y0111953D01*
X0021706Y0111953D02*
X0021706Y0108750D01*
X0019551Y0108750D02*
X0018484Y0109818D01*
X0019017Y0109818D02*
X0017416Y0109818D01*
X0017416Y0108750D02*
X0017416Y0111953D01*
X0019017Y0111953D01*
X0019551Y0111419D01*
X0019551Y0110352D01*
X0019017Y0109818D01*
X0016328Y0108750D02*
X0016328Y0111953D01*
X0014193Y0111953D02*
X0014193Y0108750D01*
X0016328Y0108750D02*
X0014193Y0111953D01*
X0014193Y0120561D02*
X0014193Y0123764D01*
X0016328Y0120561D01*
X0016328Y0123764D01*
X0017416Y0123230D02*
X0017416Y0121095D01*
X0017950Y0120561D01*
X0019017Y0120561D01*
X0019551Y0121095D01*
X0019551Y0123230D02*
X0019017Y0123764D01*
X0017950Y0123764D01*
X0017416Y0123230D01*
X0020639Y0123764D02*
X0022774Y0123764D01*
X0021706Y0123764D02*
X0021706Y0120561D01*
X0023862Y0121095D02*
X0024395Y0120561D01*
X0025463Y0120561D01*
X0025997Y0121095D01*
X0025997Y0121629D01*
X0025463Y0122163D01*
X0024395Y0122163D01*
X0023862Y0122697D01*
X0023862Y0123230D01*
X0024395Y0123764D01*
X0025463Y0123764D01*
X0025997Y0123230D01*
X0023040Y0132372D02*
X0021439Y0132372D01*
X0021439Y0135575D01*
X0023040Y0135575D01*
X0023574Y0135041D01*
X0023574Y0132906D01*
X0023040Y0132372D01*
X0020351Y0132372D02*
X0018216Y0135575D01*
X0017128Y0135041D02*
X0017128Y0133974D01*
X0016595Y0133440D01*
X0014993Y0133440D01*
X0014993Y0132372D02*
X0014993Y0135575D01*
X0016595Y0135575D01*
X0017128Y0135041D01*
X0016061Y0133440D02*
X0017128Y0132372D01*
X0018216Y0132372D02*
X0020351Y0135575D01*
X0020551Y0144183D02*
X0018416Y0147386D01*
X0017328Y0147386D02*
X0015193Y0147386D01*
X0016261Y0147386D02*
X0016261Y0144183D01*
X0018416Y0144183D02*
X0020551Y0147386D01*
X0021639Y0147386D02*
X0021639Y0144183D01*
X0023240Y0144183D01*
X0023774Y0144717D01*
X0023774Y0146852D01*
X0023240Y0147386D01*
X0021639Y0147386D01*
D14*
X0012500Y0218520D02*
X0012500Y0219520D01*
X0012500Y0240520D02*
X0012500Y0241520D01*
X0146618Y0192504D02*
X0146618Y0191504D01*
X0146618Y0170504D02*
X0146618Y0169504D01*
D15*
X0135118Y0181004D02*
X0135121Y0181286D01*
X0135132Y0181568D01*
X0135149Y0181850D01*
X0135173Y0182131D01*
X0135204Y0182412D01*
X0135242Y0182691D01*
X0135287Y0182970D01*
X0135339Y0183248D01*
X0135397Y0183524D01*
X0135463Y0183798D01*
X0135535Y0184071D01*
X0135613Y0184342D01*
X0135698Y0184611D01*
X0135790Y0184878D01*
X0135889Y0185143D01*
X0135993Y0185405D01*
X0136105Y0185664D01*
X0136222Y0185921D01*
X0136346Y0186175D01*
X0136476Y0186425D01*
X0136612Y0186672D01*
X0136754Y0186916D01*
X0136902Y0187156D01*
X0137056Y0187393D01*
X0137216Y0187626D01*
X0137381Y0187855D01*
X0137552Y0188079D01*
X0137728Y0188300D01*
X0137910Y0188515D01*
X0138097Y0188727D01*
X0138289Y0188934D01*
X0138486Y0189136D01*
X0138688Y0189333D01*
X0138895Y0189525D01*
X0139107Y0189712D01*
X0139322Y0189894D01*
X0139543Y0190070D01*
X0139767Y0190241D01*
X0139996Y0190406D01*
X0140229Y0190566D01*
X0140466Y0190720D01*
X0140706Y0190868D01*
X0140950Y0191010D01*
X0141197Y0191146D01*
X0141447Y0191276D01*
X0141701Y0191400D01*
X0141958Y0191517D01*
X0142217Y0191629D01*
X0142479Y0191733D01*
X0142744Y0191832D01*
X0143011Y0191924D01*
X0143280Y0192009D01*
X0143551Y0192087D01*
X0143824Y0192159D01*
X0144098Y0192225D01*
X0144374Y0192283D01*
X0144652Y0192335D01*
X0144931Y0192380D01*
X0145210Y0192418D01*
X0145491Y0192449D01*
X0145772Y0192473D01*
X0146054Y0192490D01*
X0146336Y0192501D01*
X0146618Y0192504D01*
X0146900Y0192501D01*
X0147182Y0192490D01*
X0147464Y0192473D01*
X0147745Y0192449D01*
X0148026Y0192418D01*
X0148305Y0192380D01*
X0148584Y0192335D01*
X0148862Y0192283D01*
X0149138Y0192225D01*
X0149412Y0192159D01*
X0149685Y0192087D01*
X0149956Y0192009D01*
X0150225Y0191924D01*
X0150492Y0191832D01*
X0150757Y0191733D01*
X0151019Y0191629D01*
X0151278Y0191517D01*
X0151535Y0191400D01*
X0151789Y0191276D01*
X0152039Y0191146D01*
X0152286Y0191010D01*
X0152530Y0190868D01*
X0152770Y0190720D01*
X0153007Y0190566D01*
X0153240Y0190406D01*
X0153469Y0190241D01*
X0153693Y0190070D01*
X0153914Y0189894D01*
X0154129Y0189712D01*
X0154341Y0189525D01*
X0154548Y0189333D01*
X0154750Y0189136D01*
X0154947Y0188934D01*
X0155139Y0188727D01*
X0155326Y0188515D01*
X0155508Y0188300D01*
X0155684Y0188079D01*
X0155855Y0187855D01*
X0156020Y0187626D01*
X0156180Y0187393D01*
X0156334Y0187156D01*
X0156482Y0186916D01*
X0156624Y0186672D01*
X0156760Y0186425D01*
X0156890Y0186175D01*
X0157014Y0185921D01*
X0157131Y0185664D01*
X0157243Y0185405D01*
X0157347Y0185143D01*
X0157446Y0184878D01*
X0157538Y0184611D01*
X0157623Y0184342D01*
X0157701Y0184071D01*
X0157773Y0183798D01*
X0157839Y0183524D01*
X0157897Y0183248D01*
X0157949Y0182970D01*
X0157994Y0182691D01*
X0158032Y0182412D01*
X0158063Y0182131D01*
X0158087Y0181850D01*
X0158104Y0181568D01*
X0158115Y0181286D01*
X0158118Y0181004D01*
X0158115Y0180722D01*
X0158104Y0180440D01*
X0158087Y0180158D01*
X0158063Y0179877D01*
X0158032Y0179596D01*
X0157994Y0179317D01*
X0157949Y0179038D01*
X0157897Y0178760D01*
X0157839Y0178484D01*
X0157773Y0178210D01*
X0157701Y0177937D01*
X0157623Y0177666D01*
X0157538Y0177397D01*
X0157446Y0177130D01*
X0157347Y0176865D01*
X0157243Y0176603D01*
X0157131Y0176344D01*
X0157014Y0176087D01*
X0156890Y0175833D01*
X0156760Y0175583D01*
X0156624Y0175336D01*
X0156482Y0175092D01*
X0156334Y0174852D01*
X0156180Y0174615D01*
X0156020Y0174382D01*
X0155855Y0174153D01*
X0155684Y0173929D01*
X0155508Y0173708D01*
X0155326Y0173493D01*
X0155139Y0173281D01*
X0154947Y0173074D01*
X0154750Y0172872D01*
X0154548Y0172675D01*
X0154341Y0172483D01*
X0154129Y0172296D01*
X0153914Y0172114D01*
X0153693Y0171938D01*
X0153469Y0171767D01*
X0153240Y0171602D01*
X0153007Y0171442D01*
X0152770Y0171288D01*
X0152530Y0171140D01*
X0152286Y0170998D01*
X0152039Y0170862D01*
X0151789Y0170732D01*
X0151535Y0170608D01*
X0151278Y0170491D01*
X0151019Y0170379D01*
X0150757Y0170275D01*
X0150492Y0170176D01*
X0150225Y0170084D01*
X0149956Y0169999D01*
X0149685Y0169921D01*
X0149412Y0169849D01*
X0149138Y0169783D01*
X0148862Y0169725D01*
X0148584Y0169673D01*
X0148305Y0169628D01*
X0148026Y0169590D01*
X0147745Y0169559D01*
X0147464Y0169535D01*
X0147182Y0169518D01*
X0146900Y0169507D01*
X0146618Y0169504D01*
X0146336Y0169507D01*
X0146054Y0169518D01*
X0145772Y0169535D01*
X0145491Y0169559D01*
X0145210Y0169590D01*
X0144931Y0169628D01*
X0144652Y0169673D01*
X0144374Y0169725D01*
X0144098Y0169783D01*
X0143824Y0169849D01*
X0143551Y0169921D01*
X0143280Y0169999D01*
X0143011Y0170084D01*
X0142744Y0170176D01*
X0142479Y0170275D01*
X0142217Y0170379D01*
X0141958Y0170491D01*
X0141701Y0170608D01*
X0141447Y0170732D01*
X0141197Y0170862D01*
X0140950Y0170998D01*
X0140706Y0171140D01*
X0140466Y0171288D01*
X0140229Y0171442D01*
X0139996Y0171602D01*
X0139767Y0171767D01*
X0139543Y0171938D01*
X0139322Y0172114D01*
X0139107Y0172296D01*
X0138895Y0172483D01*
X0138688Y0172675D01*
X0138486Y0172872D01*
X0138289Y0173074D01*
X0138097Y0173281D01*
X0137910Y0173493D01*
X0137728Y0173708D01*
X0137552Y0173929D01*
X0137381Y0174153D01*
X0137216Y0174382D01*
X0137056Y0174615D01*
X0136902Y0174852D01*
X0136754Y0175092D01*
X0136612Y0175336D01*
X0136476Y0175583D01*
X0136346Y0175833D01*
X0136222Y0176087D01*
X0136105Y0176344D01*
X0135993Y0176603D01*
X0135889Y0176865D01*
X0135790Y0177130D01*
X0135698Y0177397D01*
X0135613Y0177666D01*
X0135535Y0177937D01*
X0135463Y0178210D01*
X0135397Y0178484D01*
X0135339Y0178760D01*
X0135287Y0179038D01*
X0135242Y0179317D01*
X0135204Y0179596D01*
X0135173Y0179877D01*
X0135149Y0180158D01*
X0135132Y0180440D01*
X0135121Y0180722D01*
X0135118Y0181004D01*
X0122751Y0071731D02*
X0122785Y0071729D01*
X0122818Y0071723D01*
X0122850Y0071714D01*
X0122881Y0071701D01*
X0122911Y0071685D01*
X0122938Y0071666D01*
X0122963Y0071643D01*
X0122986Y0071618D01*
X0123005Y0071591D01*
X0123021Y0071561D01*
X0123034Y0071530D01*
X0123043Y0071498D01*
X0123049Y0071465D01*
X0123051Y0071431D01*
X0123049Y0071397D01*
X0123043Y0071364D01*
X0123034Y0071332D01*
X0123021Y0071301D01*
X0123005Y0071271D01*
X0122986Y0071244D01*
X0122963Y0071219D01*
X0122938Y0071196D01*
X0122911Y0071177D01*
X0122881Y0071161D01*
X0122850Y0071148D01*
X0122818Y0071139D01*
X0122785Y0071133D01*
X0122751Y0071131D01*
X0122983Y0071183D02*
X0122983Y0057383D01*
X0122983Y0071183D01*
X0122751Y0071131D02*
X0122717Y0071133D01*
X0122684Y0071139D01*
X0122652Y0071148D01*
X0122621Y0071161D01*
X0122591Y0071177D01*
X0122564Y0071196D01*
X0122539Y0071219D01*
X0122516Y0071244D01*
X0122497Y0071271D01*
X0122481Y0071301D01*
X0122468Y0071332D01*
X0122459Y0071364D01*
X0122453Y0071397D01*
X0122451Y0071431D01*
X0122453Y0071465D01*
X0122459Y0071498D01*
X0122468Y0071530D01*
X0122481Y0071561D01*
X0122497Y0071591D01*
X0122516Y0071618D01*
X0122539Y0071643D01*
X0122564Y0071666D01*
X0122591Y0071685D01*
X0122621Y0071701D01*
X0122652Y0071714D01*
X0122684Y0071723D01*
X0122717Y0071729D01*
X0122751Y0071731D01*
X0122785Y0071729D01*
X0122818Y0071723D01*
X0122850Y0071714D01*
X0122881Y0071701D01*
X0122911Y0071685D01*
X0122938Y0071666D01*
X0122963Y0071643D01*
X0122986Y0071618D01*
X0123005Y0071591D01*
X0123021Y0071561D01*
X0123034Y0071530D01*
X0123043Y0071498D01*
X0123049Y0071465D01*
X0123051Y0071431D01*
X0123049Y0071397D01*
X0123043Y0071364D01*
X0123034Y0071332D01*
X0123021Y0071301D01*
X0123005Y0071271D01*
X0122986Y0071244D01*
X0122963Y0071219D01*
X0122938Y0071196D01*
X0122911Y0071177D01*
X0122881Y0071161D01*
X0122850Y0071148D01*
X0122818Y0071139D01*
X0122785Y0071133D01*
X0122751Y0071131D01*
X0122717Y0071133D01*
X0122684Y0071139D01*
X0122652Y0071148D01*
X0122621Y0071161D01*
X0122591Y0071177D01*
X0122564Y0071196D01*
X0122539Y0071219D01*
X0122516Y0071244D01*
X0122497Y0071271D01*
X0122481Y0071301D01*
X0122468Y0071332D01*
X0122459Y0071364D01*
X0122453Y0071397D01*
X0122451Y0071431D01*
X0122453Y0071465D01*
X0122459Y0071498D01*
X0122468Y0071530D01*
X0122481Y0071561D01*
X0122497Y0071591D01*
X0122516Y0071618D01*
X0122539Y0071643D01*
X0122564Y0071666D01*
X0122591Y0071685D01*
X0122621Y0071701D01*
X0122652Y0071714D01*
X0122684Y0071723D01*
X0122717Y0071729D01*
X0122751Y0071731D01*
X0109183Y0071183D02*
X0109183Y0057383D01*
X0109183Y0071183D01*
X0006988Y0230020D02*
X0006990Y0230168D01*
X0006996Y0230316D01*
X0007006Y0230464D01*
X0007020Y0230611D01*
X0007038Y0230758D01*
X0007059Y0230904D01*
X0007085Y0231050D01*
X0007115Y0231195D01*
X0007148Y0231339D01*
X0007186Y0231482D01*
X0007227Y0231624D01*
X0007272Y0231765D01*
X0007320Y0231905D01*
X0007373Y0232044D01*
X0007429Y0232181D01*
X0007489Y0232316D01*
X0007552Y0232450D01*
X0007619Y0232582D01*
X0007690Y0232712D01*
X0007764Y0232840D01*
X0007841Y0232966D01*
X0007922Y0233090D01*
X0008006Y0233212D01*
X0008093Y0233331D01*
X0008184Y0233448D01*
X0008278Y0233563D01*
X0008374Y0233675D01*
X0008474Y0233785D01*
X0008576Y0233891D01*
X0008682Y0233995D01*
X0008790Y0234096D01*
X0008901Y0234194D01*
X0009014Y0234290D01*
X0009130Y0234382D01*
X0009248Y0234471D01*
X0009369Y0234556D01*
X0009492Y0234639D01*
X0009617Y0234718D01*
X0009744Y0234794D01*
X0009873Y0234866D01*
X0010004Y0234935D01*
X0010137Y0235000D01*
X0010272Y0235061D01*
X0010408Y0235119D01*
X0010545Y0235174D01*
X0010684Y0235224D01*
X0010825Y0235271D01*
X0010966Y0235314D01*
X0011109Y0235354D01*
X0011253Y0235389D01*
X0011397Y0235421D01*
X0011543Y0235448D01*
X0011689Y0235472D01*
X0011836Y0235492D01*
X0011983Y0235508D01*
X0012130Y0235520D01*
X0012278Y0235528D01*
X0012426Y0235532D01*
X0012574Y0235532D01*
X0012722Y0235528D01*
X0012870Y0235520D01*
X0013017Y0235508D01*
X0013164Y0235492D01*
X0013311Y0235472D01*
X0013457Y0235448D01*
X0013603Y0235421D01*
X0013747Y0235389D01*
X0013891Y0235354D01*
X0014034Y0235314D01*
X0014175Y0235271D01*
X0014316Y0235224D01*
X0014455Y0235174D01*
X0014592Y0235119D01*
X0014728Y0235061D01*
X0014863Y0235000D01*
X0014996Y0234935D01*
X0015127Y0234866D01*
X0015256Y0234794D01*
X0015383Y0234718D01*
X0015508Y0234639D01*
X0015631Y0234556D01*
X0015752Y0234471D01*
X0015870Y0234382D01*
X0015986Y0234290D01*
X0016099Y0234194D01*
X0016210Y0234096D01*
X0016318Y0233995D01*
X0016424Y0233891D01*
X0016526Y0233785D01*
X0016626Y0233675D01*
X0016722Y0233563D01*
X0016816Y0233448D01*
X0016907Y0233331D01*
X0016994Y0233212D01*
X0017078Y0233090D01*
X0017159Y0232966D01*
X0017236Y0232840D01*
X0017310Y0232712D01*
X0017381Y0232582D01*
X0017448Y0232450D01*
X0017511Y0232316D01*
X0017571Y0232181D01*
X0017627Y0232044D01*
X0017680Y0231905D01*
X0017728Y0231765D01*
X0017773Y0231624D01*
X0017814Y0231482D01*
X0017852Y0231339D01*
X0017885Y0231195D01*
X0017915Y0231050D01*
X0017941Y0230904D01*
X0017962Y0230758D01*
X0017980Y0230611D01*
X0017994Y0230464D01*
X0018004Y0230316D01*
X0018010Y0230168D01*
X0018012Y0230020D01*
X0018010Y0229872D01*
X0018004Y0229724D01*
X0017994Y0229576D01*
X0017980Y0229429D01*
X0017962Y0229282D01*
X0017941Y0229136D01*
X0017915Y0228990D01*
X0017885Y0228845D01*
X0017852Y0228701D01*
X0017814Y0228558D01*
X0017773Y0228416D01*
X0017728Y0228275D01*
X0017680Y0228135D01*
X0017627Y0227996D01*
X0017571Y0227859D01*
X0017511Y0227724D01*
X0017448Y0227590D01*
X0017381Y0227458D01*
X0017310Y0227328D01*
X0017236Y0227200D01*
X0017159Y0227074D01*
X0017078Y0226950D01*
X0016994Y0226828D01*
X0016907Y0226709D01*
X0016816Y0226592D01*
X0016722Y0226477D01*
X0016626Y0226365D01*
X0016526Y0226255D01*
X0016424Y0226149D01*
X0016318Y0226045D01*
X0016210Y0225944D01*
X0016099Y0225846D01*
X0015986Y0225750D01*
X0015870Y0225658D01*
X0015752Y0225569D01*
X0015631Y0225484D01*
X0015508Y0225401D01*
X0015383Y0225322D01*
X0015256Y0225246D01*
X0015127Y0225174D01*
X0014996Y0225105D01*
X0014863Y0225040D01*
X0014728Y0224979D01*
X0014592Y0224921D01*
X0014455Y0224866D01*
X0014316Y0224816D01*
X0014175Y0224769D01*
X0014034Y0224726D01*
X0013891Y0224686D01*
X0013747Y0224651D01*
X0013603Y0224619D01*
X0013457Y0224592D01*
X0013311Y0224568D01*
X0013164Y0224548D01*
X0013017Y0224532D01*
X0012870Y0224520D01*
X0012722Y0224512D01*
X0012574Y0224508D01*
X0012426Y0224508D01*
X0012278Y0224512D01*
X0012130Y0224520D01*
X0011983Y0224532D01*
X0011836Y0224548D01*
X0011689Y0224568D01*
X0011543Y0224592D01*
X0011397Y0224619D01*
X0011253Y0224651D01*
X0011109Y0224686D01*
X0010966Y0224726D01*
X0010825Y0224769D01*
X0010684Y0224816D01*
X0010545Y0224866D01*
X0010408Y0224921D01*
X0010272Y0224979D01*
X0010137Y0225040D01*
X0010004Y0225105D01*
X0009873Y0225174D01*
X0009744Y0225246D01*
X0009617Y0225322D01*
X0009492Y0225401D01*
X0009369Y0225484D01*
X0009248Y0225569D01*
X0009130Y0225658D01*
X0009014Y0225750D01*
X0008901Y0225846D01*
X0008790Y0225944D01*
X0008682Y0226045D01*
X0008576Y0226149D01*
X0008474Y0226255D01*
X0008374Y0226365D01*
X0008278Y0226477D01*
X0008184Y0226592D01*
X0008093Y0226709D01*
X0008006Y0226828D01*
X0007922Y0226950D01*
X0007841Y0227074D01*
X0007764Y0227200D01*
X0007690Y0227328D01*
X0007619Y0227458D01*
X0007552Y0227590D01*
X0007489Y0227724D01*
X0007429Y0227859D01*
X0007373Y0227996D01*
X0007320Y0228135D01*
X0007272Y0228275D01*
X0007227Y0228416D01*
X0007186Y0228558D01*
X0007148Y0228701D01*
X0007115Y0228845D01*
X0007085Y0228990D01*
X0007059Y0229136D01*
X0007038Y0229282D01*
X0007020Y0229429D01*
X0007006Y0229576D01*
X0006996Y0229724D01*
X0006990Y0229872D01*
X0006988Y0230020D01*
D16*
X0006990Y0230168D01*
X0006996Y0230316D01*
X0007006Y0230464D01*
X0007020Y0230611D01*
X0007038Y0230758D01*
X0007059Y0230904D01*
X0007085Y0231050D01*
X0007115Y0231195D01*
X0007148Y0231339D01*
X0007186Y0231482D01*
X0007227Y0231624D01*
X0007272Y0231765D01*
X0007320Y0231905D01*
X0007373Y0232044D01*
X0007429Y0232181D01*
X0007489Y0232316D01*
X0007552Y0232450D01*
X0007619Y0232582D01*
X0007690Y0232712D01*
X0007764Y0232840D01*
X0007841Y0232966D01*
X0007922Y0233090D01*
X0008006Y0233212D01*
X0008093Y0233331D01*
X0008184Y0233448D01*
X0008278Y0233563D01*
X0008374Y0233675D01*
X0008474Y0233785D01*
X0008576Y0233891D01*
X0008682Y0233995D01*
X0008790Y0234096D01*
X0008901Y0234194D01*
X0009014Y0234290D01*
X0009130Y0234382D01*
X0009248Y0234471D01*
X0009369Y0234556D01*
X0009492Y0234639D01*
X0009617Y0234718D01*
X0009744Y0234794D01*
X0009873Y0234866D01*
X0010004Y0234935D01*
X0010137Y0235000D01*
X0010272Y0235061D01*
X0010408Y0235119D01*
X0010545Y0235174D01*
X0010684Y0235224D01*
X0010825Y0235271D01*
X0010966Y0235314D01*
X0011109Y0235354D01*
X0011253Y0235389D01*
X0011397Y0235421D01*
X0011543Y0235448D01*
X0011689Y0235472D01*
X0011836Y0235492D01*
X0011983Y0235508D01*
X0012130Y0235520D01*
X0012278Y0235528D01*
X0012426Y0235532D01*
X0012574Y0235532D01*
X0012722Y0235528D01*
X0012870Y0235520D01*
X0013017Y0235508D01*
X0013164Y0235492D01*
X0013311Y0235472D01*
X0013457Y0235448D01*
X0013603Y0235421D01*
X0013747Y0235389D01*
X0013891Y0235354D01*
X0014034Y0235314D01*
X0014175Y0235271D01*
X0014316Y0235224D01*
X0014455Y0235174D01*
X0014592Y0235119D01*
X0014728Y0235061D01*
X0014863Y0235000D01*
X0014996Y0234935D01*
X0015127Y0234866D01*
X0015256Y0234794D01*
X0015383Y0234718D01*
X0015508Y0234639D01*
X0015631Y0234556D01*
X0015752Y0234471D01*
X0015870Y0234382D01*
X0015986Y0234290D01*
X0016099Y0234194D01*
X0016210Y0234096D01*
X0016318Y0233995D01*
X0016424Y0233891D01*
X0016526Y0233785D01*
X0016626Y0233675D01*
X0016722Y0233563D01*
X0016816Y0233448D01*
X0016907Y0233331D01*
X0016994Y0233212D01*
X0017078Y0233090D01*
X0017159Y0232966D01*
X0017236Y0232840D01*
X0017310Y0232712D01*
X0017381Y0232582D01*
X0017448Y0232450D01*
X0017511Y0232316D01*
X0017571Y0232181D01*
X0017627Y0232044D01*
X0017680Y0231905D01*
X0017728Y0231765D01*
X0017773Y0231624D01*
X0017814Y0231482D01*
X0017852Y0231339D01*
X0017885Y0231195D01*
X0017915Y0231050D01*
X0017941Y0230904D01*
X0017962Y0230758D01*
X0017980Y0230611D01*
X0017994Y0230464D01*
X0018004Y0230316D01*
X0018010Y0230168D01*
X0018012Y0230020D01*
X0018010Y0229872D01*
X0018004Y0229724D01*
X0017994Y0229576D01*
X0017980Y0229429D01*
X0017962Y0229282D01*
X0017941Y0229136D01*
X0017915Y0228990D01*
X0017885Y0228845D01*
X0017852Y0228701D01*
X0017814Y0228558D01*
X0017773Y0228416D01*
X0017728Y0228275D01*
X0017680Y0228135D01*
X0017627Y0227996D01*
X0017571Y0227859D01*
X0017511Y0227724D01*
X0017448Y0227590D01*
X0017381Y0227458D01*
X0017310Y0227328D01*
X0017236Y0227200D01*
X0017159Y0227074D01*
X0017078Y0226950D01*
X0016994Y0226828D01*
X0016907Y0226709D01*
X0016816Y0226592D01*
X0016722Y0226477D01*
X0016626Y0226365D01*
X0016526Y0226255D01*
X0016424Y0226149D01*
X0016318Y0226045D01*
X0016210Y0225944D01*
X0016099Y0225846D01*
X0015986Y0225750D01*
X0015870Y0225658D01*
X0015752Y0225569D01*
X0015631Y0225484D01*
X0015508Y0225401D01*
X0015383Y0225322D01*
X0015256Y0225246D01*
X0015127Y0225174D01*
X0014996Y0225105D01*
X0014863Y0225040D01*
X0014728Y0224979D01*
X0014592Y0224921D01*
X0014455Y0224866D01*
X0014316Y0224816D01*
X0014175Y0224769D01*
X0014034Y0224726D01*
X0013891Y0224686D01*
X0013747Y0224651D01*
X0013603Y0224619D01*
X0013457Y0224592D01*
X0013311Y0224568D01*
X0013164Y0224548D01*
X0013017Y0224532D01*
X0012870Y0224520D01*
X0012722Y0224512D01*
X0012574Y0224508D01*
X0012426Y0224508D01*
X0012278Y0224512D01*
X0012130Y0224520D01*
X0011983Y0224532D01*
X0011836Y0224548D01*
X0011689Y0224568D01*
X0011543Y0224592D01*
X0011397Y0224619D01*
X0011253Y0224651D01*
X0011109Y0224686D01*
X0010966Y0224726D01*
X0010825Y0224769D01*
X0010684Y0224816D01*
X0010545Y0224866D01*
X0010408Y0224921D01*
X0010272Y0224979D01*
X0010137Y0225040D01*
X0010004Y0225105D01*
X0009873Y0225174D01*
X0009744Y0225246D01*
X0009617Y0225322D01*
X0009492Y0225401D01*
X0009369Y0225484D01*
X0009248Y0225569D01*
X0009130Y0225658D01*
X0009014Y0225750D01*
X0008901Y0225846D01*
X0008790Y0225944D01*
X0008682Y0226045D01*
X0008576Y0226149D01*
X0008474Y0226255D01*
X0008374Y0226365D01*
X0008278Y0226477D01*
X0008184Y0226592D01*
X0008093Y0226709D01*
X0008006Y0226828D01*
X0007922Y0226950D01*
X0007841Y0227074D01*
X0007764Y0227200D01*
X0007690Y0227328D01*
X0007619Y0227458D01*
X0007552Y0227590D01*
X0007489Y0227724D01*
X0007429Y0227859D01*
X0007373Y0227996D01*
X0007320Y0228135D01*
X0007272Y0228275D01*
X0007227Y0228416D01*
X0007186Y0228558D01*
X0007148Y0228701D01*
X0007115Y0228845D01*
X0007085Y0228990D01*
X0007059Y0229136D01*
X0007038Y0229282D01*
X0007020Y0229429D01*
X0007006Y0229576D01*
X0006996Y0229724D01*
X0006990Y0229872D01*
X0006988Y0230020D01*
X0135209Y0161923D02*
X0135209Y0142644D01*
X0150957Y0142644D01*
X0150957Y0161923D01*
X0135209Y0161923D01*
X0140721Y0161923D02*
X0140723Y0161827D01*
X0140729Y0161730D01*
X0140739Y0161635D01*
X0140752Y0161539D01*
X0140770Y0161444D01*
X0140791Y0161351D01*
X0140817Y0161258D01*
X0140846Y0161166D01*
X0140878Y0161075D01*
X0140915Y0160986D01*
X0140955Y0160898D01*
X0140998Y0160812D01*
X0141046Y0160728D01*
X0141096Y0160646D01*
X0141150Y0160566D01*
X0141207Y0160488D01*
X0141267Y0160413D01*
X0141330Y0160340D01*
X0141396Y0160270D01*
X0141465Y0160202D01*
X0141536Y0160138D01*
X0141610Y0160076D01*
X0141687Y0160018D01*
X0141766Y0159962D01*
X0141847Y0159910D01*
X0141930Y0159862D01*
X0142015Y0159816D01*
X0142102Y0159774D01*
X0142190Y0159736D01*
X0142280Y0159702D01*
X0142371Y0159671D01*
X0142464Y0159644D01*
X0142557Y0159620D01*
X0142652Y0159601D01*
X0142747Y0159585D01*
X0142842Y0159573D01*
X0142939Y0159565D01*
X0143035Y0159561D01*
X0143131Y0159561D01*
X0143227Y0159565D01*
X0143324Y0159573D01*
X0143419Y0159585D01*
X0143514Y0159601D01*
X0143609Y0159620D01*
X0143702Y0159644D01*
X0143795Y0159671D01*
X0143886Y0159702D01*
X0143976Y0159736D01*
X0144064Y0159774D01*
X0144151Y0159816D01*
X0144236Y0159862D01*
X0144319Y0159910D01*
X0144400Y0159962D01*
X0144479Y0160018D01*
X0144556Y0160076D01*
X0144630Y0160138D01*
X0144701Y0160202D01*
X0144770Y0160270D01*
X0144836Y0160340D01*
X0144899Y0160413D01*
X0144959Y0160488D01*
X0145016Y0160566D01*
X0145070Y0160646D01*
X0145120Y0160728D01*
X0145168Y0160812D01*
X0145211Y0160898D01*
X0145251Y0160986D01*
X0145288Y0161075D01*
X0145320Y0161166D01*
X0145349Y0161258D01*
X0145375Y0161351D01*
X0145396Y0161444D01*
X0145414Y0161539D01*
X0145427Y0161635D01*
X0145437Y0161730D01*
X0145443Y0161827D01*
X0145445Y0161923D01*
X0140712Y0181004D02*
X0140714Y0181157D01*
X0140720Y0181311D01*
X0140730Y0181464D01*
X0140744Y0181616D01*
X0140762Y0181769D01*
X0140784Y0181920D01*
X0140809Y0182071D01*
X0140839Y0182222D01*
X0140873Y0182372D01*
X0140910Y0182520D01*
X0140951Y0182668D01*
X0140996Y0182814D01*
X0141045Y0182960D01*
X0141098Y0183104D01*
X0141154Y0183246D01*
X0141214Y0183387D01*
X0141278Y0183527D01*
X0141345Y0183665D01*
X0141416Y0183801D01*
X0141491Y0183935D01*
X0141568Y0184067D01*
X0141650Y0184197D01*
X0141734Y0184325D01*
X0141822Y0184451D01*
X0141913Y0184574D01*
X0142007Y0184695D01*
X0142105Y0184813D01*
X0142205Y0184929D01*
X0142309Y0185042D01*
X0142415Y0185153D01*
X0142524Y0185261D01*
X0142636Y0185366D01*
X0142750Y0185467D01*
X0142868Y0185566D01*
X0142987Y0185662D01*
X0143109Y0185755D01*
X0143234Y0185844D01*
X0143361Y0185931D01*
X0143490Y0186013D01*
X0143621Y0186093D01*
X0143754Y0186169D01*
X0143889Y0186242D01*
X0144026Y0186311D01*
X0144165Y0186376D01*
X0144305Y0186438D01*
X0144447Y0186496D01*
X0144590Y0186551D01*
X0144735Y0186602D01*
X0144881Y0186649D01*
X0145028Y0186692D01*
X0145176Y0186731D01*
X0145325Y0186767D01*
X0145475Y0186798D01*
X0145626Y0186826D01*
X0145777Y0186850D01*
X0145930Y0186870D01*
X0146082Y0186886D01*
X0146235Y0186898D01*
X0146388Y0186906D01*
X0146541Y0186910D01*
X0146695Y0186910D01*
X0146848Y0186906D01*
X0147001Y0186898D01*
X0147154Y0186886D01*
X0147306Y0186870D01*
X0147459Y0186850D01*
X0147610Y0186826D01*
X0147761Y0186798D01*
X0147911Y0186767D01*
X0148060Y0186731D01*
X0148208Y0186692D01*
X0148355Y0186649D01*
X0148501Y0186602D01*
X0148646Y0186551D01*
X0148789Y0186496D01*
X0148931Y0186438D01*
X0149071Y0186376D01*
X0149210Y0186311D01*
X0149347Y0186242D01*
X0149482Y0186169D01*
X0149615Y0186093D01*
X0149746Y0186013D01*
X0149875Y0185931D01*
X0150002Y0185844D01*
X0150127Y0185755D01*
X0150249Y0185662D01*
X0150368Y0185566D01*
X0150486Y0185467D01*
X0150600Y0185366D01*
X0150712Y0185261D01*
X0150821Y0185153D01*
X0150927Y0185042D01*
X0151031Y0184929D01*
X0151131Y0184813D01*
X0151229Y0184695D01*
X0151323Y0184574D01*
X0151414Y0184451D01*
X0151502Y0184325D01*
X0151586Y0184197D01*
X0151668Y0184067D01*
X0151745Y0183935D01*
X0151820Y0183801D01*
X0151891Y0183665D01*
X0151958Y0183527D01*
X0152022Y0183387D01*
X0152082Y0183246D01*
X0152138Y0183104D01*
X0152191Y0182960D01*
X0152240Y0182814D01*
X0152285Y0182668D01*
X0152326Y0182520D01*
X0152363Y0182372D01*
X0152397Y0182222D01*
X0152427Y0182071D01*
X0152452Y0181920D01*
X0152474Y0181769D01*
X0152492Y0181616D01*
X0152506Y0181464D01*
X0152516Y0181311D01*
X0152522Y0181157D01*
X0152524Y0181004D01*
X0152522Y0180851D01*
X0152516Y0180697D01*
X0152506Y0180544D01*
X0152492Y0180392D01*
X0152474Y0180239D01*
X0152452Y0180088D01*
X0152427Y0179937D01*
X0152397Y0179786D01*
X0152363Y0179636D01*
X0152326Y0179488D01*
X0152285Y0179340D01*
X0152240Y0179194D01*
X0152191Y0179048D01*
X0152138Y0178904D01*
X0152082Y0178762D01*
X0152022Y0178621D01*
X0151958Y0178481D01*
X0151891Y0178343D01*
X0151820Y0178207D01*
X0151745Y0178073D01*
X0151668Y0177941D01*
X0151586Y0177811D01*
X0151502Y0177683D01*
X0151414Y0177557D01*
X0151323Y0177434D01*
X0151229Y0177313D01*
X0151131Y0177195D01*
X0151031Y0177079D01*
X0150927Y0176966D01*
X0150821Y0176855D01*
X0150712Y0176747D01*
X0150600Y0176642D01*
X0150486Y0176541D01*
X0150368Y0176442D01*
X0150249Y0176346D01*
X0150127Y0176253D01*
X0150002Y0176164D01*
X0149875Y0176077D01*
X0149746Y0175995D01*
X0149615Y0175915D01*
X0149482Y0175839D01*
X0149347Y0175766D01*
X0149210Y0175697D01*
X0149071Y0175632D01*
X0148931Y0175570D01*
X0148789Y0175512D01*
X0148646Y0175457D01*
X0148501Y0175406D01*
X0148355Y0175359D01*
X0148208Y0175316D01*
X0148060Y0175277D01*
X0147911Y0175241D01*
X0147761Y0175210D01*
X0147610Y0175182D01*
X0147459Y0175158D01*
X0147306Y0175138D01*
X0147154Y0175122D01*
X0147001Y0175110D01*
X0146848Y0175102D01*
X0146695Y0175098D01*
X0146541Y0175098D01*
X0146388Y0175102D01*
X0146235Y0175110D01*
X0146082Y0175122D01*
X0145930Y0175138D01*
X0145777Y0175158D01*
X0145626Y0175182D01*
X0145475Y0175210D01*
X0145325Y0175241D01*
X0145176Y0175277D01*
X0145028Y0175316D01*
X0144881Y0175359D01*
X0144735Y0175406D01*
X0144590Y0175457D01*
X0144447Y0175512D01*
X0144305Y0175570D01*
X0144165Y0175632D01*
X0144026Y0175697D01*
X0143889Y0175766D01*
X0143754Y0175839D01*
X0143621Y0175915D01*
X0143490Y0175995D01*
X0143361Y0176077D01*
X0143234Y0176164D01*
X0143109Y0176253D01*
X0142987Y0176346D01*
X0142868Y0176442D01*
X0142750Y0176541D01*
X0142636Y0176642D01*
X0142524Y0176747D01*
X0142415Y0176855D01*
X0142309Y0176966D01*
X0142205Y0177079D01*
X0142105Y0177195D01*
X0142007Y0177313D01*
X0141913Y0177434D01*
X0141822Y0177557D01*
X0141734Y0177683D01*
X0141650Y0177811D01*
X0141568Y0177941D01*
X0141491Y0178073D01*
X0141416Y0178207D01*
X0141345Y0178343D01*
X0141278Y0178481D01*
X0141214Y0178621D01*
X0141154Y0178762D01*
X0141098Y0178904D01*
X0141045Y0179048D01*
X0140996Y0179194D01*
X0140951Y0179340D01*
X0140910Y0179488D01*
X0140873Y0179636D01*
X0140839Y0179786D01*
X0140809Y0179937D01*
X0140784Y0180088D01*
X0140762Y0180239D01*
X0140744Y0180392D01*
X0140730Y0180544D01*
X0140720Y0180697D01*
X0140714Y0180851D01*
X0140712Y0181004D01*
D17*
X0150659Y0213943D02*
X0151109Y0213968D01*
X0151108Y0213967D02*
X0151115Y0213907D01*
X0151126Y0213847D01*
X0151140Y0213789D01*
X0151158Y0213731D01*
X0151180Y0213674D01*
X0151206Y0213619D01*
X0151235Y0213566D01*
X0151267Y0213515D01*
X0151303Y0213466D01*
X0151342Y0213419D01*
X0151383Y0213375D01*
X0151428Y0213334D01*
X0151474Y0213295D01*
X0151524Y0213260D01*
X0151575Y0213228D01*
X0151629Y0213200D01*
X0151684Y0213174D01*
X0151740Y0213153D01*
X0151798Y0213135D01*
X0151857Y0213121D01*
X0151917Y0213111D01*
X0151977Y0213105D01*
X0152038Y0213102D01*
X0152099Y0213103D01*
X0152159Y0213109D01*
X0152219Y0213118D01*
X0152278Y0213131D01*
X0152336Y0213148D01*
X0152393Y0213168D01*
X0152449Y0213193D01*
X0152503Y0213220D01*
X0152555Y0213251D01*
X0152605Y0213286D01*
X0152652Y0213323D01*
X0152697Y0213364D01*
X0152740Y0213407D01*
X0152779Y0213453D01*
X0152816Y0213502D01*
X0152849Y0213552D01*
X0152879Y0213605D01*
X0152905Y0213659D01*
X0152928Y0213716D01*
X0152947Y0213773D01*
X0152963Y0213832D01*
X0152975Y0213891D01*
X0152983Y0213951D01*
X0152986Y0214012D01*
X0153436Y0214009D01*
X0153437Y0214009D01*
X0153433Y0213936D01*
X0153425Y0213863D01*
X0153414Y0213791D01*
X0153399Y0213720D01*
X0153380Y0213649D01*
X0153358Y0213580D01*
X0153331Y0213511D01*
X0153302Y0213445D01*
X0153269Y0213380D01*
X0153232Y0213316D01*
X0153192Y0213255D01*
X0153149Y0213196D01*
X0153103Y0213139D01*
X0153055Y0213085D01*
X0153003Y0213033D01*
X0152949Y0212985D01*
X0152892Y0212939D01*
X0152833Y0212896D01*
X0152771Y0212856D01*
X0152708Y0212820D01*
X0152643Y0212787D01*
X0152576Y0212757D01*
X0152508Y0212731D01*
X0152439Y0212709D01*
X0152368Y0212690D01*
X0152297Y0212675D01*
X0152224Y0212663D01*
X0152152Y0212656D01*
X0152079Y0212652D01*
X0152006Y0212653D01*
X0151933Y0212657D01*
X0151860Y0212664D01*
X0151788Y0212676D01*
X0151717Y0212691D01*
X0151646Y0212711D01*
X0151577Y0212733D01*
X0151509Y0212760D01*
X0151442Y0212790D01*
X0151377Y0212823D01*
X0151314Y0212860D01*
X0151253Y0212900D01*
X0151194Y0212943D01*
X0151138Y0212989D01*
X0151084Y0213038D01*
X0151032Y0213090D01*
X0150984Y0213145D01*
X0150938Y0213202D01*
X0150896Y0213261D01*
X0150856Y0213322D01*
X0150820Y0213386D01*
X0150787Y0213451D01*
X0150758Y0213518D01*
X0150732Y0213586D01*
X0150710Y0213656D01*
X0150691Y0213727D01*
X0150677Y0213798D01*
X0150666Y0213870D01*
X0150659Y0213943D01*
X0150706Y0213945D01*
X0150713Y0213874D01*
X0150724Y0213803D01*
X0150738Y0213733D01*
X0150757Y0213664D01*
X0150779Y0213595D01*
X0150804Y0213528D01*
X0150834Y0213463D01*
X0150866Y0213399D01*
X0150902Y0213337D01*
X0150942Y0213277D01*
X0150984Y0213219D01*
X0151030Y0213163D01*
X0151078Y0213110D01*
X0151129Y0213060D01*
X0151183Y0213013D01*
X0151239Y0212968D01*
X0151298Y0212927D01*
X0151358Y0212888D01*
X0151421Y0212853D01*
X0151485Y0212821D01*
X0151551Y0212793D01*
X0151619Y0212769D01*
X0151687Y0212748D01*
X0151757Y0212730D01*
X0151828Y0212717D01*
X0151899Y0212707D01*
X0151970Y0212701D01*
X0152042Y0212699D01*
X0152114Y0212701D01*
X0152185Y0212706D01*
X0152256Y0212716D01*
X0152327Y0212729D01*
X0152397Y0212746D01*
X0152465Y0212766D01*
X0152533Y0212790D01*
X0152599Y0212818D01*
X0152664Y0212849D01*
X0152726Y0212884D01*
X0152787Y0212922D01*
X0152846Y0212963D01*
X0152903Y0213007D01*
X0152957Y0213055D01*
X0153008Y0213105D01*
X0153057Y0213157D01*
X0153103Y0213212D01*
X0153146Y0213270D01*
X0153185Y0213330D01*
X0153222Y0213392D01*
X0153255Y0213455D01*
X0153284Y0213521D01*
X0153310Y0213588D01*
X0153333Y0213656D01*
X0153352Y0213725D01*
X0153367Y0213795D01*
X0153378Y0213866D01*
X0153386Y0213937D01*
X0153390Y0214009D01*
X0153343Y0214009D01*
X0153339Y0213939D01*
X0153331Y0213869D01*
X0153320Y0213799D01*
X0153305Y0213731D01*
X0153286Y0213663D01*
X0153263Y0213596D01*
X0153237Y0213530D01*
X0153208Y0213466D01*
X0153175Y0213404D01*
X0153138Y0213344D01*
X0153099Y0213286D01*
X0153056Y0213230D01*
X0153011Y0213176D01*
X0152962Y0213125D01*
X0152911Y0213076D01*
X0152857Y0213031D01*
X0152801Y0212988D01*
X0152743Y0212949D01*
X0152682Y0212913D01*
X0152620Y0212880D01*
X0152556Y0212850D01*
X0152490Y0212824D01*
X0152423Y0212802D01*
X0152355Y0212783D01*
X0152287Y0212769D01*
X0152217Y0212757D01*
X0152147Y0212750D01*
X0152077Y0212746D01*
X0152006Y0212747D01*
X0151936Y0212751D01*
X0151866Y0212759D01*
X0151796Y0212770D01*
X0151728Y0212786D01*
X0151660Y0212805D01*
X0151593Y0212828D01*
X0151528Y0212854D01*
X0151464Y0212884D01*
X0151402Y0212917D01*
X0151342Y0212954D01*
X0151284Y0212994D01*
X0151228Y0213037D01*
X0151174Y0213083D01*
X0151124Y0213131D01*
X0151075Y0213183D01*
X0151030Y0213237D01*
X0150988Y0213293D01*
X0150949Y0213352D01*
X0150913Y0213412D01*
X0150880Y0213475D01*
X0150851Y0213539D01*
X0150825Y0213604D01*
X0150803Y0213671D01*
X0150785Y0213739D01*
X0150770Y0213808D01*
X0150760Y0213878D01*
X0150752Y0213948D01*
X0150799Y0213951D01*
X0150806Y0213882D01*
X0150817Y0213814D01*
X0150832Y0213746D01*
X0150850Y0213679D01*
X0150872Y0213614D01*
X0150897Y0213550D01*
X0150927Y0213487D01*
X0150959Y0213426D01*
X0150995Y0213367D01*
X0151034Y0213310D01*
X0151076Y0213255D01*
X0151121Y0213202D01*
X0151169Y0213153D01*
X0151219Y0213105D01*
X0151272Y0213061D01*
X0151328Y0213020D01*
X0151385Y0212982D01*
X0151445Y0212947D01*
X0151506Y0212915D01*
X0151570Y0212887D01*
X0151634Y0212863D01*
X0151700Y0212842D01*
X0151767Y0212825D01*
X0151835Y0212811D01*
X0151903Y0212801D01*
X0151972Y0212795D01*
X0152041Y0212793D01*
X0152110Y0212795D01*
X0152179Y0212800D01*
X0152247Y0212809D01*
X0152315Y0212822D01*
X0152382Y0212839D01*
X0152448Y0212860D01*
X0152513Y0212884D01*
X0152576Y0212911D01*
X0152638Y0212942D01*
X0152698Y0212977D01*
X0152756Y0213014D01*
X0152812Y0213055D01*
X0152865Y0213099D01*
X0152916Y0213146D01*
X0152964Y0213195D01*
X0153010Y0213247D01*
X0153052Y0213302D01*
X0153092Y0213358D01*
X0153128Y0213417D01*
X0153161Y0213478D01*
X0153191Y0213540D01*
X0153217Y0213604D01*
X0153239Y0213670D01*
X0153258Y0213736D01*
X0153273Y0213804D01*
X0153284Y0213872D01*
X0153292Y0213941D01*
X0153296Y0214010D01*
X0153249Y0214010D01*
X0153245Y0213941D01*
X0153237Y0213872D01*
X0153225Y0213805D01*
X0153210Y0213737D01*
X0153190Y0213671D01*
X0153167Y0213606D01*
X0153140Y0213543D01*
X0153110Y0213481D01*
X0153076Y0213421D01*
X0153038Y0213363D01*
X0152998Y0213307D01*
X0152954Y0213254D01*
X0152907Y0213203D01*
X0152858Y0213155D01*
X0152805Y0213110D01*
X0152751Y0213068D01*
X0152694Y0213029D01*
X0152634Y0212994D01*
X0152573Y0212962D01*
X0152510Y0212933D01*
X0152446Y0212908D01*
X0152380Y0212887D01*
X0152314Y0212870D01*
X0152246Y0212857D01*
X0152178Y0212847D01*
X0152109Y0212842D01*
X0152040Y0212840D01*
X0151971Y0212842D01*
X0151902Y0212849D01*
X0151834Y0212859D01*
X0151767Y0212873D01*
X0151700Y0212891D01*
X0151635Y0212913D01*
X0151570Y0212938D01*
X0151508Y0212967D01*
X0151447Y0213000D01*
X0151388Y0213036D01*
X0151332Y0213075D01*
X0151277Y0213118D01*
X0151226Y0213163D01*
X0151176Y0213212D01*
X0151130Y0213263D01*
X0151087Y0213317D01*
X0151047Y0213373D01*
X0151010Y0213431D01*
X0150977Y0213492D01*
X0150947Y0213554D01*
X0150921Y0213617D01*
X0150898Y0213683D01*
X0150879Y0213749D01*
X0150865Y0213816D01*
X0150853Y0213884D01*
X0150846Y0213953D01*
X0150893Y0213956D01*
X0150900Y0213888D01*
X0150911Y0213822D01*
X0150926Y0213756D01*
X0150945Y0213691D01*
X0150967Y0213627D01*
X0150993Y0213565D01*
X0151023Y0213505D01*
X0151056Y0213446D01*
X0151093Y0213389D01*
X0151133Y0213334D01*
X0151176Y0213282D01*
X0151221Y0213233D01*
X0151270Y0213186D01*
X0151322Y0213142D01*
X0151375Y0213101D01*
X0151431Y0213064D01*
X0151490Y0213030D01*
X0151550Y0212999D01*
X0151612Y0212972D01*
X0151675Y0212948D01*
X0151739Y0212928D01*
X0151805Y0212912D01*
X0151871Y0212900D01*
X0151938Y0212892D01*
X0152006Y0212888D01*
X0152073Y0212887D01*
X0152141Y0212891D01*
X0152208Y0212898D01*
X0152274Y0212910D01*
X0152340Y0212925D01*
X0152405Y0212944D01*
X0152468Y0212967D01*
X0152531Y0212993D01*
X0152591Y0213024D01*
X0152650Y0213057D01*
X0152706Y0213094D01*
X0152760Y0213134D01*
X0152812Y0213177D01*
X0152861Y0213224D01*
X0152908Y0213273D01*
X0152951Y0213324D01*
X0152992Y0213378D01*
X0153029Y0213435D01*
X0153063Y0213493D01*
X0153093Y0213553D01*
X0153120Y0213615D01*
X0153143Y0213679D01*
X0153163Y0213744D01*
X0153178Y0213809D01*
X0153190Y0213876D01*
X0153198Y0213943D01*
X0153202Y0214010D01*
X0153155Y0214011D01*
X0153151Y0213945D01*
X0153143Y0213879D01*
X0153131Y0213814D01*
X0153116Y0213750D01*
X0153096Y0213687D01*
X0153073Y0213625D01*
X0153047Y0213565D01*
X0153016Y0213506D01*
X0152983Y0213449D01*
X0152946Y0213395D01*
X0152905Y0213342D01*
X0152862Y0213292D01*
X0152816Y0213245D01*
X0152767Y0213201D01*
X0152716Y0213159D01*
X0152662Y0213121D01*
X0152606Y0213086D01*
X0152548Y0213054D01*
X0152489Y0213026D01*
X0152427Y0213002D01*
X0152365Y0212981D01*
X0152301Y0212964D01*
X0152236Y0212950D01*
X0152171Y0212941D01*
X0152105Y0212936D01*
X0152039Y0212934D01*
X0151973Y0212936D01*
X0151908Y0212943D01*
X0151842Y0212953D01*
X0151778Y0212967D01*
X0151714Y0212985D01*
X0151652Y0213006D01*
X0151591Y0213032D01*
X0151532Y0213061D01*
X0151474Y0213093D01*
X0151419Y0213129D01*
X0151365Y0213167D01*
X0151314Y0213210D01*
X0151266Y0213255D01*
X0151221Y0213302D01*
X0151178Y0213353D01*
X0151138Y0213406D01*
X0151102Y0213461D01*
X0151069Y0213518D01*
X0151040Y0213577D01*
X0151014Y0213638D01*
X0150991Y0213700D01*
X0150973Y0213763D01*
X0150958Y0213827D01*
X0150947Y0213893D01*
X0150940Y0213958D01*
X0150987Y0213961D01*
X0150994Y0213897D01*
X0151005Y0213833D01*
X0151020Y0213770D01*
X0151038Y0213709D01*
X0151060Y0213648D01*
X0151086Y0213589D01*
X0151115Y0213532D01*
X0151148Y0213476D01*
X0151184Y0213423D01*
X0151223Y0213372D01*
X0151265Y0213323D01*
X0151310Y0213277D01*
X0151358Y0213234D01*
X0151409Y0213194D01*
X0151461Y0213156D01*
X0151516Y0213123D01*
X0151573Y0213092D01*
X0151631Y0213065D01*
X0151691Y0213042D01*
X0151753Y0213022D01*
X0151815Y0213006D01*
X0151879Y0212994D01*
X0151942Y0212986D01*
X0152007Y0212982D01*
X0152071Y0212981D01*
X0152135Y0212985D01*
X0152199Y0212992D01*
X0152263Y0213003D01*
X0152326Y0213018D01*
X0152387Y0213037D01*
X0152447Y0213060D01*
X0152506Y0213086D01*
X0152564Y0213116D01*
X0152619Y0213149D01*
X0152672Y0213185D01*
X0152723Y0213225D01*
X0152771Y0213267D01*
X0152817Y0213313D01*
X0152860Y0213361D01*
X0152900Y0213411D01*
X0152936Y0213464D01*
X0152970Y0213519D01*
X0153000Y0213576D01*
X0153026Y0213635D01*
X0153049Y0213695D01*
X0153069Y0213757D01*
X0153084Y0213819D01*
X0153096Y0213883D01*
X0153104Y0213947D01*
X0153108Y0214011D01*
X0153061Y0214011D01*
X0153057Y0213948D01*
X0153049Y0213886D01*
X0153037Y0213824D01*
X0153022Y0213764D01*
X0153003Y0213704D01*
X0152980Y0213645D01*
X0152953Y0213588D01*
X0152924Y0213533D01*
X0152890Y0213480D01*
X0152854Y0213429D01*
X0152814Y0213380D01*
X0152772Y0213334D01*
X0152727Y0213290D01*
X0152679Y0213249D01*
X0152629Y0213212D01*
X0152576Y0213177D01*
X0152522Y0213146D01*
X0152465Y0213119D01*
X0152407Y0213094D01*
X0152348Y0213074D01*
X0152287Y0213057D01*
X0152226Y0213044D01*
X0152164Y0213035D01*
X0152101Y0213030D01*
X0152039Y0213028D01*
X0151976Y0213030D01*
X0151913Y0213037D01*
X0151851Y0213047D01*
X0151790Y0213061D01*
X0151730Y0213078D01*
X0151671Y0213100D01*
X0151613Y0213125D01*
X0151557Y0213153D01*
X0151503Y0213185D01*
X0151451Y0213220D01*
X0151402Y0213259D01*
X0151354Y0213300D01*
X0151310Y0213344D01*
X0151268Y0213391D01*
X0151229Y0213441D01*
X0151193Y0213492D01*
X0151161Y0213546D01*
X0151132Y0213602D01*
X0151106Y0213659D01*
X0151085Y0213718D01*
X0151066Y0213778D01*
X0151052Y0213839D01*
X0151041Y0213901D01*
X0151034Y0213963D01*
X0151081Y0213966D01*
X0151088Y0213905D01*
X0151098Y0213845D01*
X0151113Y0213786D01*
X0151131Y0213727D01*
X0151153Y0213670D01*
X0151178Y0213615D01*
X0151207Y0213561D01*
X0151239Y0213509D01*
X0151274Y0213459D01*
X0151312Y0213411D01*
X0151354Y0213366D01*
X0151398Y0213324D01*
X0151444Y0213285D01*
X0151494Y0213248D01*
X0151545Y0213215D01*
X0151598Y0213185D01*
X0151653Y0213158D01*
X0151710Y0213135D01*
X0151767Y0213116D01*
X0151826Y0213100D01*
X0151886Y0213088D01*
X0151947Y0213080D01*
X0152008Y0213076D01*
X0152069Y0213075D01*
X0152130Y0213079D01*
X0152191Y0213086D01*
X0152251Y0213097D01*
X0152310Y0213112D01*
X0152368Y0213130D01*
X0152425Y0213152D01*
X0152480Y0213178D01*
X0152534Y0213207D01*
X0152586Y0213240D01*
X0152635Y0213275D01*
X0152683Y0213314D01*
X0152727Y0213355D01*
X0152769Y0213400D01*
X0152809Y0213447D01*
X0152845Y0213496D01*
X0152878Y0213547D01*
X0152907Y0213601D01*
X0152933Y0213656D01*
X0152956Y0213713D01*
X0152975Y0213771D01*
X0152990Y0213830D01*
X0153002Y0213890D01*
X0153010Y0213951D01*
X0153013Y0214011D01*
D18*
X0143272Y0213130D02*
X0143272Y0211261D01*
X0143272Y0212196D02*
X0140469Y0212196D01*
X0141403Y0211261D01*
M02*
