%
M48
M72
T01C0.01378
T02C0.02953
T03C0.08268
T04C0.11024
%
T01
X114308Y54783
X107083Y77283
X117857Y54783
X161083Y98283
X116083Y66283
X118483Y64283
X116083Y62283
X113683Y64283
X130083Y70083
X127083Y53483
X127083Y57083
X125483Y65283
X107083Y56883
X95083Y73283
X95083Y68283
X102483Y60683
X107083Y49283
X107083Y53083
X107083Y45283
X107083Y60683
X125483Y70083
X167283Y62083
X130083Y65283
X122683Y86483
X118683Y86483
X127083Y86483
X132083Y141283
X139083Y234283
X172083Y234283
X167883Y105883
X140083Y167283
X20083Y223283
X14083Y219283
X11083Y48283
X167283Y54483
X99083Y65283
X167883Y90883
X94083Y154883
X140283Y154883
X101083Y201283
X143083Y209283
X94083Y147283
X137683Y145483
X97083Y162283
X145483Y155483
X113683Y74283
X90883Y82283
X63965Y80283
X79683Y82883
T02
X136972Y133957
X149965Y79626
T03
X12500Y230020
T04
X146618Y181004
M30
