G75*
%MOIN*%
%OFA0B0*%
%FSLAX25Y25*%
%IPPOS*%
%LPD*%
%AMOC8*
5,1,8,0,0,1.08239X$1,22.5*
%
%ADD10C,0.00000*%
%ADD11R,0.05512X0.11024*%
%ADD12R,0.11024X0.05512*%
%ADD13R,0.05512X0.05512*%
%ADD14R,0.07874X0.01969*%
%ADD15R,0.07098X0.06299*%
%ADD16R,0.05906X0.05118*%
%ADD17C,0.21000*%
%ADD18C,0.12268*%
%ADD19R,0.01600X0.03000*%
%ADD20R,0.07500X0.07500*%
%ADD21R,0.05118X0.06299*%
%ADD22R,0.04134X0.04252*%
%ADD23R,0.06299X0.05118*%
%ADD24R,0.04331X0.03937*%
%ADD25R,0.04961X0.01417*%
%ADD26C,0.03937*%
%ADD27R,0.03937X0.04331*%
%ADD28R,0.04724X0.01575*%
%ADD29C,0.01200*%
%ADD30C,0.01600*%
%ADD31C,0.03000*%
%ADD32C,0.04500*%
%ADD33C,0.02578*%
%ADD34C,0.02000*%
%ADD35C,0.03200*%
%ADD36C,0.01500*%
%ADD37R,0.02578X0.02578*%
D10*
X0006083Y0042283D02*
X0006083Y0214207D01*
X0006080Y0214441D01*
X0006072Y0214675D01*
X0006058Y0214909D01*
X0006038Y0215143D01*
X0006013Y0215376D01*
X0005983Y0215608D01*
X0005947Y0215839D01*
X0005905Y0216070D01*
X0005858Y0216299D01*
X0005806Y0216528D01*
X0005748Y0216755D01*
X0005684Y0216980D01*
X0005616Y0217204D01*
X0005542Y0217426D01*
X0005462Y0217647D01*
X0005378Y0217865D01*
X0005288Y0218082D01*
X0005194Y0218296D01*
X0005094Y0218508D01*
X0004989Y0218717D01*
X0004879Y0218924D01*
X0004764Y0219129D01*
X0004645Y0219330D01*
X0004520Y0219529D01*
X0004391Y0219724D01*
X0004258Y0219917D01*
X0004120Y0220106D01*
X0003977Y0220292D01*
X0003830Y0220474D01*
X0003679Y0220653D01*
X0003523Y0220828D01*
X0003364Y0220999D01*
X0003200Y0221167D01*
X0001083Y0226278D02*
X0001083Y0239134D01*
X0178248Y0239134D01*
X0178248Y0042283D01*
X0006083Y0042283D01*
X0135496Y0133957D02*
X0135498Y0134034D01*
X0135504Y0134110D01*
X0135514Y0134186D01*
X0135528Y0134261D01*
X0135545Y0134336D01*
X0135567Y0134409D01*
X0135592Y0134482D01*
X0135622Y0134553D01*
X0135654Y0134622D01*
X0135691Y0134689D01*
X0135730Y0134755D01*
X0135773Y0134818D01*
X0135820Y0134879D01*
X0135869Y0134938D01*
X0135922Y0134994D01*
X0135977Y0135047D01*
X0136035Y0135097D01*
X0136095Y0135144D01*
X0136158Y0135188D01*
X0136223Y0135229D01*
X0136290Y0135266D01*
X0136359Y0135300D01*
X0136429Y0135330D01*
X0136501Y0135356D01*
X0136575Y0135378D01*
X0136649Y0135397D01*
X0136724Y0135412D01*
X0136800Y0135423D01*
X0136876Y0135430D01*
X0136953Y0135433D01*
X0137029Y0135432D01*
X0137106Y0135427D01*
X0137182Y0135418D01*
X0137258Y0135405D01*
X0137332Y0135388D01*
X0137406Y0135368D01*
X0137479Y0135343D01*
X0137550Y0135315D01*
X0137620Y0135283D01*
X0137688Y0135248D01*
X0137754Y0135209D01*
X0137818Y0135167D01*
X0137879Y0135121D01*
X0137939Y0135072D01*
X0137995Y0135021D01*
X0138049Y0134966D01*
X0138100Y0134909D01*
X0138148Y0134849D01*
X0138193Y0134787D01*
X0138234Y0134722D01*
X0138272Y0134656D01*
X0138307Y0134588D01*
X0138337Y0134517D01*
X0138365Y0134446D01*
X0138388Y0134373D01*
X0138408Y0134299D01*
X0138424Y0134224D01*
X0138436Y0134148D01*
X0138444Y0134072D01*
X0138448Y0133995D01*
X0138448Y0133919D01*
X0138444Y0133842D01*
X0138436Y0133766D01*
X0138424Y0133690D01*
X0138408Y0133615D01*
X0138388Y0133541D01*
X0138365Y0133468D01*
X0138337Y0133397D01*
X0138307Y0133326D01*
X0138272Y0133258D01*
X0138234Y0133192D01*
X0138193Y0133127D01*
X0138148Y0133065D01*
X0138100Y0133005D01*
X0138049Y0132948D01*
X0137995Y0132893D01*
X0137939Y0132842D01*
X0137879Y0132793D01*
X0137818Y0132747D01*
X0137754Y0132705D01*
X0137688Y0132666D01*
X0137620Y0132631D01*
X0137550Y0132599D01*
X0137479Y0132571D01*
X0137406Y0132546D01*
X0137332Y0132526D01*
X0137258Y0132509D01*
X0137182Y0132496D01*
X0137106Y0132487D01*
X0137029Y0132482D01*
X0136953Y0132481D01*
X0136876Y0132484D01*
X0136800Y0132491D01*
X0136724Y0132502D01*
X0136649Y0132517D01*
X0136575Y0132536D01*
X0136501Y0132558D01*
X0136429Y0132584D01*
X0136359Y0132614D01*
X0136290Y0132648D01*
X0136223Y0132685D01*
X0136158Y0132726D01*
X0136095Y0132770D01*
X0136035Y0132817D01*
X0135977Y0132867D01*
X0135922Y0132920D01*
X0135869Y0132976D01*
X0135820Y0133035D01*
X0135773Y0133096D01*
X0135730Y0133159D01*
X0135691Y0133225D01*
X0135654Y0133292D01*
X0135622Y0133361D01*
X0135592Y0133432D01*
X0135567Y0133505D01*
X0135545Y0133578D01*
X0135528Y0133653D01*
X0135514Y0133728D01*
X0135504Y0133804D01*
X0135498Y0133880D01*
X0135496Y0133957D01*
X0148489Y0079626D02*
X0148491Y0079703D01*
X0148497Y0079779D01*
X0148507Y0079855D01*
X0148521Y0079930D01*
X0148538Y0080005D01*
X0148560Y0080078D01*
X0148585Y0080151D01*
X0148615Y0080222D01*
X0148647Y0080291D01*
X0148684Y0080358D01*
X0148723Y0080424D01*
X0148766Y0080487D01*
X0148813Y0080548D01*
X0148862Y0080607D01*
X0148915Y0080663D01*
X0148970Y0080716D01*
X0149028Y0080766D01*
X0149088Y0080813D01*
X0149151Y0080857D01*
X0149216Y0080898D01*
X0149283Y0080935D01*
X0149352Y0080969D01*
X0149422Y0080999D01*
X0149494Y0081025D01*
X0149568Y0081047D01*
X0149642Y0081066D01*
X0149717Y0081081D01*
X0149793Y0081092D01*
X0149869Y0081099D01*
X0149946Y0081102D01*
X0150022Y0081101D01*
X0150099Y0081096D01*
X0150175Y0081087D01*
X0150251Y0081074D01*
X0150325Y0081057D01*
X0150399Y0081037D01*
X0150472Y0081012D01*
X0150543Y0080984D01*
X0150613Y0080952D01*
X0150681Y0080917D01*
X0150747Y0080878D01*
X0150811Y0080836D01*
X0150872Y0080790D01*
X0150932Y0080741D01*
X0150988Y0080690D01*
X0151042Y0080635D01*
X0151093Y0080578D01*
X0151141Y0080518D01*
X0151186Y0080456D01*
X0151227Y0080391D01*
X0151265Y0080325D01*
X0151300Y0080257D01*
X0151330Y0080186D01*
X0151358Y0080115D01*
X0151381Y0080042D01*
X0151401Y0079968D01*
X0151417Y0079893D01*
X0151429Y0079817D01*
X0151437Y0079741D01*
X0151441Y0079664D01*
X0151441Y0079588D01*
X0151437Y0079511D01*
X0151429Y0079435D01*
X0151417Y0079359D01*
X0151401Y0079284D01*
X0151381Y0079210D01*
X0151358Y0079137D01*
X0151330Y0079066D01*
X0151300Y0078995D01*
X0151265Y0078927D01*
X0151227Y0078861D01*
X0151186Y0078796D01*
X0151141Y0078734D01*
X0151093Y0078674D01*
X0151042Y0078617D01*
X0150988Y0078562D01*
X0150932Y0078511D01*
X0150872Y0078462D01*
X0150811Y0078416D01*
X0150747Y0078374D01*
X0150681Y0078335D01*
X0150613Y0078300D01*
X0150543Y0078268D01*
X0150472Y0078240D01*
X0150399Y0078215D01*
X0150325Y0078195D01*
X0150251Y0078178D01*
X0150175Y0078165D01*
X0150099Y0078156D01*
X0150022Y0078151D01*
X0149946Y0078150D01*
X0149869Y0078153D01*
X0149793Y0078160D01*
X0149717Y0078171D01*
X0149642Y0078186D01*
X0149568Y0078205D01*
X0149494Y0078227D01*
X0149422Y0078253D01*
X0149352Y0078283D01*
X0149283Y0078317D01*
X0149216Y0078354D01*
X0149151Y0078395D01*
X0149088Y0078439D01*
X0149028Y0078486D01*
X0148970Y0078536D01*
X0148915Y0078589D01*
X0148862Y0078645D01*
X0148813Y0078704D01*
X0148766Y0078765D01*
X0148723Y0078828D01*
X0148684Y0078894D01*
X0148647Y0078961D01*
X0148615Y0079030D01*
X0148585Y0079101D01*
X0148560Y0079174D01*
X0148538Y0079247D01*
X0148521Y0079322D01*
X0148507Y0079397D01*
X0148497Y0079473D01*
X0148491Y0079549D01*
X0148489Y0079626D01*
X0003199Y0221166D02*
X0003075Y0221293D01*
X0002955Y0221423D01*
X0002837Y0221556D01*
X0002723Y0221692D01*
X0002612Y0221830D01*
X0002505Y0221972D01*
X0002401Y0222115D01*
X0002300Y0222262D01*
X0002204Y0222411D01*
X0002110Y0222562D01*
X0002021Y0222715D01*
X0001936Y0222870D01*
X0001854Y0223028D01*
X0001776Y0223187D01*
X0001702Y0223349D01*
X0001632Y0223512D01*
X0001566Y0223676D01*
X0001505Y0223843D01*
X0001447Y0224010D01*
X0001393Y0224180D01*
X0001344Y0224350D01*
X0001299Y0224521D01*
X0001258Y0224694D01*
X0001221Y0224868D01*
X0001188Y0225042D01*
X0001160Y0225217D01*
X0001136Y0225393D01*
X0001117Y0225569D01*
X0001102Y0225746D01*
X0001091Y0225923D01*
X0001084Y0226101D01*
X0001082Y0226278D01*
D11*
X0040343Y0090512D03*
X0048217Y0090512D03*
X0056091Y0090512D03*
X0063965Y0090512D03*
X0071839Y0090512D03*
X0079713Y0090512D03*
X0087587Y0090512D03*
X0095461Y0090512D03*
X0103335Y0090512D03*
D12*
X0111209Y0100354D03*
X0111209Y0108228D03*
X0111209Y0116102D03*
X0111209Y0123976D03*
X0111209Y0131850D03*
X0111209Y0139724D03*
X0111209Y0147598D03*
X0111209Y0155472D03*
X0111209Y0163346D03*
X0111209Y0171220D03*
X0111209Y0179095D03*
X0111209Y0186969D03*
X0111209Y0194843D03*
X0032469Y0194843D03*
X0032469Y0186969D03*
X0032469Y0179095D03*
X0032469Y0171220D03*
X0032469Y0163346D03*
X0032469Y0155472D03*
X0032469Y0147598D03*
X0032469Y0139724D03*
X0032469Y0131850D03*
X0032469Y0123976D03*
X0032469Y0116102D03*
X0032469Y0108228D03*
X0032469Y0100354D03*
D13*
X0040343Y0208622D03*
X0048217Y0208622D03*
X0056091Y0208622D03*
X0063965Y0208622D03*
X0071839Y0208622D03*
X0079713Y0208622D03*
X0087587Y0208622D03*
X0095461Y0208622D03*
X0103335Y0208622D03*
D14*
X0134020Y0130413D03*
X0134020Y0127264D03*
X0134020Y0124114D03*
X0134020Y0120965D03*
X0134020Y0117815D03*
X0134020Y0114665D03*
X0134020Y0111516D03*
X0134020Y0108366D03*
X0134020Y0105217D03*
X0134020Y0102067D03*
X0134020Y0098917D03*
X0134020Y0095768D03*
X0134020Y0092618D03*
X0134020Y0089469D03*
X0134020Y0086319D03*
X0134020Y0083169D03*
X0152917Y0083169D03*
X0152917Y0086319D03*
X0152917Y0089469D03*
X0152917Y0092618D03*
X0152917Y0095768D03*
X0152917Y0098917D03*
X0152917Y0102067D03*
X0152917Y0105217D03*
X0152917Y0108366D03*
X0152917Y0111516D03*
X0152917Y0114665D03*
X0152917Y0117815D03*
X0152917Y0120965D03*
X0152917Y0124114D03*
X0152917Y0127264D03*
X0152917Y0130413D03*
D15*
X0163083Y0079882D03*
X0163083Y0068685D03*
D16*
X0125483Y0182743D03*
X0125483Y0190224D03*
X0125483Y0198343D03*
X0125483Y0205824D03*
D17*
X0146618Y0181004D03*
D18*
X0012500Y0230020D03*
D19*
X0111358Y0070887D03*
X0114508Y0070887D03*
X0117657Y0070887D03*
X0120807Y0070887D03*
X0120807Y0057680D03*
X0117657Y0057680D03*
X0114508Y0057680D03*
X0111358Y0057680D03*
D20*
X0116083Y0064283D03*
D21*
X0112546Y0049583D03*
X0120420Y0049583D03*
D22*
X0123438Y0075683D03*
X0130328Y0075683D03*
D23*
X0104483Y0073020D03*
X0104483Y0065146D03*
D24*
X0112283Y0078737D03*
X0117883Y0075737D03*
X0117883Y0082430D03*
X0112283Y0085430D03*
D25*
X0131665Y0144606D03*
X0131665Y0147165D03*
X0131665Y0149724D03*
X0131665Y0152283D03*
X0131665Y0154843D03*
X0131665Y0157402D03*
X0131665Y0159961D03*
X0154500Y0159961D03*
X0154500Y0157402D03*
X0154500Y0154843D03*
X0154500Y0152283D03*
X0154500Y0149724D03*
X0154500Y0147165D03*
X0154500Y0144606D03*
D26*
X0174311Y0098283D03*
X0174311Y0076883D03*
X0174311Y0058683D03*
X0129083Y0232283D03*
X0011713Y0145783D03*
X0011713Y0133972D03*
X0011713Y0122161D03*
X0011713Y0110350D03*
D27*
X0094736Y0079283D03*
X0101429Y0079283D03*
D28*
X0148539Y0206724D03*
X0148539Y0209283D03*
X0148539Y0211843D03*
X0155626Y0211843D03*
X0155626Y0206724D03*
D29*
X0158642Y0206724D01*
X0162083Y0202283D01*
X0162083Y0149283D01*
X0160083Y0147165D01*
X0154500Y0147165D01*
X0154500Y0144606D02*
X0150083Y0144606D01*
X0147283Y0140483D01*
X0147283Y0126883D01*
X0138083Y0117483D01*
X0134283Y0117883D01*
X0134020Y0117815D01*
X0134433Y0120883D02*
X0137883Y0120683D01*
X0145083Y0127883D01*
X0145083Y0146283D01*
X0149083Y0150283D01*
X0149083Y0159961D01*
X0136206Y0159961D01*
X0131665Y0159961D01*
X0131846Y0157483D02*
X0142683Y0157483D01*
X0144483Y0155683D01*
X0145483Y0155483D01*
X0150820Y0160769D02*
X0149828Y0161761D01*
X0134751Y0161761D01*
X0134643Y0161869D01*
X0128688Y0161869D01*
X0127985Y0161166D01*
X0127985Y0158755D01*
X0128059Y0158681D01*
X0127985Y0158607D01*
X0127985Y0156196D01*
X0128059Y0156122D01*
X0127985Y0156048D01*
X0127985Y0153637D01*
X0128059Y0153563D01*
X0127985Y0153489D01*
X0127985Y0151078D01*
X0128059Y0151004D01*
X0127985Y0150930D01*
X0127985Y0148519D01*
X0128059Y0148445D01*
X0127985Y0148371D01*
X0127985Y0145960D01*
X0128688Y0145257D01*
X0131515Y0145257D01*
X0131780Y0145136D01*
X0132101Y0145257D01*
X0134643Y0145257D01*
X0134669Y0145283D01*
X0135194Y0145283D01*
X0135194Y0144988D01*
X0135573Y0144074D01*
X0136273Y0143373D01*
X0137188Y0142995D01*
X0138178Y0142995D01*
X0138883Y0143287D01*
X0138883Y0136397D01*
X0138715Y0136565D01*
X0137584Y0137033D01*
X0136361Y0137033D01*
X0135230Y0136565D01*
X0134364Y0135699D01*
X0133896Y0134569D01*
X0126863Y0134569D01*
X0126863Y0135767D02*
X0134432Y0135767D01*
X0133896Y0134569D02*
X0133896Y0133345D01*
X0134206Y0132598D01*
X0129586Y0132598D01*
X0128883Y0131895D01*
X0128883Y0128932D01*
X0128976Y0128839D01*
X0128883Y0128745D01*
X0128883Y0125782D01*
X0128976Y0125689D01*
X0128883Y0125595D01*
X0128883Y0122633D01*
X0128976Y0122539D01*
X0128883Y0122446D01*
X0128883Y0119483D01*
X0128976Y0119390D01*
X0128883Y0119296D01*
X0128883Y0116334D01*
X0128976Y0116240D01*
X0128883Y0116147D01*
X0128883Y0113184D01*
X0128976Y0113091D01*
X0128883Y0112997D01*
X0128883Y0110034D01*
X0128976Y0109941D01*
X0128883Y0109847D01*
X0128883Y0106885D01*
X0128976Y0106791D01*
X0128883Y0106698D01*
X0128883Y0103735D01*
X0128976Y0103642D01*
X0128883Y0103548D01*
X0128883Y0100586D01*
X0128976Y0100492D01*
X0128883Y0100399D01*
X0128883Y0097436D01*
X0128976Y0097343D01*
X0128883Y0097249D01*
X0128883Y0094286D01*
X0129586Y0093583D01*
X0138454Y0093583D01*
X0139157Y0094286D01*
X0139157Y0097249D01*
X0139063Y0097343D01*
X0139157Y0097436D01*
X0139157Y0100399D01*
X0139063Y0100492D01*
X0139157Y0100586D01*
X0139157Y0103548D01*
X0139063Y0103642D01*
X0139157Y0103735D01*
X0139157Y0106698D01*
X0139063Y0106791D01*
X0139157Y0106885D01*
X0139157Y0109847D01*
X0139063Y0109941D01*
X0139157Y0110034D01*
X0139157Y0112997D01*
X0139063Y0113091D01*
X0139157Y0113184D01*
X0139157Y0116007D01*
X0139296Y0116150D01*
X0139795Y0116554D01*
X0139807Y0116672D01*
X0147780Y0124819D01*
X0147780Y0122633D01*
X0147874Y0122539D01*
X0147780Y0122446D01*
X0147780Y0119483D01*
X0147874Y0119390D01*
X0147780Y0119296D01*
X0147780Y0116334D01*
X0147874Y0116240D01*
X0147780Y0116147D01*
X0147780Y0113184D01*
X0147874Y0113091D01*
X0147780Y0112997D01*
X0147780Y0110034D01*
X0147874Y0109941D01*
X0147780Y0109847D01*
X0147780Y0106885D01*
X0147874Y0106791D01*
X0147780Y0106698D01*
X0147780Y0103735D01*
X0147874Y0103642D01*
X0147780Y0103548D01*
X0147780Y0100586D01*
X0147874Y0100492D01*
X0147780Y0100399D01*
X0147780Y0097436D01*
X0147874Y0097343D01*
X0147780Y0097249D01*
X0147780Y0094286D01*
X0147874Y0094193D01*
X0147780Y0094099D01*
X0147780Y0091137D01*
X0147874Y0091043D01*
X0147780Y0090950D01*
X0147780Y0087987D01*
X0147874Y0087894D01*
X0147780Y0087800D01*
X0147780Y0084838D01*
X0147874Y0084744D01*
X0147780Y0084651D01*
X0147780Y0081792D01*
X0147357Y0081369D01*
X0146888Y0080238D01*
X0146888Y0079014D01*
X0147357Y0077883D01*
X0147956Y0077283D01*
X0126705Y0077283D01*
X0126705Y0078307D01*
X0126002Y0079009D01*
X0121083Y0079009D01*
X0121083Y0085483D01*
X0125051Y0085483D01*
X0125796Y0085483D01*
X0125797Y0085483D01*
X0126337Y0086024D01*
X0126851Y0086537D01*
X0126851Y0086538D01*
X0126851Y0087300D01*
X0126869Y0162483D01*
X0152283Y0162483D01*
X0152283Y0161869D01*
X0151523Y0161869D01*
X0150820Y0161166D01*
X0150820Y0160769D01*
X0150820Y0160936D02*
X0150653Y0160936D01*
X0152283Y0162135D02*
X0126869Y0162135D01*
X0126869Y0160936D02*
X0127985Y0160936D01*
X0127985Y0159738D02*
X0126869Y0159738D01*
X0126868Y0158539D02*
X0127985Y0158539D01*
X0127985Y0157341D02*
X0126868Y0157341D01*
X0126868Y0156142D02*
X0128039Y0156142D01*
X0127985Y0154944D02*
X0126868Y0154944D01*
X0126867Y0153745D02*
X0127985Y0153745D01*
X0127985Y0152547D02*
X0126867Y0152547D01*
X0126867Y0151348D02*
X0127985Y0151348D01*
X0127985Y0150150D02*
X0126866Y0150150D01*
X0126866Y0148951D02*
X0127985Y0148951D01*
X0127985Y0147752D02*
X0126866Y0147752D01*
X0126866Y0146554D02*
X0127985Y0146554D01*
X0128589Y0145355D02*
X0126865Y0145355D01*
X0126865Y0144157D02*
X0135538Y0144157D01*
X0137683Y0145483D02*
X0136083Y0147083D01*
X0131846Y0147083D01*
X0131665Y0147165D01*
X0131665Y0144606D02*
X0132083Y0144287D01*
X0132083Y0141283D01*
X0136198Y0136966D02*
X0126863Y0136966D01*
X0126863Y0138164D02*
X0138883Y0138164D01*
X0138883Y0136966D02*
X0137747Y0136966D01*
X0138883Y0139363D02*
X0126864Y0139363D01*
X0126864Y0140561D02*
X0138883Y0140561D01*
X0138883Y0141760D02*
X0126864Y0141760D01*
X0126865Y0142958D02*
X0138883Y0142958D01*
X0140683Y0147083D02*
X0136842Y0149724D01*
X0131665Y0149724D01*
X0131665Y0152283D02*
X0138483Y0152283D01*
X0142883Y0148283D01*
X0142883Y0129083D01*
X0137883Y0123883D01*
X0134189Y0124283D01*
X0134283Y0124118D02*
X0134020Y0124114D01*
X0134498Y0124118D01*
X0134333Y0127283D02*
X0138083Y0127283D01*
X0140683Y0130283D01*
X0140683Y0147083D01*
X0140283Y0154883D02*
X0131805Y0154883D01*
X0131665Y0154843D01*
X0131665Y0157402D02*
X0131846Y0157483D01*
X0125068Y0157341D02*
X0118483Y0157341D01*
X0118483Y0158539D02*
X0125068Y0158539D01*
X0125069Y0159738D02*
X0118483Y0159738D01*
X0118483Y0160936D02*
X0125069Y0160936D01*
X0125069Y0162135D02*
X0118483Y0162135D01*
X0118483Y0163333D02*
X0125070Y0163333D01*
X0125070Y0164532D02*
X0118483Y0164532D01*
X0118483Y0165730D02*
X0125070Y0165730D01*
X0125070Y0166929D02*
X0118483Y0166929D01*
X0118483Y0168127D02*
X0125071Y0168127D01*
X0125071Y0169326D02*
X0118483Y0169326D01*
X0118483Y0170524D02*
X0125071Y0170524D01*
X0125072Y0171723D02*
X0118483Y0171723D01*
X0118483Y0172921D02*
X0125072Y0172921D01*
X0125072Y0174120D02*
X0118483Y0174120D01*
X0118483Y0175318D02*
X0125073Y0175318D01*
X0125073Y0176517D02*
X0118483Y0176517D01*
X0118483Y0177715D02*
X0125073Y0177715D01*
X0125073Y0178914D02*
X0118483Y0178914D01*
X0118483Y0180112D02*
X0121330Y0180112D01*
X0121330Y0179687D02*
X0122033Y0178984D01*
X0125073Y0178984D01*
X0125052Y0091083D01*
X0114537Y0091083D01*
X0113483Y0090029D01*
X0113483Y0087283D01*
X0113083Y0087283D01*
X0113083Y0081906D01*
X0109620Y0081906D01*
X0108917Y0081203D01*
X0108917Y0076271D01*
X0109620Y0075569D01*
X0111521Y0075569D01*
X0111194Y0074779D01*
X0111194Y0073788D01*
X0111573Y0072874D01*
X0112273Y0072173D01*
X0112351Y0072141D01*
X0112508Y0071495D01*
X0112508Y0070083D01*
X0109337Y0070083D01*
X0109137Y0069883D01*
X0099483Y0069883D01*
X0099483Y0083283D01*
X0108083Y0083283D01*
X0108083Y0095283D01*
X0117083Y0095283D01*
X0118483Y0096283D01*
X0118483Y0222283D01*
X0124083Y0237283D01*
X0134083Y0237283D01*
X0134083Y0231283D01*
X0134113Y0230591D01*
X0134008Y0229906D01*
X0133771Y0229255D01*
X0133411Y0228662D01*
X0132943Y0228151D01*
X0132384Y0227741D01*
X0131756Y0227448D01*
X0131083Y0227283D01*
X0130051Y0227283D01*
X0129188Y0227208D01*
X0128352Y0226984D01*
X0127567Y0226618D01*
X0126857Y0226121D01*
X0126245Y0225509D01*
X0125748Y0224799D01*
X0125382Y0224014D01*
X0125158Y0223178D01*
X0125083Y0222315D01*
X0125083Y0217283D01*
X0125081Y0209583D01*
X0122033Y0209583D01*
X0121330Y0208880D01*
X0121330Y0202768D01*
X0122033Y0202065D01*
X0125079Y0202065D01*
X0125075Y0186502D01*
X0122033Y0186502D01*
X0121330Y0185799D01*
X0121330Y0179687D01*
X0121330Y0181311D02*
X0118483Y0181311D01*
X0118483Y0182509D02*
X0121330Y0182509D01*
X0121330Y0183708D02*
X0118483Y0183708D01*
X0118483Y0184906D02*
X0121330Y0184906D01*
X0121635Y0186105D02*
X0118483Y0186105D01*
X0118483Y0187303D02*
X0125075Y0187303D01*
X0125076Y0188502D02*
X0118483Y0188502D01*
X0118483Y0189700D02*
X0125076Y0189700D01*
X0125076Y0190899D02*
X0118483Y0190899D01*
X0118483Y0192097D02*
X0125077Y0192097D01*
X0125077Y0193296D02*
X0118483Y0193296D01*
X0118483Y0194494D02*
X0125077Y0194494D01*
X0125077Y0195693D02*
X0118483Y0195693D01*
X0118483Y0196891D02*
X0125078Y0196891D01*
X0125078Y0198090D02*
X0118483Y0198090D01*
X0118483Y0199288D02*
X0125078Y0199288D01*
X0125079Y0200487D02*
X0118483Y0200487D01*
X0118483Y0201685D02*
X0125079Y0201685D01*
X0126879Y0202102D02*
X0126882Y0216483D01*
X0148439Y0216483D01*
X0151093Y0213830D01*
X0145680Y0213830D01*
X0144977Y0213127D01*
X0144977Y0211083D01*
X0144803Y0211083D01*
X0144493Y0211394D01*
X0143578Y0211772D01*
X0142588Y0211772D01*
X0141673Y0211394D01*
X0140973Y0210693D01*
X0140594Y0209779D01*
X0140594Y0208788D01*
X0140973Y0207874D01*
X0141673Y0207173D01*
X0142588Y0206795D01*
X0143578Y0206795D01*
X0144493Y0207173D01*
X0144803Y0207483D01*
X0145493Y0207483D01*
X0145680Y0207296D01*
X0151399Y0207296D01*
X0152064Y0207961D01*
X0152064Y0205440D01*
X0152767Y0204737D01*
X0157905Y0204737D01*
X0160283Y0201668D01*
X0160283Y0149999D01*
X0159307Y0148965D01*
X0158180Y0148965D01*
X0158180Y0150930D01*
X0157477Y0151633D01*
X0151523Y0151633D01*
X0150883Y0150993D01*
X0150883Y0153574D01*
X0151523Y0152934D01*
X0157477Y0152934D01*
X0158180Y0153637D01*
X0158180Y0156048D01*
X0157477Y0156751D01*
X0151523Y0156751D01*
X0150883Y0156111D01*
X0150883Y0158692D01*
X0151523Y0158052D01*
X0157477Y0158052D01*
X0158180Y0158755D01*
X0158180Y0161166D01*
X0157477Y0161869D01*
X0155883Y0161869D01*
X0155883Y0165029D01*
X0154828Y0166083D01*
X0126870Y0166083D01*
X0126875Y0186465D01*
X0128932Y0186465D01*
X0129635Y0187168D01*
X0129635Y0193280D01*
X0128932Y0193983D01*
X0126877Y0193983D01*
X0126877Y0194584D01*
X0128932Y0194584D01*
X0129635Y0195287D01*
X0129635Y0201399D01*
X0128932Y0202102D01*
X0126879Y0202102D01*
X0126879Y0202884D02*
X0159340Y0202884D01*
X0158412Y0204083D02*
X0126879Y0204083D01*
X0126880Y0205281D02*
X0152223Y0205281D01*
X0152064Y0206480D02*
X0126880Y0206480D01*
X0126880Y0207678D02*
X0141168Y0207678D01*
X0140594Y0208877D02*
X0126881Y0208877D01*
X0126881Y0210075D02*
X0140717Y0210075D01*
X0141553Y0211274D02*
X0126881Y0211274D01*
X0126881Y0212472D02*
X0144977Y0212472D01*
X0144977Y0211274D02*
X0144613Y0211274D01*
X0143083Y0209283D02*
X0148539Y0209283D01*
X0152102Y0208877D02*
X0176648Y0208877D01*
X0176648Y0210075D02*
X0158705Y0210075D01*
X0158485Y0209855D02*
X0159188Y0210558D01*
X0159188Y0213127D01*
X0158485Y0213830D01*
X0156184Y0213830D01*
X0149931Y0220083D01*
X0126883Y0220083D01*
X0126883Y0222236D01*
X0126938Y0222864D01*
X0127080Y0223396D01*
X0127313Y0223896D01*
X0127629Y0224347D01*
X0128019Y0224737D01*
X0128470Y0225053D01*
X0128970Y0225286D01*
X0129502Y0225429D01*
X0130130Y0225483D01*
X0130579Y0225483D01*
X0130786Y0225358D01*
X0131300Y0225483D01*
X0131828Y0225483D01*
X0131852Y0225507D01*
X0132356Y0225742D01*
X0132813Y0225854D01*
X0132847Y0225849D01*
X0132875Y0225869D01*
X0132908Y0225877D01*
X0132926Y0225906D01*
X0133306Y0226185D01*
X0133732Y0226384D01*
X0133766Y0226385D01*
X0133790Y0226411D01*
X0133821Y0226425D01*
X0133832Y0226457D01*
X0134150Y0226804D01*
X0134530Y0227083D01*
X0134563Y0227091D01*
X0134581Y0227120D01*
X0134609Y0227141D01*
X0134614Y0227174D01*
X0134858Y0227577D01*
X0135176Y0227924D01*
X0135207Y0227939D01*
X0135219Y0227971D01*
X0135242Y0227996D01*
X0135240Y0228030D01*
X0135401Y0228473D01*
X0135646Y0228875D01*
X0135673Y0228895D01*
X0135679Y0228929D01*
X0135696Y0228959D01*
X0135688Y0228992D01*
X0135760Y0229457D01*
X0135921Y0229900D01*
X0135944Y0229925D01*
X0135942Y0229959D01*
X0135954Y0229991D01*
X0135940Y0230022D01*
X0135919Y0230493D01*
X0136005Y0231054D01*
X0135887Y0231215D01*
X0135883Y0231323D01*
X0135883Y0237283D01*
X0176648Y0237283D01*
X0176648Y0100427D01*
X0176106Y0100970D01*
X0174941Y0101452D01*
X0173681Y0101452D01*
X0172516Y0100970D01*
X0171630Y0100083D01*
X0162883Y0100083D01*
X0162883Y0129675D01*
X0161828Y0130729D01*
X0160344Y0132213D01*
X0157736Y0132213D01*
X0157351Y0132598D01*
X0149083Y0132598D01*
X0149083Y0139930D01*
X0151036Y0142806D01*
X0151414Y0142806D01*
X0151523Y0142698D01*
X0157477Y0142698D01*
X0158180Y0143401D01*
X0158180Y0145365D01*
X0159367Y0145365D01*
X0159389Y0145345D01*
X0160109Y0145365D01*
X0160828Y0145365D01*
X0160850Y0145387D01*
X0160880Y0145387D01*
X0161374Y0145911D01*
X0161883Y0146420D01*
X0161883Y0146450D01*
X0163374Y0148029D01*
X0163883Y0148538D01*
X0163883Y0148568D01*
X0163903Y0148590D01*
X0163883Y0149309D01*
X0163883Y0202170D01*
X0163962Y0202797D01*
X0163883Y0202899D01*
X0163883Y0203029D01*
X0163436Y0203476D01*
X0160442Y0207340D01*
X0160442Y0207470D01*
X0159995Y0207917D01*
X0159608Y0208416D01*
X0159479Y0208433D01*
X0159387Y0208524D01*
X0158755Y0208524D01*
X0158661Y0208536D01*
X0158485Y0208712D01*
X0152767Y0208712D01*
X0152102Y0208047D01*
X0152102Y0210520D01*
X0152767Y0209855D01*
X0158485Y0209855D01*
X0159188Y0211274D02*
X0176648Y0211274D01*
X0176648Y0212472D02*
X0159188Y0212472D01*
X0158645Y0213671D02*
X0176648Y0213671D01*
X0176648Y0214869D02*
X0155145Y0214869D01*
X0153946Y0216068D02*
X0176648Y0216068D01*
X0176648Y0217266D02*
X0152748Y0217266D01*
X0151549Y0218465D02*
X0176648Y0218465D01*
X0176648Y0219663D02*
X0150351Y0219663D01*
X0149185Y0218283D02*
X0155626Y0211843D01*
X0152547Y0210075D02*
X0152102Y0210075D01*
X0152064Y0207678D02*
X0151781Y0207678D01*
X0150054Y0214869D02*
X0126882Y0214869D01*
X0126882Y0213671D02*
X0145521Y0213671D01*
X0148855Y0216068D02*
X0126882Y0216068D01*
X0125082Y0216068D02*
X0118483Y0216068D01*
X0118483Y0217266D02*
X0125083Y0217266D01*
X0125083Y0218465D02*
X0118483Y0218465D01*
X0118483Y0219663D02*
X0125083Y0219663D01*
X0125083Y0220862D02*
X0118483Y0220862D01*
X0118483Y0222060D02*
X0125083Y0222060D01*
X0125180Y0223259D02*
X0118847Y0223259D01*
X0119294Y0224457D02*
X0125589Y0224457D01*
X0126392Y0225656D02*
X0119742Y0225656D01*
X0120189Y0226854D02*
X0128074Y0226854D01*
X0127739Y0224457D02*
X0176648Y0224457D01*
X0176648Y0223259D02*
X0127043Y0223259D01*
X0126883Y0222060D02*
X0176648Y0222060D01*
X0176648Y0220862D02*
X0126883Y0220862D01*
X0125082Y0214869D02*
X0118483Y0214869D01*
X0118483Y0213671D02*
X0125082Y0213671D01*
X0125082Y0212472D02*
X0118483Y0212472D01*
X0118483Y0211274D02*
X0125081Y0211274D01*
X0125081Y0210075D02*
X0118483Y0210075D01*
X0118483Y0208877D02*
X0121330Y0208877D01*
X0121330Y0207678D02*
X0118483Y0207678D01*
X0118483Y0206480D02*
X0121330Y0206480D01*
X0121330Y0205281D02*
X0118483Y0205281D01*
X0118483Y0204083D02*
X0121330Y0204083D01*
X0121330Y0202884D02*
X0118483Y0202884D01*
X0126877Y0194494D02*
X0160283Y0194494D01*
X0160283Y0193296D02*
X0129619Y0193296D01*
X0129635Y0192097D02*
X0160283Y0192097D01*
X0160283Y0190899D02*
X0129635Y0190899D01*
X0129635Y0189700D02*
X0160283Y0189700D01*
X0160283Y0188502D02*
X0129635Y0188502D01*
X0129635Y0187303D02*
X0160283Y0187303D01*
X0160283Y0186105D02*
X0126875Y0186105D01*
X0126875Y0184906D02*
X0160283Y0184906D01*
X0160283Y0183708D02*
X0126875Y0183708D01*
X0126874Y0182509D02*
X0160283Y0182509D01*
X0160283Y0181311D02*
X0126874Y0181311D01*
X0126874Y0180112D02*
X0160283Y0180112D01*
X0160283Y0178914D02*
X0126873Y0178914D01*
X0126873Y0177715D02*
X0160283Y0177715D01*
X0160283Y0176517D02*
X0126873Y0176517D01*
X0126872Y0175318D02*
X0160283Y0175318D01*
X0160283Y0174120D02*
X0126872Y0174120D01*
X0126872Y0172921D02*
X0160283Y0172921D01*
X0160283Y0171723D02*
X0126872Y0171723D01*
X0126871Y0170524D02*
X0160283Y0170524D01*
X0160283Y0169326D02*
X0126871Y0169326D01*
X0126871Y0168127D02*
X0160283Y0168127D01*
X0160283Y0166929D02*
X0126870Y0166929D01*
X0124083Y0164283D02*
X0154083Y0164283D01*
X0154083Y0160280D01*
X0155883Y0162135D02*
X0160283Y0162135D01*
X0160283Y0163333D02*
X0155883Y0163333D01*
X0155883Y0164532D02*
X0160283Y0164532D01*
X0160283Y0165730D02*
X0155182Y0165730D01*
X0158180Y0160936D02*
X0160283Y0160936D01*
X0160283Y0159738D02*
X0158180Y0159738D01*
X0157964Y0158539D02*
X0160283Y0158539D01*
X0160283Y0157341D02*
X0150883Y0157341D01*
X0150883Y0158539D02*
X0151036Y0158539D01*
X0150914Y0156142D02*
X0150883Y0156142D01*
X0150883Y0152547D02*
X0160283Y0152547D01*
X0160283Y0153745D02*
X0158180Y0153745D01*
X0158180Y0154944D02*
X0160283Y0154944D01*
X0160283Y0156142D02*
X0158086Y0156142D01*
X0157762Y0151348D02*
X0160283Y0151348D01*
X0160283Y0150150D02*
X0158180Y0150150D01*
X0158180Y0145355D02*
X0159378Y0145355D01*
X0159763Y0145355D02*
X0176648Y0145355D01*
X0176648Y0144157D02*
X0158180Y0144157D01*
X0157738Y0142958D02*
X0176648Y0142958D01*
X0176648Y0141760D02*
X0150325Y0141760D01*
X0149511Y0140561D02*
X0176648Y0140561D01*
X0176648Y0139363D02*
X0149083Y0139363D01*
X0149083Y0138164D02*
X0176648Y0138164D01*
X0176648Y0136966D02*
X0149083Y0136966D01*
X0149083Y0135767D02*
X0176648Y0135767D01*
X0176648Y0134569D02*
X0149083Y0134569D01*
X0149083Y0133370D02*
X0176648Y0133370D01*
X0176648Y0132172D02*
X0160386Y0132172D01*
X0161584Y0130973D02*
X0176648Y0130973D01*
X0176648Y0129775D02*
X0162783Y0129775D01*
X0162883Y0128576D02*
X0176648Y0128576D01*
X0176648Y0127378D02*
X0162883Y0127378D01*
X0162883Y0126179D02*
X0176648Y0126179D01*
X0176648Y0124981D02*
X0162883Y0124981D01*
X0162883Y0123782D02*
X0176648Y0123782D01*
X0176648Y0122584D02*
X0162883Y0122584D01*
X0162883Y0121385D02*
X0176648Y0121385D01*
X0176648Y0120187D02*
X0162883Y0120187D01*
X0162883Y0118988D02*
X0176648Y0118988D01*
X0176648Y0117790D02*
X0162883Y0117790D01*
X0162883Y0116591D02*
X0176648Y0116591D01*
X0176648Y0115393D02*
X0162883Y0115393D01*
X0162883Y0114194D02*
X0176648Y0114194D01*
X0176648Y0112996D02*
X0162883Y0112996D01*
X0162883Y0111797D02*
X0176648Y0111797D01*
X0176648Y0110599D02*
X0162883Y0110599D01*
X0162883Y0109400D02*
X0176648Y0109400D01*
X0176648Y0108202D02*
X0162883Y0108202D01*
X0162883Y0107003D02*
X0176648Y0107003D01*
X0176648Y0105805D02*
X0162883Y0105805D01*
X0162883Y0104606D02*
X0176648Y0104606D01*
X0176648Y0103408D02*
X0162883Y0103408D01*
X0162883Y0102209D02*
X0176648Y0102209D01*
X0176648Y0101011D02*
X0176007Y0101011D01*
X0174311Y0098283D02*
X0161083Y0098283D01*
X0161083Y0128929D01*
X0159598Y0130413D01*
X0152917Y0130413D01*
X0153583Y0130283D01*
X0158054Y0128613D02*
X0158054Y0125782D01*
X0157961Y0125689D01*
X0158054Y0125595D01*
X0158054Y0122633D01*
X0157961Y0122539D01*
X0158054Y0122446D01*
X0158054Y0119483D01*
X0157961Y0119390D01*
X0158054Y0119296D01*
X0158054Y0116334D01*
X0157961Y0116240D01*
X0158054Y0116147D01*
X0158054Y0113184D01*
X0157961Y0113091D01*
X0158054Y0112997D01*
X0158054Y0110034D01*
X0157961Y0109941D01*
X0158054Y0109847D01*
X0158054Y0106885D01*
X0157961Y0106791D01*
X0158054Y0106698D01*
X0158054Y0103735D01*
X0157961Y0103642D01*
X0158054Y0103548D01*
X0158054Y0100586D01*
X0157961Y0100492D01*
X0158054Y0100399D01*
X0158054Y0097436D01*
X0157961Y0097343D01*
X0158054Y0097249D01*
X0158054Y0094286D01*
X0157961Y0094193D01*
X0158054Y0094099D01*
X0158054Y0091137D01*
X0157961Y0091043D01*
X0158054Y0090950D01*
X0158054Y0087987D01*
X0157961Y0087894D01*
X0158054Y0087800D01*
X0158054Y0084838D01*
X0157961Y0084744D01*
X0158054Y0084651D01*
X0158054Y0082483D01*
X0158333Y0082483D01*
X0158333Y0083529D01*
X0159036Y0084232D01*
X0167129Y0084232D01*
X0167832Y0083529D01*
X0167832Y0077283D01*
X0176648Y0077283D01*
X0176648Y0096140D01*
X0176106Y0095597D01*
X0174941Y0095115D01*
X0173681Y0095115D01*
X0172516Y0095597D01*
X0171630Y0096483D01*
X0162803Y0096483D01*
X0162493Y0096173D01*
X0161578Y0095795D01*
X0160588Y0095795D01*
X0159673Y0096173D01*
X0158973Y0096874D01*
X0158594Y0097788D01*
X0158594Y0098779D01*
X0158973Y0099693D01*
X0159283Y0100003D01*
X0159283Y0128184D01*
X0158853Y0128613D01*
X0158054Y0128613D01*
X0158054Y0128576D02*
X0158890Y0128576D01*
X0159283Y0127378D02*
X0158054Y0127378D01*
X0158054Y0126179D02*
X0159283Y0126179D01*
X0159283Y0124981D02*
X0158054Y0124981D01*
X0158054Y0123782D02*
X0159283Y0123782D01*
X0159283Y0122584D02*
X0158005Y0122584D01*
X0158054Y0121385D02*
X0159283Y0121385D01*
X0159283Y0120187D02*
X0158054Y0120187D01*
X0158054Y0118988D02*
X0159283Y0118988D01*
X0159283Y0117790D02*
X0158054Y0117790D01*
X0158054Y0116591D02*
X0159283Y0116591D01*
X0159283Y0115393D02*
X0158054Y0115393D01*
X0158054Y0114194D02*
X0159283Y0114194D01*
X0159283Y0112996D02*
X0158054Y0112996D01*
X0158054Y0111797D02*
X0159283Y0111797D01*
X0159283Y0110599D02*
X0158054Y0110599D01*
X0158054Y0109400D02*
X0159283Y0109400D01*
X0159283Y0108202D02*
X0158054Y0108202D01*
X0158054Y0107003D02*
X0159283Y0107003D01*
X0159283Y0105805D02*
X0158054Y0105805D01*
X0158054Y0104606D02*
X0159283Y0104606D01*
X0159283Y0103408D02*
X0158054Y0103408D01*
X0158054Y0102209D02*
X0159283Y0102209D01*
X0159283Y0101011D02*
X0158054Y0101011D01*
X0158054Y0099812D02*
X0159091Y0099812D01*
X0158594Y0098614D02*
X0158054Y0098614D01*
X0158033Y0097415D02*
X0158748Y0097415D01*
X0158054Y0096216D02*
X0159630Y0096216D01*
X0158054Y0095018D02*
X0176648Y0095018D01*
X0176648Y0093819D02*
X0158054Y0093819D01*
X0158054Y0092621D02*
X0176648Y0092621D01*
X0176648Y0091422D02*
X0158054Y0091422D01*
X0158054Y0090224D02*
X0176648Y0090224D01*
X0176648Y0089025D02*
X0158054Y0089025D01*
X0158028Y0087827D02*
X0176648Y0087827D01*
X0176648Y0086628D02*
X0158054Y0086628D01*
X0158054Y0085430D02*
X0176648Y0085430D01*
X0176648Y0084231D02*
X0167129Y0084231D01*
X0167832Y0083033D02*
X0176648Y0083033D01*
X0176648Y0081834D02*
X0167832Y0081834D01*
X0167832Y0080636D02*
X0176648Y0080636D01*
X0176648Y0079437D02*
X0167832Y0079437D01*
X0167832Y0078239D02*
X0176648Y0078239D01*
X0176648Y0077283D02*
X0176648Y0073483D01*
X0164254Y0073483D01*
X0163805Y0073035D01*
X0159036Y0073035D01*
X0158333Y0072332D01*
X0158333Y0065038D01*
X0159036Y0064335D01*
X0163802Y0064335D01*
X0164254Y0063883D01*
X0170083Y0063883D01*
X0170083Y0052283D01*
X0125083Y0052283D01*
X0125083Y0059312D01*
X0123911Y0060483D01*
X0116254Y0060483D01*
X0115978Y0060207D01*
X0115805Y0060380D01*
X0113211Y0060380D01*
X0113115Y0060283D01*
X0112083Y0060283D01*
X0112083Y0058283D01*
X0105083Y0058283D01*
X0105083Y0065283D01*
X0110083Y0065283D01*
X0110083Y0068187D01*
X0112655Y0068187D01*
X0112751Y0068283D01*
X0113115Y0068283D01*
X0113211Y0068187D01*
X0115805Y0068187D01*
X0116083Y0068465D01*
X0116360Y0068187D01*
X0118955Y0068187D01*
X0119232Y0068465D01*
X0119510Y0068187D01*
X0122104Y0068187D01*
X0122807Y0068890D01*
X0122807Y0070937D01*
X0123453Y0072358D01*
X0126002Y0072358D01*
X0126705Y0073060D01*
X0126705Y0078307D01*
X0126002Y0079009D01*
X0120874Y0079009D01*
X0120657Y0078793D01*
X0120545Y0078906D01*
X0115741Y0078906D01*
X0115648Y0078956D01*
X0115648Y0081203D01*
X0115283Y0081568D01*
X0115283Y0082599D01*
X0115648Y0082964D01*
X0115648Y0087895D01*
X0115283Y0088261D01*
X0115283Y0089283D01*
X0128883Y0089283D01*
X0128883Y0093283D01*
X0136083Y0093283D01*
X0136083Y0077283D01*
X0147956Y0077283D01*
X0148222Y0077018D01*
X0149353Y0076550D01*
X0150576Y0076550D01*
X0151707Y0077018D01*
X0151973Y0077283D01*
X0155360Y0077283D01*
X0155383Y0077274D01*
X0155452Y0077213D01*
X0155894Y0077062D01*
X0156326Y0076883D01*
X0156419Y0076883D01*
X0156507Y0076854D01*
X0156973Y0076883D01*
X0158333Y0076883D01*
X0158333Y0076235D01*
X0159036Y0075532D01*
X0167129Y0075532D01*
X0167832Y0076235D01*
X0167832Y0077283D01*
X0176648Y0077283D01*
X0176648Y0077040D02*
X0167832Y0077040D01*
X0167438Y0075842D02*
X0176648Y0075842D01*
X0176648Y0074643D02*
X0126705Y0074643D01*
X0126705Y0073445D02*
X0164216Y0073445D01*
X0158727Y0075842D02*
X0126705Y0075842D01*
X0126705Y0077040D02*
X0148200Y0077040D01*
X0147209Y0078239D02*
X0126705Y0078239D01*
X0136083Y0078239D01*
X0136083Y0079437D02*
X0115648Y0079437D01*
X0115648Y0080636D02*
X0136083Y0080636D01*
X0136083Y0081834D02*
X0115283Y0081834D01*
X0115648Y0083033D02*
X0136083Y0083033D01*
X0136083Y0084231D02*
X0115648Y0084231D01*
X0115648Y0085430D02*
X0136083Y0085430D01*
X0136083Y0086628D02*
X0115648Y0086628D01*
X0115648Y0087827D02*
X0136083Y0087827D01*
X0136083Y0089025D02*
X0115283Y0089025D01*
X0113483Y0089025D02*
X0108083Y0089025D01*
X0108083Y0087827D02*
X0113483Y0087827D01*
X0113083Y0086628D02*
X0108083Y0086628D01*
X0108083Y0085430D02*
X0113083Y0085430D01*
X0113083Y0084231D02*
X0108083Y0084231D01*
X0109549Y0081834D02*
X0099483Y0081834D01*
X0099483Y0080636D02*
X0108917Y0080636D01*
X0108917Y0079437D02*
X0099483Y0079437D01*
X0099483Y0078239D02*
X0108917Y0078239D01*
X0108917Y0077040D02*
X0099483Y0077040D01*
X0099483Y0075842D02*
X0109347Y0075842D01*
X0111194Y0074643D02*
X0099483Y0074643D01*
X0099483Y0073445D02*
X0111336Y0073445D01*
X0112200Y0072246D02*
X0099483Y0072246D01*
X0099483Y0071048D02*
X0112508Y0071048D01*
X0111358Y0070887D02*
X0111333Y0071083D01*
X0111283Y0071083D01*
X0111358Y0070887D02*
X0111333Y0070083D01*
X0110083Y0067452D02*
X0158333Y0067452D01*
X0158333Y0066254D02*
X0110083Y0066254D01*
X0114508Y0070887D02*
X0113683Y0074283D01*
X0117233Y0075583D02*
X0117883Y0075737D01*
X0118083Y0075583D02*
X0112283Y0078737D01*
X0117633Y0075133D01*
X0117633Y0071083D01*
X0117657Y0070887D01*
X0116083Y0068083D02*
X0116083Y0060312D01*
X0115978Y0060207D01*
X0115805Y0060380D01*
X0113211Y0060380D01*
X0112508Y0059677D01*
X0112508Y0056503D01*
X0112198Y0056193D01*
X0111819Y0055279D01*
X0111819Y0054288D01*
X0112198Y0053374D01*
X0112898Y0052673D01*
X0113813Y0052295D01*
X0114803Y0052295D01*
X0115083Y0052410D01*
X0115083Y0044283D01*
X0008083Y0044283D01*
X0008083Y0083283D01*
X0062165Y0083283D01*
X0062165Y0082003D01*
X0061855Y0081693D01*
X0061476Y0080779D01*
X0061476Y0079788D01*
X0061855Y0078874D01*
X0062555Y0078173D01*
X0063469Y0077795D01*
X0064460Y0077795D01*
X0065374Y0078173D01*
X0065684Y0078483D01*
X0091568Y0078483D01*
X0091568Y0076621D01*
X0092271Y0075918D01*
X0097202Y0075918D01*
X0097683Y0076399D01*
X0097683Y0068083D01*
X0116083Y0068083D01*
X0116083Y0067452D02*
X0008083Y0067452D01*
X0008083Y0066254D02*
X0116083Y0066254D01*
X0116083Y0065055D02*
X0008083Y0065055D01*
X0008083Y0063857D02*
X0116083Y0063857D01*
X0116083Y0062658D02*
X0008083Y0062658D01*
X0008083Y0061460D02*
X0116083Y0061460D01*
X0116032Y0060261D02*
X0115923Y0060261D01*
X0116032Y0060261D01*
X0113092Y0060261D02*
X0008083Y0060261D01*
X0008083Y0059063D02*
X0112508Y0059063D01*
X0112083Y0059063D02*
X0105083Y0059063D01*
X0105083Y0060261D02*
X0112083Y0060261D01*
X0112508Y0057864D02*
X0008083Y0057864D01*
X0008083Y0056666D02*
X0112508Y0056666D01*
X0111897Y0055467D02*
X0008083Y0055467D01*
X0008083Y0054269D02*
X0111827Y0054269D01*
X0111333Y0053333D02*
X0112033Y0050633D01*
X0112546Y0049583D01*
X0112501Y0053070D02*
X0008083Y0053070D01*
X0008083Y0051872D02*
X0115083Y0051872D01*
X0115083Y0050673D02*
X0008083Y0050673D01*
X0008083Y0049475D02*
X0115083Y0049475D01*
X0115083Y0048276D02*
X0008083Y0048276D01*
X0008083Y0047078D02*
X0115083Y0047078D01*
X0115083Y0045879D02*
X0008083Y0045879D01*
X0008083Y0044681D02*
X0115083Y0044681D01*
X0111333Y0053333D02*
X0111333Y0057583D01*
X0114508Y0057680D02*
X0114308Y0054783D01*
X0117857Y0054783D02*
X0117657Y0057680D01*
X0124133Y0060261D02*
X0170083Y0060261D01*
X0170083Y0059063D02*
X0125083Y0059063D01*
X0125083Y0057864D02*
X0170083Y0057864D01*
X0170083Y0056666D02*
X0125083Y0056666D01*
X0125083Y0055467D02*
X0170083Y0055467D01*
X0170083Y0054269D02*
X0125083Y0054269D01*
X0125083Y0053070D02*
X0170083Y0053070D01*
X0170083Y0061460D02*
X0105083Y0061460D01*
X0105083Y0062658D02*
X0170083Y0062658D01*
X0170083Y0063857D02*
X0105083Y0063857D01*
X0105083Y0065055D02*
X0158333Y0065055D01*
X0158333Y0068651D02*
X0122567Y0068651D01*
X0122807Y0069849D02*
X0158333Y0069849D01*
X0158333Y0071048D02*
X0122858Y0071048D01*
X0123403Y0072246D02*
X0158333Y0072246D01*
X0155947Y0077040D02*
X0151730Y0077040D01*
X0147053Y0080636D02*
X0121083Y0080636D01*
X0121083Y0081834D02*
X0147780Y0081834D01*
X0147780Y0083033D02*
X0121083Y0083033D01*
X0121083Y0084231D02*
X0147780Y0084231D01*
X0147780Y0085430D02*
X0121083Y0085430D01*
X0125052Y0091422D02*
X0108083Y0091422D01*
X0108083Y0090224D02*
X0113678Y0090224D01*
X0108083Y0092621D02*
X0125052Y0092621D01*
X0125053Y0093819D02*
X0108083Y0093819D01*
X0108083Y0095018D02*
X0125053Y0095018D01*
X0125053Y0096216D02*
X0118389Y0096216D01*
X0118483Y0097415D02*
X0125054Y0097415D01*
X0125054Y0098614D02*
X0118483Y0098614D01*
X0118483Y0099812D02*
X0125054Y0099812D01*
X0125055Y0101011D02*
X0118483Y0101011D01*
X0118483Y0102209D02*
X0125055Y0102209D01*
X0125055Y0103408D02*
X0118483Y0103408D01*
X0118483Y0104606D02*
X0125055Y0104606D01*
X0125056Y0105805D02*
X0118483Y0105805D01*
X0118483Y0107003D02*
X0125056Y0107003D01*
X0125056Y0108202D02*
X0118483Y0108202D01*
X0118483Y0109400D02*
X0125057Y0109400D01*
X0125057Y0110599D02*
X0118483Y0110599D01*
X0118483Y0111797D02*
X0125057Y0111797D01*
X0125057Y0112996D02*
X0118483Y0112996D01*
X0118483Y0114194D02*
X0125058Y0114194D01*
X0125058Y0115393D02*
X0118483Y0115393D01*
X0118483Y0116591D02*
X0125058Y0116591D01*
X0125059Y0117790D02*
X0118483Y0117790D01*
X0118483Y0118988D02*
X0125059Y0118988D01*
X0125059Y0120187D02*
X0118483Y0120187D01*
X0118483Y0121385D02*
X0125059Y0121385D01*
X0125060Y0122584D02*
X0118483Y0122584D01*
X0118483Y0123782D02*
X0125060Y0123782D01*
X0125060Y0124981D02*
X0118483Y0124981D01*
X0118483Y0126179D02*
X0125061Y0126179D01*
X0125061Y0127378D02*
X0118483Y0127378D01*
X0118483Y0128576D02*
X0125061Y0128576D01*
X0125061Y0129775D02*
X0118483Y0129775D01*
X0118483Y0130973D02*
X0125062Y0130973D01*
X0125062Y0132172D02*
X0118483Y0132172D01*
X0118483Y0133370D02*
X0125062Y0133370D01*
X0125063Y0134569D02*
X0118483Y0134569D01*
X0118483Y0135767D02*
X0125063Y0135767D01*
X0125063Y0136966D02*
X0118483Y0136966D01*
X0118483Y0138164D02*
X0125064Y0138164D01*
X0125064Y0139363D02*
X0118483Y0139363D01*
X0118483Y0140561D02*
X0125064Y0140561D01*
X0125064Y0141760D02*
X0118483Y0141760D01*
X0118483Y0142958D02*
X0125065Y0142958D01*
X0125065Y0144157D02*
X0118483Y0144157D01*
X0118483Y0145355D02*
X0125065Y0145355D01*
X0125066Y0146554D02*
X0118483Y0146554D01*
X0118483Y0147752D02*
X0125066Y0147752D01*
X0125066Y0148951D02*
X0118483Y0148951D01*
X0118483Y0150150D02*
X0125066Y0150150D01*
X0125067Y0151348D02*
X0118483Y0151348D01*
X0118483Y0152547D02*
X0125067Y0152547D01*
X0125067Y0153745D02*
X0118483Y0153745D01*
X0118483Y0154944D02*
X0125068Y0154944D01*
X0125068Y0156142D02*
X0118483Y0156142D01*
X0126862Y0133370D02*
X0133896Y0133370D01*
X0129160Y0132172D02*
X0126862Y0132172D01*
X0126862Y0130973D02*
X0128883Y0130973D01*
X0128883Y0129775D02*
X0126861Y0129775D01*
X0126861Y0128576D02*
X0128883Y0128576D01*
X0128883Y0127378D02*
X0126861Y0127378D01*
X0126861Y0126179D02*
X0128883Y0126179D01*
X0128883Y0124981D02*
X0126860Y0124981D01*
X0126860Y0123782D02*
X0128883Y0123782D01*
X0128932Y0122584D02*
X0126860Y0122584D01*
X0126859Y0121385D02*
X0128883Y0121385D01*
X0128883Y0120187D02*
X0126859Y0120187D01*
X0126859Y0118988D02*
X0128883Y0118988D01*
X0128883Y0117790D02*
X0126859Y0117790D01*
X0126858Y0116591D02*
X0128883Y0116591D01*
X0128883Y0115393D02*
X0126858Y0115393D01*
X0126858Y0114194D02*
X0128883Y0114194D01*
X0128883Y0112996D02*
X0126857Y0112996D01*
X0126857Y0111797D02*
X0128883Y0111797D01*
X0128883Y0110599D02*
X0126857Y0110599D01*
X0126857Y0109400D02*
X0128883Y0109400D01*
X0128883Y0108202D02*
X0126856Y0108202D01*
X0126856Y0107003D02*
X0128883Y0107003D01*
X0128883Y0105805D02*
X0126856Y0105805D01*
X0126855Y0104606D02*
X0128883Y0104606D01*
X0128883Y0103408D02*
X0126855Y0103408D01*
X0126855Y0102209D02*
X0128883Y0102209D01*
X0128883Y0101011D02*
X0126854Y0101011D01*
X0126854Y0099812D02*
X0128883Y0099812D01*
X0128883Y0098614D02*
X0126854Y0098614D01*
X0126854Y0097415D02*
X0128904Y0097415D01*
X0128883Y0096216D02*
X0126853Y0096216D01*
X0126853Y0095018D02*
X0128883Y0095018D01*
X0129350Y0093819D02*
X0126853Y0093819D01*
X0126852Y0092621D02*
X0147780Y0092621D01*
X0147780Y0093819D02*
X0138690Y0093819D01*
X0139157Y0095018D02*
X0147780Y0095018D01*
X0147780Y0096216D02*
X0139157Y0096216D01*
X0139136Y0097415D02*
X0147801Y0097415D01*
X0147780Y0098614D02*
X0139157Y0098614D01*
X0139157Y0099812D02*
X0147780Y0099812D01*
X0147780Y0101011D02*
X0139157Y0101011D01*
X0139157Y0102209D02*
X0147780Y0102209D01*
X0147780Y0103408D02*
X0139157Y0103408D01*
X0139157Y0104606D02*
X0147780Y0104606D01*
X0147780Y0105805D02*
X0139157Y0105805D01*
X0139157Y0107003D02*
X0147780Y0107003D01*
X0147780Y0108202D02*
X0139157Y0108202D01*
X0139157Y0109400D02*
X0147780Y0109400D01*
X0147780Y0110599D02*
X0139157Y0110599D01*
X0139157Y0111797D02*
X0147780Y0111797D01*
X0147780Y0112996D02*
X0139157Y0112996D01*
X0139157Y0114194D02*
X0147780Y0114194D01*
X0147780Y0115393D02*
X0139157Y0115393D01*
X0139799Y0116591D02*
X0147780Y0116591D01*
X0147780Y0117790D02*
X0140901Y0117790D01*
X0142074Y0118988D02*
X0147780Y0118988D01*
X0147780Y0120187D02*
X0143247Y0120187D01*
X0144420Y0121385D02*
X0147780Y0121385D01*
X0147829Y0122584D02*
X0145593Y0122584D01*
X0146766Y0123782D02*
X0147780Y0123782D01*
X0134283Y0121033D02*
X0134020Y0120965D01*
X0134020Y0127264D02*
X0134283Y0127333D01*
X0150883Y0151348D02*
X0151238Y0151348D01*
X0161981Y0146554D02*
X0176648Y0146554D01*
X0176648Y0147752D02*
X0163113Y0147752D01*
X0163893Y0148951D02*
X0176648Y0148951D01*
X0176648Y0150150D02*
X0163883Y0150150D01*
X0163883Y0151348D02*
X0176648Y0151348D01*
X0176648Y0152547D02*
X0163883Y0152547D01*
X0163883Y0153745D02*
X0176648Y0153745D01*
X0176648Y0154944D02*
X0163883Y0154944D01*
X0163883Y0156142D02*
X0176648Y0156142D01*
X0176648Y0157341D02*
X0163883Y0157341D01*
X0163883Y0158539D02*
X0176648Y0158539D01*
X0176648Y0159738D02*
X0163883Y0159738D01*
X0163883Y0160936D02*
X0176648Y0160936D01*
X0176648Y0162135D02*
X0163883Y0162135D01*
X0163883Y0163333D02*
X0176648Y0163333D01*
X0176648Y0164532D02*
X0163883Y0164532D01*
X0163883Y0165730D02*
X0176648Y0165730D01*
X0176648Y0166929D02*
X0163883Y0166929D01*
X0163883Y0168127D02*
X0176648Y0168127D01*
X0176648Y0169326D02*
X0163883Y0169326D01*
X0163883Y0170524D02*
X0176648Y0170524D01*
X0176648Y0171723D02*
X0163883Y0171723D01*
X0163883Y0172921D02*
X0176648Y0172921D01*
X0176648Y0174120D02*
X0163883Y0174120D01*
X0163883Y0175318D02*
X0176648Y0175318D01*
X0176648Y0176517D02*
X0163883Y0176517D01*
X0163883Y0177715D02*
X0176648Y0177715D01*
X0176648Y0178914D02*
X0163883Y0178914D01*
X0163883Y0180112D02*
X0176648Y0180112D01*
X0176648Y0181311D02*
X0163883Y0181311D01*
X0163883Y0182509D02*
X0176648Y0182509D01*
X0176648Y0183708D02*
X0163883Y0183708D01*
X0163883Y0184906D02*
X0176648Y0184906D01*
X0176648Y0186105D02*
X0163883Y0186105D01*
X0163883Y0187303D02*
X0176648Y0187303D01*
X0176648Y0188502D02*
X0163883Y0188502D01*
X0163883Y0189700D02*
X0176648Y0189700D01*
X0176648Y0190899D02*
X0163883Y0190899D01*
X0163883Y0192097D02*
X0176648Y0192097D01*
X0176648Y0193296D02*
X0163883Y0193296D01*
X0163883Y0194494D02*
X0176648Y0194494D01*
X0176648Y0195693D02*
X0163883Y0195693D01*
X0163883Y0196891D02*
X0176648Y0196891D01*
X0176648Y0198090D02*
X0163883Y0198090D01*
X0163883Y0199288D02*
X0176648Y0199288D01*
X0176648Y0200487D02*
X0163883Y0200487D01*
X0163883Y0201685D02*
X0176648Y0201685D01*
X0176648Y0202884D02*
X0163894Y0202884D01*
X0162966Y0204083D02*
X0176648Y0204083D01*
X0176648Y0205281D02*
X0162037Y0205281D01*
X0161109Y0206480D02*
X0176648Y0206480D01*
X0176648Y0207678D02*
X0160234Y0207678D01*
X0160269Y0201685D02*
X0129349Y0201685D01*
X0129635Y0200487D02*
X0160283Y0200487D01*
X0160283Y0199288D02*
X0129635Y0199288D01*
X0129635Y0198090D02*
X0160283Y0198090D01*
X0160283Y0196891D02*
X0129635Y0196891D01*
X0129635Y0195693D02*
X0160283Y0195693D01*
X0149185Y0218283D02*
X0121083Y0218283D01*
X0120637Y0228053D02*
X0132809Y0228053D01*
X0133769Y0229251D02*
X0121084Y0229251D01*
X0121531Y0230450D02*
X0134091Y0230450D01*
X0134083Y0231648D02*
X0121979Y0231648D01*
X0122426Y0232847D02*
X0134083Y0232847D01*
X0134083Y0234045D02*
X0122874Y0234045D01*
X0123321Y0235244D02*
X0134083Y0235244D01*
X0134083Y0236442D02*
X0123769Y0236442D01*
X0132171Y0225656D02*
X0176648Y0225656D01*
X0176648Y0226854D02*
X0134218Y0226854D01*
X0135249Y0228053D02*
X0176648Y0228053D01*
X0176648Y0229251D02*
X0135728Y0229251D01*
X0135921Y0230450D02*
X0176648Y0230450D01*
X0176648Y0231648D02*
X0135883Y0231648D01*
X0135883Y0232847D02*
X0176648Y0232847D01*
X0176648Y0234045D02*
X0135883Y0234045D01*
X0135883Y0235244D02*
X0176648Y0235244D01*
X0176648Y0236442D02*
X0135883Y0236442D01*
X0101083Y0201283D02*
X0101083Y0133283D01*
X0083902Y0116102D01*
X0032469Y0116102D01*
X0016705Y0116102D01*
X0011713Y0110350D01*
X0012956Y0107003D02*
X0025357Y0107003D01*
X0025357Y0105805D02*
X0008083Y0105805D01*
X0008083Y0107003D02*
X0010469Y0107003D01*
X0011003Y0106782D02*
X0009691Y0107325D01*
X0008687Y0108329D01*
X0008144Y0109641D01*
X0008144Y0111060D01*
X0008687Y0112372D01*
X0009691Y0113376D01*
X0011003Y0113919D01*
X0011897Y0113919D01*
X0014505Y0116924D01*
X0014505Y0117014D01*
X0015094Y0117603D01*
X0015641Y0118233D01*
X0015730Y0118239D01*
X0015793Y0118302D01*
X0016627Y0118302D01*
X0017459Y0118361D01*
X0017526Y0118302D01*
X0025357Y0118302D01*
X0025357Y0119521D01*
X0025875Y0120039D01*
X0025357Y0120558D01*
X0025357Y0122083D01*
X0016253Y0122083D01*
X0015281Y0121567D01*
X0015281Y0121452D01*
X0014738Y0120140D01*
X0013734Y0119136D01*
X0012422Y0118593D01*
X0011003Y0118593D01*
X0009691Y0119136D01*
X0008687Y0120140D01*
X0008144Y0121452D01*
X0008144Y0122871D01*
X0008687Y0124183D01*
X0009691Y0125187D01*
X0011003Y0125730D01*
X0012422Y0125730D01*
X0013162Y0125423D01*
X0014382Y0126072D01*
X0014793Y0126483D01*
X0015156Y0126483D01*
X0015477Y0126654D01*
X0016034Y0126483D01*
X0025357Y0126483D01*
X0025357Y0127395D01*
X0025875Y0127913D01*
X0025357Y0128432D01*
X0025357Y0129650D01*
X0016034Y0129650D01*
X0015477Y0129480D01*
X0015156Y0129650D01*
X0014793Y0129650D01*
X0014382Y0130062D01*
X0013162Y0130710D01*
X0012422Y0130404D01*
X0011003Y0130404D01*
X0009691Y0130947D01*
X0008687Y0131951D01*
X0008144Y0133263D01*
X0008144Y0134682D01*
X0008687Y0135994D01*
X0009691Y0136998D01*
X0011003Y0137541D01*
X0012422Y0137541D01*
X0013734Y0136998D01*
X0014738Y0135994D01*
X0015281Y0134682D01*
X0015281Y0134567D01*
X0016253Y0134050D01*
X0025357Y0134050D01*
X0025357Y0135269D01*
X0025875Y0135787D01*
X0025357Y0136306D01*
X0025357Y0137506D01*
X0017493Y0137486D01*
X0017393Y0137404D01*
X0016598Y0137483D01*
X0015799Y0137481D01*
X0015708Y0137572D01*
X0015579Y0137585D01*
X0015073Y0138203D01*
X0014507Y0138766D01*
X0014507Y0138896D01*
X0011790Y0142215D01*
X0011003Y0142215D01*
X0009691Y0142758D01*
X0008687Y0143762D01*
X0008144Y0145074D01*
X0008144Y0146493D01*
X0008687Y0147805D01*
X0009691Y0148809D01*
X0011003Y0149352D01*
X0012422Y0149352D01*
X0013734Y0148809D01*
X0014738Y0147805D01*
X0015281Y0146493D01*
X0015281Y0145074D01*
X0015232Y0144956D01*
X0017745Y0141886D01*
X0025357Y0141906D01*
X0025357Y0143143D01*
X0025875Y0143661D01*
X0025357Y0144180D01*
X0025357Y0151017D01*
X0025875Y0151535D01*
X0025357Y0152054D01*
X0025357Y0158891D01*
X0025875Y0159409D01*
X0025357Y0159928D01*
X0025357Y0166765D01*
X0025875Y0167283D01*
X0025357Y0167802D01*
X0025357Y0174639D01*
X0025875Y0175157D01*
X0025357Y0175676D01*
X0025357Y0182513D01*
X0025875Y0183032D01*
X0025357Y0183550D01*
X0025357Y0190387D01*
X0025875Y0190906D01*
X0025357Y0191424D01*
X0025357Y0198261D01*
X0026294Y0199198D01*
X0029909Y0199198D01*
X0029883Y0214783D01*
X0017083Y0237283D01*
X0004083Y0237283D01*
X0004083Y0227234D01*
X0004159Y0226102D01*
X0004387Y0224991D01*
X0004763Y0223921D01*
X0005279Y0222911D01*
X0005926Y0221979D01*
X0006683Y0220890D01*
X0007287Y0219708D01*
X0007726Y0218455D01*
X0007993Y0217155D01*
X0008083Y0215831D01*
X0008083Y0081283D01*
X0035583Y0081283D01*
X0035583Y0095998D01*
X0026294Y0095998D01*
X0025357Y0096936D01*
X0025357Y0103773D01*
X0025875Y0104291D01*
X0025357Y0104810D01*
X0025357Y0111647D01*
X0025875Y0112165D01*
X0025357Y0112684D01*
X0025357Y0113902D01*
X0017708Y0113902D01*
X0015268Y0111091D01*
X0015281Y0111060D01*
X0015281Y0109641D01*
X0014738Y0108329D01*
X0013734Y0107325D01*
X0012422Y0106782D01*
X0011003Y0106782D01*
X0008815Y0108202D02*
X0008083Y0108202D01*
X0008083Y0109400D02*
X0008244Y0109400D01*
X0008144Y0110599D02*
X0008083Y0110599D01*
X0008083Y0111797D02*
X0008449Y0111797D01*
X0008083Y0112996D02*
X0009311Y0112996D01*
X0008083Y0114194D02*
X0012136Y0114194D01*
X0013176Y0115393D02*
X0008083Y0115393D01*
X0008083Y0116591D02*
X0014216Y0116591D01*
X0015256Y0117790D02*
X0008083Y0117790D01*
X0008083Y0118988D02*
X0010048Y0118988D01*
X0008668Y0120187D02*
X0008083Y0120187D01*
X0008083Y0121385D02*
X0008172Y0121385D01*
X0008144Y0122584D02*
X0008083Y0122584D01*
X0008083Y0123782D02*
X0008521Y0123782D01*
X0008083Y0124981D02*
X0009485Y0124981D01*
X0008083Y0126179D02*
X0014489Y0126179D01*
X0015705Y0124283D02*
X0032469Y0124283D01*
X0032469Y0123976D01*
X0083791Y0123976D01*
X0097083Y0137283D01*
X0097083Y0162283D01*
X0094083Y0154883D02*
X0082791Y0139724D01*
X0032469Y0139724D01*
X0016705Y0139683D01*
X0011713Y0145783D01*
X0013390Y0148951D02*
X0025357Y0148951D01*
X0025357Y0150150D02*
X0008083Y0150150D01*
X0008083Y0151348D02*
X0025688Y0151348D01*
X0025357Y0152547D02*
X0008083Y0152547D01*
X0008083Y0153745D02*
X0025357Y0153745D01*
X0025357Y0154944D02*
X0008083Y0154944D01*
X0008083Y0156142D02*
X0025357Y0156142D01*
X0025357Y0157341D02*
X0008083Y0157341D01*
X0008083Y0158539D02*
X0025357Y0158539D01*
X0025547Y0159738D02*
X0008083Y0159738D01*
X0008083Y0160936D02*
X0025357Y0160936D01*
X0025357Y0162135D02*
X0008083Y0162135D01*
X0008083Y0163333D02*
X0025357Y0163333D01*
X0025357Y0164532D02*
X0008083Y0164532D01*
X0008083Y0165730D02*
X0025357Y0165730D01*
X0025520Y0166929D02*
X0008083Y0166929D01*
X0008083Y0168127D02*
X0025357Y0168127D01*
X0025357Y0169326D02*
X0008083Y0169326D01*
X0008083Y0170524D02*
X0025357Y0170524D01*
X0025357Y0171723D02*
X0008083Y0171723D01*
X0008083Y0172921D02*
X0025357Y0172921D01*
X0025357Y0174120D02*
X0008083Y0174120D01*
X0008083Y0175318D02*
X0025714Y0175318D01*
X0025357Y0176517D02*
X0008083Y0176517D01*
X0008083Y0177715D02*
X0025357Y0177715D01*
X0025357Y0178914D02*
X0008083Y0178914D01*
X0008083Y0180112D02*
X0025357Y0180112D01*
X0025357Y0181311D02*
X0008083Y0181311D01*
X0008083Y0182509D02*
X0025357Y0182509D01*
X0025357Y0183708D02*
X0008083Y0183708D01*
X0008083Y0184906D02*
X0025357Y0184906D01*
X0025357Y0186105D02*
X0008083Y0186105D01*
X0008083Y0187303D02*
X0025357Y0187303D01*
X0025357Y0188502D02*
X0008083Y0188502D01*
X0008083Y0189700D02*
X0025357Y0189700D01*
X0025868Y0190899D02*
X0008083Y0190899D01*
X0008083Y0192097D02*
X0025357Y0192097D01*
X0025357Y0193296D02*
X0008083Y0193296D01*
X0008083Y0194494D02*
X0025357Y0194494D01*
X0025357Y0195693D02*
X0008083Y0195693D01*
X0008083Y0196891D02*
X0025357Y0196891D01*
X0025357Y0198090D02*
X0008083Y0198090D01*
X0008083Y0199288D02*
X0029909Y0199288D01*
X0029907Y0200487D02*
X0008083Y0200487D01*
X0008083Y0201685D02*
X0029905Y0201685D01*
X0029903Y0202884D02*
X0008083Y0202884D01*
X0008083Y0204083D02*
X0029901Y0204083D01*
X0029899Y0205281D02*
X0008083Y0205281D01*
X0008083Y0206480D02*
X0029897Y0206480D01*
X0029895Y0207678D02*
X0008083Y0207678D01*
X0008083Y0208877D02*
X0029893Y0208877D01*
X0029891Y0210075D02*
X0008083Y0210075D01*
X0008083Y0211274D02*
X0029889Y0211274D01*
X0029887Y0212472D02*
X0008083Y0212472D01*
X0008083Y0213671D02*
X0029885Y0213671D01*
X0029834Y0214869D02*
X0008083Y0214869D01*
X0008067Y0216068D02*
X0029152Y0216068D01*
X0028470Y0217266D02*
X0007970Y0217266D01*
X0007723Y0218465D02*
X0027788Y0218465D01*
X0027107Y0219663D02*
X0007303Y0219663D01*
X0006697Y0220862D02*
X0026425Y0220862D01*
X0025743Y0222060D02*
X0005870Y0222060D01*
X0005101Y0223259D02*
X0025061Y0223259D01*
X0024379Y0224457D02*
X0004575Y0224457D01*
X0004251Y0225656D02*
X0023698Y0225656D01*
X0023016Y0226854D02*
X0004108Y0226854D01*
X0004083Y0228053D02*
X0022334Y0228053D01*
X0021652Y0229251D02*
X0004083Y0229251D01*
X0004083Y0230450D02*
X0020970Y0230450D01*
X0020288Y0231648D02*
X0004083Y0231648D01*
X0004083Y0232847D02*
X0019607Y0232847D01*
X0018925Y0234045D02*
X0004083Y0234045D01*
X0004083Y0235244D02*
X0018243Y0235244D01*
X0017561Y0236442D02*
X0004083Y0236442D01*
X0008083Y0148951D02*
X0010035Y0148951D01*
X0008666Y0147752D02*
X0008083Y0147752D01*
X0008083Y0146554D02*
X0008169Y0146554D01*
X0008144Y0145355D02*
X0008083Y0145355D01*
X0008083Y0144157D02*
X0008524Y0144157D01*
X0008083Y0142958D02*
X0009491Y0142958D01*
X0008083Y0141760D02*
X0012163Y0141760D01*
X0013143Y0140561D02*
X0008083Y0140561D01*
X0008083Y0139363D02*
X0014124Y0139363D01*
X0015105Y0138164D02*
X0008083Y0138164D01*
X0008083Y0136966D02*
X0009659Y0136966D01*
X0008594Y0135767D02*
X0008083Y0135767D01*
X0008083Y0134569D02*
X0008144Y0134569D01*
X0008144Y0133370D02*
X0008083Y0133370D01*
X0008083Y0132172D02*
X0008596Y0132172D01*
X0008083Y0130973D02*
X0009665Y0130973D01*
X0008083Y0129775D02*
X0014669Y0129775D01*
X0015705Y0131850D02*
X0011713Y0133972D01*
X0013766Y0136966D02*
X0025357Y0136966D01*
X0025855Y0135767D02*
X0014832Y0135767D01*
X0015281Y0134569D02*
X0025357Y0134569D01*
X0025357Y0128576D02*
X0008083Y0128576D01*
X0008083Y0127378D02*
X0025357Y0127378D01*
X0025357Y0121385D02*
X0015254Y0121385D01*
X0014757Y0120187D02*
X0025728Y0120187D01*
X0025357Y0118988D02*
X0013377Y0118988D01*
X0011713Y0122161D02*
X0015705Y0124283D01*
X0015705Y0131850D02*
X0032469Y0131850D01*
X0082791Y0131850D01*
X0094083Y0147283D01*
X0128883Y0092621D02*
X0136083Y0092621D01*
X0136083Y0091422D02*
X0128883Y0091422D01*
X0128883Y0090224D02*
X0136083Y0090224D01*
X0126852Y0090224D02*
X0147780Y0090224D01*
X0147780Y0091422D02*
X0126852Y0091422D01*
X0126852Y0089025D02*
X0147780Y0089025D01*
X0147807Y0087827D02*
X0126851Y0087827D01*
X0126851Y0086628D02*
X0147780Y0086628D01*
X0146888Y0079437D02*
X0121083Y0079437D01*
X0123438Y0075683D02*
X0122807Y0075283D01*
X0120807Y0070887D01*
X0122683Y0075133D02*
X0123438Y0075683D01*
X0118083Y0075583D02*
X0117233Y0075583D01*
X0113083Y0083033D02*
X0099483Y0083033D01*
X0094736Y0079283D02*
X0090883Y0082283D01*
X0090883Y0080283D01*
X0063965Y0080283D01*
X0063965Y0090512D01*
X0062165Y0083033D02*
X0008083Y0083033D01*
X0035583Y0083033D01*
X0035583Y0084231D02*
X0008083Y0084231D01*
X0008083Y0085430D02*
X0035583Y0085430D01*
X0035583Y0086628D02*
X0008083Y0086628D01*
X0008083Y0087827D02*
X0035583Y0087827D01*
X0035583Y0089025D02*
X0008083Y0089025D01*
X0008083Y0090224D02*
X0035583Y0090224D01*
X0035583Y0091422D02*
X0008083Y0091422D01*
X0008083Y0092621D02*
X0035583Y0092621D01*
X0035583Y0093819D02*
X0008083Y0093819D01*
X0008083Y0095018D02*
X0035583Y0095018D01*
X0026076Y0096216D02*
X0008083Y0096216D01*
X0008083Y0097415D02*
X0025357Y0097415D01*
X0025357Y0098614D02*
X0008083Y0098614D01*
X0008083Y0099812D02*
X0025357Y0099812D01*
X0025357Y0101011D02*
X0008083Y0101011D01*
X0008083Y0102209D02*
X0025357Y0102209D01*
X0025357Y0103408D02*
X0008083Y0103408D01*
X0008083Y0104606D02*
X0025560Y0104606D01*
X0025357Y0108202D02*
X0014610Y0108202D01*
X0015181Y0109400D02*
X0025357Y0109400D01*
X0025357Y0110599D02*
X0015281Y0110599D01*
X0015881Y0111797D02*
X0025507Y0111797D01*
X0025357Y0112996D02*
X0016921Y0112996D01*
X0016867Y0142958D02*
X0025357Y0142958D01*
X0025380Y0144157D02*
X0015887Y0144157D01*
X0015281Y0145355D02*
X0025357Y0145355D01*
X0025357Y0146554D02*
X0015256Y0146554D01*
X0014760Y0147752D02*
X0025357Y0147752D01*
X0035583Y0081834D02*
X0008083Y0081834D01*
X0061996Y0081834D01*
X0061476Y0080636D02*
X0008083Y0080636D01*
X0008083Y0079437D02*
X0061621Y0079437D01*
X0062489Y0078239D02*
X0008083Y0078239D01*
X0008083Y0077040D02*
X0091568Y0077040D01*
X0091568Y0078239D02*
X0065440Y0078239D01*
X0079683Y0082883D02*
X0079683Y0090512D01*
X0079713Y0090512D01*
X0097683Y0075842D02*
X0008083Y0075842D01*
X0008083Y0074643D02*
X0097683Y0074643D01*
X0097683Y0073445D02*
X0008083Y0073445D01*
X0008083Y0072246D02*
X0097683Y0072246D01*
X0097683Y0071048D02*
X0008083Y0071048D01*
X0008083Y0069849D02*
X0097683Y0069849D01*
X0097683Y0068651D02*
X0008083Y0068651D01*
X0125797Y0085483D02*
X0125797Y0085483D01*
X0126851Y0086538D02*
X0126851Y0086538D01*
X0158054Y0084231D02*
X0159036Y0084231D01*
X0158333Y0083033D02*
X0158054Y0083033D01*
X0162536Y0096216D02*
X0171897Y0096216D01*
X0172615Y0101011D02*
X0162883Y0101011D01*
D30*
X0165083Y0071483D02*
X0176448Y0071483D01*
X0176448Y0044283D01*
X0117083Y0044283D01*
X0117083Y0052194D01*
X0117323Y0052095D01*
X0118392Y0052095D01*
X0119381Y0052504D01*
X0120137Y0053260D01*
X0120546Y0054249D01*
X0120546Y0055318D01*
X0120137Y0056307D01*
X0119857Y0056586D01*
X0119857Y0058483D01*
X0123083Y0058483D01*
X0123083Y0050283D01*
X0172083Y0050283D01*
X0172083Y0065883D01*
X0165083Y0065883D01*
X0165083Y0071483D01*
X0165083Y0071057D02*
X0176448Y0071057D01*
X0176448Y0069458D02*
X0165083Y0069458D01*
X0165083Y0067860D02*
X0176448Y0067860D01*
X0176448Y0066261D02*
X0165083Y0066261D01*
X0172083Y0064663D02*
X0176448Y0064663D01*
X0176448Y0063064D02*
X0172083Y0063064D01*
X0172083Y0061466D02*
X0176448Y0061466D01*
X0176448Y0059867D02*
X0172083Y0059867D01*
X0172083Y0058269D02*
X0176448Y0058269D01*
X0176448Y0056670D02*
X0172083Y0056670D01*
X0172083Y0055072D02*
X0176448Y0055072D01*
X0176448Y0053473D02*
X0172083Y0053473D01*
X0172083Y0051875D02*
X0176448Y0051875D01*
X0176448Y0050276D02*
X0117083Y0050276D01*
X0117083Y0048678D02*
X0176448Y0048678D01*
X0176448Y0047079D02*
X0117083Y0047079D01*
X0117083Y0045481D02*
X0176448Y0045481D01*
X0123083Y0046283D02*
X0123083Y0049183D01*
X0121483Y0049183D01*
X0120420Y0049583D02*
X0121683Y0051633D01*
X0123083Y0051875D02*
X0117083Y0051875D01*
X0120225Y0053473D02*
X0123083Y0053473D01*
X0122233Y0053083D02*
X0122233Y0057583D01*
X0123083Y0058269D02*
X0119857Y0058269D01*
X0119857Y0056670D02*
X0123083Y0056670D01*
X0123083Y0055072D02*
X0120546Y0055072D01*
X0134433Y0120883D02*
X0134283Y0121033D01*
X0134020Y0124114D02*
X0134189Y0124283D01*
X0134333Y0127283D02*
X0134283Y0127333D01*
X0123083Y0194783D02*
X0125483Y0198343D01*
X0122023Y0198343D01*
X0121083Y0199283D01*
X0121083Y0218283D01*
D31*
X0125483Y0205824D02*
X0132083Y0205824D01*
X0123083Y0194783D02*
X0125483Y0190224D01*
X0125483Y0182743D02*
X0133083Y0182743D01*
X0140083Y0167283D01*
X0112333Y0194783D02*
X0111209Y0194843D01*
X0103335Y0208622D02*
X0102333Y0208533D01*
X0096083Y0208533D01*
X0095461Y0208622D01*
X0094833Y0208533D01*
X0088583Y0208533D01*
X0087587Y0208622D01*
X0087333Y0208533D01*
X0081083Y0208533D01*
X0079713Y0208622D01*
X0078583Y0208533D01*
X0072333Y0208533D01*
X0071839Y0208622D01*
X0071083Y0208533D01*
X0064833Y0208533D01*
X0063965Y0208622D01*
X0063583Y0208533D01*
X0057333Y0208533D01*
X0056091Y0208622D01*
X0056083Y0208533D01*
X0049833Y0208533D01*
X0048217Y0208622D01*
X0047333Y0208533D01*
X0041083Y0208533D01*
X0040343Y0208622D01*
X0039833Y0208783D01*
X0031083Y0208783D01*
X0028583Y0212283D01*
X0040343Y0090512D02*
X0041083Y0089783D01*
X0041083Y0081283D01*
X0104483Y0065146D02*
X0106383Y0061183D01*
X0109983Y0057583D01*
X0111333Y0057583D01*
X0111358Y0057680D01*
X0120807Y0057680D02*
X0122233Y0057583D01*
X0122233Y0053083D02*
X0121683Y0051633D01*
X0120420Y0049583D02*
X0121483Y0049183D01*
X0134020Y0079283D02*
X0134020Y0083169D01*
X0134020Y0086319D01*
X0134020Y0089469D01*
X0134083Y0089283D01*
X0134083Y0091618D01*
X0152917Y0091383D02*
X0152917Y0089469D01*
X0152917Y0086319D01*
X0152917Y0083169D01*
X0139083Y0229283D02*
X0139083Y0234283D01*
D32*
X0123083Y0194783D02*
X0112333Y0194783D01*
D33*
X0101083Y0201283D03*
X0097083Y0162283D03*
X0094083Y0154883D03*
X0094083Y0147283D03*
X0132083Y0141283D03*
X0137683Y0145483D03*
X0140283Y0154883D03*
X0145483Y0155483D03*
X0143083Y0209283D03*
X0161083Y0098283D03*
X0167283Y0062083D03*
X0167283Y0054483D03*
X0130083Y0065283D03*
X0130083Y0070083D03*
X0125483Y0070083D03*
X0125483Y0065283D03*
X0118483Y0064283D03*
X0116083Y0062283D03*
X0113683Y0064283D03*
X0116083Y0066283D03*
X0113683Y0074283D03*
X0107083Y0077283D03*
X0099083Y0065283D03*
X0095083Y0068283D03*
X0095083Y0073283D03*
X0090883Y0082283D03*
X0079683Y0082883D03*
X0063965Y0080283D03*
X0102483Y0060683D03*
X0107083Y0060683D03*
X0107083Y0056883D03*
X0107083Y0053083D03*
X0107083Y0049283D03*
X0107083Y0045283D03*
X0114308Y0054783D03*
X0117857Y0054783D03*
X0127083Y0053483D03*
X0127083Y0057083D03*
X0127083Y0086483D03*
X0122683Y0086483D03*
X0118683Y0086483D03*
D34*
X0152917Y0091383D02*
X0152917Y0092618D01*
D35*
X0152917Y0083169D02*
X0156883Y0079683D01*
X0163083Y0079683D01*
X0163083Y0079882D01*
D36*
X0134083Y0091618D02*
X0134020Y0092618D01*
D37*
X0167883Y0090883D03*
X0167883Y0105883D03*
X0140083Y0167283D03*
X0139083Y0234283D03*
X0172083Y0234283D03*
X0020083Y0223283D03*
X0014083Y0219283D03*
X0011083Y0048283D03*
M02*
