G75*
%MOIN*%
%OFA0B0*%
%FSLAX25Y25*%
%IPPOS*%
%LPD*%
%AMOC8*
5,1,8,0,0,1.08239X$1,22.5*
%
%ADD10C,0.00000*%
%ADD11C,0.00300*%
%ADD12C,0.00800*%
%ADD13C,0.00600*%
D10*
X0006083Y0042283D02*
X0006083Y0214207D01*
X0006080Y0214441D01*
X0006072Y0214675D01*
X0006058Y0214909D01*
X0006038Y0215143D01*
X0006013Y0215376D01*
X0005983Y0215608D01*
X0005947Y0215839D01*
X0005905Y0216070D01*
X0005858Y0216299D01*
X0005806Y0216528D01*
X0005748Y0216755D01*
X0005684Y0216980D01*
X0005616Y0217204D01*
X0005542Y0217426D01*
X0005462Y0217647D01*
X0005378Y0217865D01*
X0005288Y0218082D01*
X0005194Y0218296D01*
X0005094Y0218508D01*
X0004989Y0218717D01*
X0004879Y0218924D01*
X0004764Y0219129D01*
X0004645Y0219330D01*
X0004520Y0219529D01*
X0004391Y0219724D01*
X0004258Y0219917D01*
X0004120Y0220106D01*
X0003977Y0220292D01*
X0003830Y0220474D01*
X0003679Y0220653D01*
X0003523Y0220828D01*
X0003364Y0220999D01*
X0003200Y0221167D01*
X0001083Y0226278D02*
X0001083Y0239134D01*
X0178248Y0239134D01*
X0178248Y0042283D01*
X0006083Y0042283D01*
X0135496Y0133957D02*
X0135498Y0134034D01*
X0135504Y0134110D01*
X0135514Y0134186D01*
X0135528Y0134261D01*
X0135545Y0134336D01*
X0135567Y0134409D01*
X0135592Y0134482D01*
X0135622Y0134553D01*
X0135654Y0134622D01*
X0135691Y0134689D01*
X0135730Y0134755D01*
X0135773Y0134818D01*
X0135820Y0134879D01*
X0135869Y0134938D01*
X0135922Y0134994D01*
X0135977Y0135047D01*
X0136035Y0135097D01*
X0136095Y0135144D01*
X0136158Y0135188D01*
X0136223Y0135229D01*
X0136290Y0135266D01*
X0136359Y0135300D01*
X0136429Y0135330D01*
X0136501Y0135356D01*
X0136575Y0135378D01*
X0136649Y0135397D01*
X0136724Y0135412D01*
X0136800Y0135423D01*
X0136876Y0135430D01*
X0136953Y0135433D01*
X0137029Y0135432D01*
X0137106Y0135427D01*
X0137182Y0135418D01*
X0137258Y0135405D01*
X0137332Y0135388D01*
X0137406Y0135368D01*
X0137479Y0135343D01*
X0137550Y0135315D01*
X0137620Y0135283D01*
X0137688Y0135248D01*
X0137754Y0135209D01*
X0137818Y0135167D01*
X0137879Y0135121D01*
X0137939Y0135072D01*
X0137995Y0135021D01*
X0138049Y0134966D01*
X0138100Y0134909D01*
X0138148Y0134849D01*
X0138193Y0134787D01*
X0138234Y0134722D01*
X0138272Y0134656D01*
X0138307Y0134588D01*
X0138337Y0134517D01*
X0138365Y0134446D01*
X0138388Y0134373D01*
X0138408Y0134299D01*
X0138424Y0134224D01*
X0138436Y0134148D01*
X0138444Y0134072D01*
X0138448Y0133995D01*
X0138448Y0133919D01*
X0138444Y0133842D01*
X0138436Y0133766D01*
X0138424Y0133690D01*
X0138408Y0133615D01*
X0138388Y0133541D01*
X0138365Y0133468D01*
X0138337Y0133397D01*
X0138307Y0133326D01*
X0138272Y0133258D01*
X0138234Y0133192D01*
X0138193Y0133127D01*
X0138148Y0133065D01*
X0138100Y0133005D01*
X0138049Y0132948D01*
X0137995Y0132893D01*
X0137939Y0132842D01*
X0137879Y0132793D01*
X0137818Y0132747D01*
X0137754Y0132705D01*
X0137688Y0132666D01*
X0137620Y0132631D01*
X0137550Y0132599D01*
X0137479Y0132571D01*
X0137406Y0132546D01*
X0137332Y0132526D01*
X0137258Y0132509D01*
X0137182Y0132496D01*
X0137106Y0132487D01*
X0137029Y0132482D01*
X0136953Y0132481D01*
X0136876Y0132484D01*
X0136800Y0132491D01*
X0136724Y0132502D01*
X0136649Y0132517D01*
X0136575Y0132536D01*
X0136501Y0132558D01*
X0136429Y0132584D01*
X0136359Y0132614D01*
X0136290Y0132648D01*
X0136223Y0132685D01*
X0136158Y0132726D01*
X0136095Y0132770D01*
X0136035Y0132817D01*
X0135977Y0132867D01*
X0135922Y0132920D01*
X0135869Y0132976D01*
X0135820Y0133035D01*
X0135773Y0133096D01*
X0135730Y0133159D01*
X0135691Y0133225D01*
X0135654Y0133292D01*
X0135622Y0133361D01*
X0135592Y0133432D01*
X0135567Y0133505D01*
X0135545Y0133578D01*
X0135528Y0133653D01*
X0135514Y0133728D01*
X0135504Y0133804D01*
X0135498Y0133880D01*
X0135496Y0133957D01*
X0148489Y0079626D02*
X0148491Y0079703D01*
X0148497Y0079779D01*
X0148507Y0079855D01*
X0148521Y0079930D01*
X0148538Y0080005D01*
X0148560Y0080078D01*
X0148585Y0080151D01*
X0148615Y0080222D01*
X0148647Y0080291D01*
X0148684Y0080358D01*
X0148723Y0080424D01*
X0148766Y0080487D01*
X0148813Y0080548D01*
X0148862Y0080607D01*
X0148915Y0080663D01*
X0148970Y0080716D01*
X0149028Y0080766D01*
X0149088Y0080813D01*
X0149151Y0080857D01*
X0149216Y0080898D01*
X0149283Y0080935D01*
X0149352Y0080969D01*
X0149422Y0080999D01*
X0149494Y0081025D01*
X0149568Y0081047D01*
X0149642Y0081066D01*
X0149717Y0081081D01*
X0149793Y0081092D01*
X0149869Y0081099D01*
X0149946Y0081102D01*
X0150022Y0081101D01*
X0150099Y0081096D01*
X0150175Y0081087D01*
X0150251Y0081074D01*
X0150325Y0081057D01*
X0150399Y0081037D01*
X0150472Y0081012D01*
X0150543Y0080984D01*
X0150613Y0080952D01*
X0150681Y0080917D01*
X0150747Y0080878D01*
X0150811Y0080836D01*
X0150872Y0080790D01*
X0150932Y0080741D01*
X0150988Y0080690D01*
X0151042Y0080635D01*
X0151093Y0080578D01*
X0151141Y0080518D01*
X0151186Y0080456D01*
X0151227Y0080391D01*
X0151265Y0080325D01*
X0151300Y0080257D01*
X0151330Y0080186D01*
X0151358Y0080115D01*
X0151381Y0080042D01*
X0151401Y0079968D01*
X0151417Y0079893D01*
X0151429Y0079817D01*
X0151437Y0079741D01*
X0151441Y0079664D01*
X0151441Y0079588D01*
X0151437Y0079511D01*
X0151429Y0079435D01*
X0151417Y0079359D01*
X0151401Y0079284D01*
X0151381Y0079210D01*
X0151358Y0079137D01*
X0151330Y0079066D01*
X0151300Y0078995D01*
X0151265Y0078927D01*
X0151227Y0078861D01*
X0151186Y0078796D01*
X0151141Y0078734D01*
X0151093Y0078674D01*
X0151042Y0078617D01*
X0150988Y0078562D01*
X0150932Y0078511D01*
X0150872Y0078462D01*
X0150811Y0078416D01*
X0150747Y0078374D01*
X0150681Y0078335D01*
X0150613Y0078300D01*
X0150543Y0078268D01*
X0150472Y0078240D01*
X0150399Y0078215D01*
X0150325Y0078195D01*
X0150251Y0078178D01*
X0150175Y0078165D01*
X0150099Y0078156D01*
X0150022Y0078151D01*
X0149946Y0078150D01*
X0149869Y0078153D01*
X0149793Y0078160D01*
X0149717Y0078171D01*
X0149642Y0078186D01*
X0149568Y0078205D01*
X0149494Y0078227D01*
X0149422Y0078253D01*
X0149352Y0078283D01*
X0149283Y0078317D01*
X0149216Y0078354D01*
X0149151Y0078395D01*
X0149088Y0078439D01*
X0149028Y0078486D01*
X0148970Y0078536D01*
X0148915Y0078589D01*
X0148862Y0078645D01*
X0148813Y0078704D01*
X0148766Y0078765D01*
X0148723Y0078828D01*
X0148684Y0078894D01*
X0148647Y0078961D01*
X0148615Y0079030D01*
X0148585Y0079101D01*
X0148560Y0079174D01*
X0148538Y0079247D01*
X0148521Y0079322D01*
X0148507Y0079397D01*
X0148497Y0079473D01*
X0148491Y0079549D01*
X0148489Y0079626D01*
X0003199Y0221166D02*
X0003075Y0221293D01*
X0002955Y0221423D01*
X0002837Y0221556D01*
X0002723Y0221692D01*
X0002612Y0221830D01*
X0002505Y0221972D01*
X0002401Y0222115D01*
X0002300Y0222262D01*
X0002204Y0222411D01*
X0002110Y0222562D01*
X0002021Y0222715D01*
X0001936Y0222870D01*
X0001854Y0223028D01*
X0001776Y0223187D01*
X0001702Y0223349D01*
X0001632Y0223512D01*
X0001566Y0223676D01*
X0001505Y0223843D01*
X0001447Y0224010D01*
X0001393Y0224180D01*
X0001344Y0224350D01*
X0001299Y0224521D01*
X0001258Y0224694D01*
X0001221Y0224868D01*
X0001188Y0225042D01*
X0001160Y0225217D01*
X0001136Y0225393D01*
X0001117Y0225569D01*
X0001102Y0225746D01*
X0001091Y0225923D01*
X0001084Y0226101D01*
X0001082Y0226278D01*
D11*
X0034053Y0115196D02*
X0036188Y0115196D01*
X0035120Y0115196D02*
X0035120Y0111993D01*
X0035114Y0110156D02*
X0034046Y0110156D01*
X0034580Y0110156D02*
X0034580Y0106953D01*
X0035114Y0106953D02*
X0034046Y0106953D01*
X0032965Y0106953D02*
X0030830Y0106953D01*
X0029742Y0106953D02*
X0029742Y0110156D01*
X0028141Y0110156D01*
X0027607Y0109622D01*
X0027607Y0107487D01*
X0028141Y0106953D01*
X0029742Y0106953D01*
X0030283Y0104582D02*
X0030283Y0102447D01*
X0029749Y0101913D01*
X0028668Y0102447D02*
X0028134Y0101913D01*
X0026533Y0101913D01*
X0026533Y0101380D02*
X0026533Y0104049D01*
X0028668Y0104049D02*
X0028668Y0102447D01*
X0027601Y0100846D02*
X0027067Y0100846D01*
X0026533Y0101380D01*
X0029749Y0104049D02*
X0030817Y0104049D01*
X0032431Y0104049D02*
X0032431Y0101913D01*
X0031898Y0101913D02*
X0032965Y0101913D01*
X0034046Y0101913D02*
X0035114Y0101913D01*
X0034580Y0101913D02*
X0034580Y0105116D01*
X0035114Y0105116D01*
X0036728Y0105116D02*
X0036728Y0105650D01*
X0036201Y0106953D02*
X0038336Y0106953D01*
X0038336Y0110156D01*
X0039424Y0109622D02*
X0039424Y0108555D01*
X0039958Y0108021D01*
X0041559Y0108021D01*
X0041559Y0106953D02*
X0041559Y0110156D01*
X0039958Y0110156D01*
X0039424Y0109622D01*
X0038877Y0111993D02*
X0037809Y0111993D01*
X0037276Y0112527D01*
X0037276Y0115196D01*
X0039411Y0115196D02*
X0039411Y0112527D01*
X0038877Y0111993D01*
X0040498Y0112527D02*
X0040498Y0114662D01*
X0041032Y0115196D01*
X0042100Y0115196D01*
X0042633Y0114662D01*
X0042633Y0112527D01*
X0042100Y0111993D01*
X0041032Y0111993D01*
X0040498Y0112527D01*
X0042647Y0110156D02*
X0042647Y0106953D01*
X0044782Y0106953D02*
X0044782Y0110156D01*
X0043714Y0109089D01*
X0042647Y0110156D01*
X0043721Y0111993D02*
X0043721Y0115196D01*
X0043721Y0113595D02*
X0045856Y0113595D01*
X0045856Y0115196D02*
X0045856Y0111993D01*
X0045863Y0110156D02*
X0046930Y0110156D01*
X0046397Y0110156D02*
X0046397Y0106953D01*
X0046930Y0106953D02*
X0045863Y0106953D01*
X0045322Y0105650D02*
X0045322Y0105116D01*
X0045322Y0104049D02*
X0045322Y0101913D01*
X0044789Y0101913D02*
X0045856Y0101913D01*
X0046937Y0101913D02*
X0048005Y0101913D01*
X0047471Y0101913D02*
X0047471Y0105116D01*
X0048005Y0105116D01*
X0045856Y0104049D02*
X0045322Y0104049D01*
X0043174Y0104049D02*
X0042106Y0104049D01*
X0041573Y0103515D01*
X0041573Y0101913D01*
X0043174Y0101913D01*
X0043708Y0102447D01*
X0043174Y0102981D01*
X0041573Y0102981D01*
X0040485Y0101913D02*
X0040485Y0105116D01*
X0040485Y0104049D02*
X0038884Y0104049D01*
X0038350Y0103515D01*
X0038350Y0102447D01*
X0038884Y0101913D01*
X0040485Y0101913D01*
X0039961Y0099009D02*
X0041563Y0099009D01*
X0042096Y0098475D01*
X0041563Y0097941D01*
X0040495Y0097941D01*
X0039961Y0097407D01*
X0040495Y0096873D01*
X0042096Y0096873D01*
X0043177Y0096873D02*
X0044245Y0096873D01*
X0043711Y0096873D02*
X0043711Y0099009D01*
X0044245Y0099009D01*
X0043711Y0100076D02*
X0043711Y0100610D01*
X0045332Y0098475D02*
X0045332Y0096873D01*
X0045332Y0098475D02*
X0045866Y0099009D01*
X0046934Y0099009D01*
X0047468Y0098475D01*
X0048549Y0099009D02*
X0049616Y0099009D01*
X0049082Y0099542D02*
X0049082Y0097407D01*
X0048549Y0096873D01*
X0047468Y0096873D02*
X0047468Y0100076D01*
X0051231Y0095036D02*
X0051231Y0091833D01*
X0051765Y0091833D02*
X0050697Y0091833D01*
X0049616Y0092367D02*
X0049616Y0093435D01*
X0049082Y0093969D01*
X0048015Y0093969D01*
X0047481Y0093435D01*
X0047481Y0092901D01*
X0049616Y0092901D01*
X0049616Y0092367D02*
X0049082Y0091833D01*
X0048015Y0091833D01*
X0046393Y0091833D02*
X0046393Y0092367D01*
X0045860Y0092367D01*
X0045860Y0091833D01*
X0046393Y0091833D01*
X0051231Y0095036D02*
X0051765Y0095036D01*
X0052852Y0093435D02*
X0053386Y0093969D01*
X0054987Y0093969D01*
X0054987Y0095036D02*
X0054987Y0091833D01*
X0053386Y0091833D01*
X0052852Y0092367D01*
X0052852Y0093435D01*
X0054454Y0096873D02*
X0054454Y0099542D01*
X0053920Y0100076D01*
X0053920Y0098475D02*
X0054987Y0098475D01*
X0056075Y0098475D02*
X0056609Y0099009D01*
X0057676Y0099009D01*
X0058210Y0098475D01*
X0058210Y0097407D01*
X0057676Y0096873D01*
X0056609Y0096873D01*
X0056075Y0097407D01*
X0056075Y0098475D01*
X0056602Y0095570D02*
X0056602Y0095036D01*
X0056602Y0093969D02*
X0056602Y0091833D01*
X0057136Y0091833D02*
X0056068Y0091833D01*
X0056602Y0093969D02*
X0057136Y0093969D01*
X0058223Y0093969D02*
X0059825Y0093969D01*
X0060359Y0093435D01*
X0059825Y0092901D01*
X0058757Y0092901D01*
X0058223Y0092367D01*
X0058757Y0091833D01*
X0060359Y0091833D01*
X0061446Y0092367D02*
X0061980Y0092901D01*
X0063048Y0092901D01*
X0063581Y0093435D01*
X0063048Y0093969D01*
X0061446Y0093969D01*
X0061446Y0092367D02*
X0061980Y0091833D01*
X0063581Y0091833D01*
X0064669Y0092367D02*
X0064669Y0093435D01*
X0065203Y0093969D01*
X0066270Y0093969D01*
X0066804Y0093435D01*
X0066804Y0092367D01*
X0066270Y0091833D01*
X0065203Y0091833D01*
X0064669Y0092367D01*
X0067892Y0092367D02*
X0068425Y0091833D01*
X0070027Y0091833D01*
X0070027Y0090766D02*
X0070027Y0093969D01*
X0068425Y0093969D01*
X0067892Y0093435D01*
X0067892Y0092367D01*
X0067878Y0096873D02*
X0066277Y0096873D01*
X0065743Y0097407D01*
X0066277Y0097941D01*
X0067345Y0097941D01*
X0067878Y0098475D01*
X0067345Y0099009D01*
X0065743Y0099009D01*
X0064656Y0098475D02*
X0064122Y0099009D01*
X0063054Y0099009D01*
X0062520Y0098475D01*
X0062520Y0097941D01*
X0064656Y0097941D01*
X0064656Y0097407D02*
X0064656Y0098475D01*
X0064656Y0097407D02*
X0064122Y0096873D01*
X0063054Y0096873D01*
X0063591Y0101913D02*
X0063058Y0102447D01*
X0063591Y0102981D01*
X0064659Y0102981D01*
X0065193Y0103515D01*
X0064659Y0104049D01*
X0063058Y0104049D01*
X0063591Y0101913D02*
X0065193Y0101913D01*
X0066280Y0101913D02*
X0066280Y0103515D01*
X0066814Y0104049D01*
X0067348Y0103515D01*
X0067348Y0101913D01*
X0068415Y0101913D02*
X0068415Y0104049D01*
X0067882Y0104049D01*
X0067348Y0103515D01*
X0069496Y0101913D02*
X0070564Y0101913D01*
X0070030Y0101913D02*
X0070030Y0104049D01*
X0070564Y0104049D01*
X0070030Y0105116D02*
X0070030Y0105650D01*
X0069490Y0106953D02*
X0067355Y0106953D01*
X0066267Y0107487D02*
X0065733Y0106953D01*
X0064666Y0106953D01*
X0064132Y0107487D01*
X0064132Y0108021D01*
X0064666Y0108555D01*
X0065733Y0108555D01*
X0066267Y0109089D01*
X0066267Y0109622D01*
X0065733Y0110156D01*
X0064666Y0110156D01*
X0064132Y0109622D01*
X0063044Y0109622D02*
X0063044Y0109089D01*
X0062510Y0108555D01*
X0061443Y0108555D01*
X0060909Y0108021D01*
X0060909Y0107487D01*
X0061443Y0106953D01*
X0062510Y0106953D01*
X0063044Y0107487D01*
X0063044Y0109622D02*
X0062510Y0110156D01*
X0061443Y0110156D01*
X0060909Y0109622D01*
X0059821Y0110926D02*
X0058754Y0111993D01*
X0059288Y0111993D01*
X0059288Y0112527D01*
X0058754Y0112527D01*
X0058754Y0111993D01*
X0056599Y0109622D02*
X0056599Y0107487D01*
X0056065Y0106953D01*
X0054997Y0106953D01*
X0054464Y0107487D01*
X0054464Y0109622D01*
X0054997Y0110156D01*
X0056065Y0110156D01*
X0056599Y0109622D01*
X0054450Y0111993D02*
X0053383Y0113061D01*
X0052315Y0111993D01*
X0052315Y0115196D01*
X0051227Y0115196D02*
X0050160Y0115196D01*
X0050694Y0115196D02*
X0050694Y0111993D01*
X0051227Y0111993D02*
X0050160Y0111993D01*
X0048011Y0111993D02*
X0048011Y0115196D01*
X0046944Y0115196D02*
X0049079Y0115196D01*
X0051775Y0110156D02*
X0051241Y0109622D01*
X0051241Y0108555D01*
X0051775Y0108021D01*
X0053376Y0108021D01*
X0053376Y0106953D02*
X0053376Y0110156D01*
X0051775Y0110156D01*
X0052308Y0108021D02*
X0051241Y0106953D01*
X0052842Y0105116D02*
X0052842Y0101913D01*
X0053376Y0101913D02*
X0052308Y0101913D01*
X0054457Y0101913D02*
X0055524Y0101913D01*
X0054991Y0101913D02*
X0054991Y0105116D01*
X0055524Y0105116D01*
X0056612Y0103515D02*
X0056612Y0101913D01*
X0058213Y0101913D01*
X0058747Y0102447D01*
X0058213Y0102981D01*
X0056612Y0102981D01*
X0056612Y0103515D02*
X0057146Y0104049D01*
X0058213Y0104049D01*
X0053376Y0105116D02*
X0052842Y0105116D01*
X0054450Y0111993D02*
X0054450Y0115196D01*
X0060906Y0114662D02*
X0061440Y0114129D01*
X0061973Y0114662D02*
X0062507Y0114129D01*
X0061973Y0114662D02*
X0061973Y0115730D01*
X0060906Y0115730D02*
X0060906Y0114662D01*
X0063595Y0114662D02*
X0064128Y0115196D01*
X0065196Y0115196D01*
X0065730Y0114662D01*
X0065730Y0114129D01*
X0065196Y0113595D01*
X0064128Y0113595D01*
X0063595Y0113061D01*
X0063595Y0112527D01*
X0064128Y0111993D01*
X0065196Y0111993D01*
X0065730Y0112527D01*
X0066811Y0111993D02*
X0067878Y0111993D01*
X0067345Y0111993D02*
X0067345Y0115196D01*
X0067878Y0115196D02*
X0066811Y0115196D01*
X0067355Y0110156D02*
X0069490Y0110156D01*
X0069490Y0106953D01*
X0070577Y0106953D02*
X0071645Y0108021D01*
X0071111Y0108021D02*
X0072712Y0108021D01*
X0072712Y0106953D02*
X0072712Y0110156D01*
X0071111Y0110156D01*
X0070577Y0109622D01*
X0070577Y0108555D01*
X0071111Y0108021D01*
X0069490Y0108555D02*
X0068422Y0108555D01*
X0072189Y0112527D02*
X0072722Y0111993D01*
X0073790Y0111993D01*
X0074324Y0112527D01*
X0073790Y0113595D02*
X0072722Y0113595D01*
X0072189Y0113061D01*
X0072189Y0112527D01*
X0073790Y0113595D02*
X0074324Y0114129D01*
X0074324Y0114662D01*
X0073790Y0115196D01*
X0072722Y0115196D01*
X0072189Y0114662D01*
X0075411Y0114129D02*
X0075411Y0111993D01*
X0075411Y0113595D02*
X0077547Y0113595D01*
X0077547Y0114129D02*
X0077547Y0111993D01*
X0077023Y0110156D02*
X0079158Y0106953D01*
X0080246Y0106953D02*
X0082381Y0106953D01*
X0082381Y0110156D01*
X0080246Y0110156D01*
X0079158Y0110156D02*
X0077023Y0106953D01*
X0075935Y0106953D02*
X0075935Y0110156D01*
X0074334Y0110156D01*
X0073800Y0109622D01*
X0073800Y0108555D01*
X0074334Y0108021D01*
X0075935Y0108021D01*
X0075935Y0105116D02*
X0075401Y0105116D01*
X0075401Y0101913D01*
X0074868Y0101913D02*
X0075935Y0101913D01*
X0077023Y0101913D02*
X0078624Y0101913D01*
X0079158Y0102447D01*
X0079158Y0103515D01*
X0078624Y0104049D01*
X0077023Y0104049D01*
X0073787Y0102447D02*
X0073253Y0102981D01*
X0071652Y0102981D01*
X0071652Y0103515D02*
X0071652Y0101913D01*
X0073253Y0101913D01*
X0073787Y0102447D01*
X0073253Y0104049D02*
X0072185Y0104049D01*
X0071652Y0103515D01*
X0071101Y0099009D02*
X0071101Y0097407D01*
X0070567Y0096873D01*
X0068966Y0096873D01*
X0068966Y0099009D01*
X0074331Y0093969D02*
X0075398Y0093969D01*
X0074864Y0094502D02*
X0074864Y0092367D01*
X0074331Y0091833D01*
X0076486Y0091833D02*
X0076486Y0093435D01*
X0077019Y0093969D01*
X0078621Y0093969D01*
X0078621Y0091833D01*
X0079708Y0092901D02*
X0081844Y0092901D01*
X0081844Y0092367D02*
X0081844Y0093435D01*
X0081310Y0093969D01*
X0080242Y0093969D01*
X0079708Y0093435D01*
X0079708Y0092901D01*
X0080242Y0091833D02*
X0081310Y0091833D01*
X0081844Y0092367D01*
X0082925Y0091833D02*
X0083458Y0092367D01*
X0083458Y0094502D01*
X0082925Y0093969D02*
X0083992Y0093969D01*
X0085080Y0093969D02*
X0087215Y0091833D01*
X0088302Y0092901D02*
X0090438Y0092901D01*
X0090438Y0092367D02*
X0090438Y0093435D01*
X0089904Y0093969D01*
X0088836Y0093969D01*
X0088302Y0093435D01*
X0088302Y0092901D01*
X0088836Y0091833D02*
X0089904Y0091833D01*
X0090438Y0092367D01*
X0090448Y0095806D02*
X0089914Y0096340D01*
X0089914Y0099009D01*
X0091515Y0099009D01*
X0092049Y0098475D01*
X0092049Y0097407D01*
X0091515Y0096873D01*
X0089914Y0096873D01*
X0090448Y0095806D02*
X0090981Y0095806D01*
X0093137Y0096873D02*
X0093137Y0098475D01*
X0093670Y0099009D01*
X0095272Y0099009D01*
X0095272Y0096873D01*
X0096353Y0096873D02*
X0097420Y0096873D01*
X0096886Y0096873D02*
X0096886Y0099009D01*
X0097420Y0099009D01*
X0098501Y0099009D02*
X0099569Y0099009D01*
X0099035Y0099542D02*
X0099035Y0097407D01*
X0098501Y0096873D01*
X0098498Y0093969D02*
X0096896Y0093969D01*
X0095809Y0093969D02*
X0094741Y0093969D01*
X0095275Y0094502D02*
X0095275Y0092367D01*
X0094741Y0091833D01*
X0096896Y0092367D02*
X0097430Y0091833D01*
X0099032Y0091833D01*
X0098498Y0092901D02*
X0099032Y0093435D01*
X0098498Y0093969D01*
X0098498Y0092901D02*
X0097430Y0092901D01*
X0096896Y0092367D01*
X0100119Y0092901D02*
X0102254Y0092901D01*
X0102254Y0092367D02*
X0102254Y0093435D01*
X0101721Y0093969D01*
X0100653Y0093969D01*
X0100119Y0093435D01*
X0100119Y0092901D01*
X0100653Y0091833D02*
X0101721Y0091833D01*
X0102254Y0092367D01*
X0103335Y0091833D02*
X0104403Y0091833D01*
X0103869Y0091833D02*
X0103869Y0095036D01*
X0104403Y0095036D01*
X0106018Y0095036D02*
X0106018Y0091833D01*
X0106551Y0091833D02*
X0105484Y0091833D01*
X0107639Y0091833D02*
X0107639Y0093969D01*
X0106551Y0095036D02*
X0106018Y0095036D01*
X0106561Y0096873D02*
X0106028Y0097407D01*
X0106561Y0097941D01*
X0107629Y0097941D01*
X0108163Y0098475D01*
X0107629Y0099009D01*
X0106028Y0099009D01*
X0104940Y0099009D02*
X0104940Y0097407D01*
X0104406Y0096873D01*
X0102805Y0096873D01*
X0102805Y0099009D01*
X0101717Y0100076D02*
X0101183Y0100076D01*
X0101183Y0096873D01*
X0100650Y0096873D02*
X0101717Y0096873D01*
X0096886Y0100076D02*
X0096886Y0100610D01*
X0096349Y0101913D02*
X0096883Y0102447D01*
X0096883Y0103515D01*
X0096349Y0104049D01*
X0095282Y0104049D01*
X0094748Y0103515D01*
X0094748Y0102981D01*
X0096883Y0102981D01*
X0096349Y0101913D02*
X0095282Y0101913D01*
X0093660Y0101913D02*
X0093660Y0104049D01*
X0092593Y0104049D02*
X0093660Y0102981D01*
X0092593Y0104049D02*
X0092059Y0104049D01*
X0092062Y0106953D02*
X0092062Y0110156D01*
X0090975Y0110156D02*
X0090975Y0106953D01*
X0089373Y0106953D01*
X0088840Y0107487D01*
X0088840Y0109622D01*
X0089373Y0110156D01*
X0090975Y0110156D01*
X0091522Y0111993D02*
X0090988Y0112527D01*
X0090988Y0114662D01*
X0091522Y0115196D01*
X0093123Y0115196D01*
X0093123Y0111993D01*
X0091522Y0111993D01*
X0089900Y0111993D02*
X0089900Y0115196D01*
X0087765Y0115196D01*
X0086678Y0115196D02*
X0085076Y0115196D01*
X0084543Y0114662D01*
X0084543Y0112527D01*
X0085076Y0111993D01*
X0086678Y0111993D01*
X0086678Y0115196D01*
X0088833Y0113595D02*
X0089900Y0113595D01*
X0089900Y0111993D02*
X0087765Y0111993D01*
X0087218Y0107487D02*
X0087218Y0106953D01*
X0086684Y0106953D01*
X0086684Y0107487D01*
X0087218Y0107487D01*
X0086684Y0106953D02*
X0087752Y0105886D01*
X0087218Y0104049D02*
X0085617Y0104049D01*
X0085617Y0105116D02*
X0085617Y0101913D01*
X0087218Y0101913D01*
X0087752Y0102447D01*
X0087752Y0103515D01*
X0087218Y0104049D01*
X0084529Y0104049D02*
X0083995Y0104049D01*
X0083995Y0101913D01*
X0083462Y0101913D02*
X0084529Y0101913D01*
X0084536Y0100076D02*
X0085070Y0099542D01*
X0085070Y0096873D01*
X0083455Y0096873D02*
X0083455Y0099009D01*
X0083455Y0097941D02*
X0082387Y0099009D01*
X0081854Y0099009D01*
X0080769Y0098475D02*
X0080769Y0097407D01*
X0080236Y0096873D01*
X0079168Y0096873D01*
X0078634Y0097407D01*
X0078634Y0098475D01*
X0079168Y0099009D01*
X0080236Y0099009D01*
X0080769Y0098475D01*
X0077547Y0099009D02*
X0077547Y0096873D01*
X0076479Y0096873D02*
X0076479Y0098475D01*
X0075945Y0099009D01*
X0075411Y0098475D01*
X0075411Y0096873D01*
X0076479Y0098475D02*
X0077013Y0099009D01*
X0077547Y0099009D01*
X0080779Y0101913D02*
X0080246Y0102447D01*
X0080779Y0102981D01*
X0081847Y0102981D01*
X0082381Y0103515D01*
X0081847Y0104049D01*
X0080246Y0104049D01*
X0080779Y0101913D02*
X0082381Y0101913D01*
X0083995Y0105116D02*
X0083995Y0105650D01*
X0082381Y0108555D02*
X0081313Y0108555D01*
X0080232Y0114129D02*
X0079698Y0114662D01*
X0079698Y0115730D01*
X0078631Y0115730D02*
X0078631Y0114662D01*
X0079165Y0114129D01*
X0077547Y0114129D02*
X0076479Y0115196D01*
X0075411Y0114129D01*
X0088840Y0117033D02*
X0090441Y0118635D01*
X0090975Y0118101D02*
X0088840Y0120236D01*
X0090975Y0120236D02*
X0090975Y0117033D01*
X0092062Y0117567D02*
X0092596Y0117033D01*
X0093664Y0117033D01*
X0094197Y0117567D01*
X0093664Y0118635D02*
X0092596Y0118635D01*
X0092062Y0118101D01*
X0092062Y0117567D01*
X0093664Y0118635D02*
X0094197Y0119169D01*
X0094197Y0119702D01*
X0093664Y0120236D01*
X0092596Y0120236D01*
X0092062Y0119702D01*
X0095278Y0120236D02*
X0096346Y0120236D01*
X0095812Y0120236D02*
X0095812Y0117033D01*
X0096346Y0117033D02*
X0095278Y0117033D01*
X0095272Y0115196D02*
X0094204Y0115196D01*
X0094738Y0115196D02*
X0094738Y0111993D01*
X0095272Y0111993D02*
X0094204Y0111993D01*
X0094197Y0110156D02*
X0092062Y0106953D01*
X0094197Y0106953D02*
X0094197Y0110156D01*
X0095278Y0110156D02*
X0096346Y0110156D01*
X0095812Y0110156D02*
X0095812Y0106953D01*
X0096346Y0106953D02*
X0095278Y0106953D01*
X0097434Y0106953D02*
X0099035Y0108555D01*
X0099569Y0108021D02*
X0097434Y0110156D01*
X0097427Y0111993D02*
X0096359Y0113061D01*
X0096359Y0115196D01*
X0097434Y0117033D02*
X0098501Y0118101D01*
X0097967Y0118101D02*
X0099569Y0118101D01*
X0099569Y0117033D02*
X0099569Y0120236D01*
X0097967Y0120236D01*
X0097434Y0119702D01*
X0097434Y0118635D01*
X0097967Y0118101D01*
X0098494Y0115196D02*
X0098494Y0113061D01*
X0097427Y0111993D01*
X0099582Y0112527D02*
X0099582Y0114662D01*
X0100116Y0115196D01*
X0101183Y0115196D01*
X0101717Y0114662D01*
X0101717Y0112527D01*
X0101183Y0111993D01*
X0100116Y0111993D01*
X0099582Y0112527D01*
X0099569Y0110156D02*
X0099569Y0106953D01*
X0097971Y0105116D02*
X0097971Y0101913D01*
X0099572Y0101913D01*
X0100106Y0102447D01*
X0100106Y0103515D01*
X0099572Y0104049D01*
X0097971Y0104049D01*
X0101187Y0101913D02*
X0102254Y0101913D01*
X0101721Y0101913D02*
X0101721Y0105116D01*
X0102254Y0105116D01*
X0103342Y0103515D02*
X0103876Y0104049D01*
X0104943Y0104049D01*
X0105477Y0103515D01*
X0105477Y0102447D01*
X0104943Y0101913D01*
X0103876Y0101913D01*
X0103342Y0102447D01*
X0103342Y0103515D01*
X0106565Y0103515D02*
X0106565Y0101913D01*
X0106565Y0103515D02*
X0107098Y0104049D01*
X0108166Y0104049D01*
X0108700Y0103515D01*
X0108700Y0105116D02*
X0108700Y0101913D01*
X0109784Y0099009D02*
X0109250Y0098475D01*
X0109250Y0097941D01*
X0111385Y0097941D01*
X0111385Y0097407D02*
X0111385Y0098475D01*
X0110852Y0099009D01*
X0109784Y0099009D01*
X0109784Y0096873D02*
X0110852Y0096873D01*
X0111385Y0097407D01*
X0112470Y0099009D02*
X0113004Y0099009D01*
X0114071Y0097941D01*
X0114071Y0096873D02*
X0114071Y0099009D01*
X0113004Y0101913D02*
X0113537Y0102447D01*
X0113537Y0104582D01*
X0113004Y0104049D02*
X0114071Y0104049D01*
X0115159Y0103515D02*
X0115159Y0101913D01*
X0115159Y0103515D02*
X0115692Y0104049D01*
X0116760Y0104049D01*
X0117294Y0103515D01*
X0118381Y0104049D02*
X0118381Y0101380D01*
X0118915Y0100846D01*
X0119449Y0100846D01*
X0119983Y0101913D02*
X0118381Y0101913D01*
X0117294Y0101913D02*
X0117294Y0105116D01*
X0118381Y0104049D02*
X0119983Y0104049D01*
X0120517Y0103515D01*
X0120517Y0102447D01*
X0119983Y0101913D01*
X0121598Y0101913D02*
X0122665Y0101913D01*
X0122131Y0101913D02*
X0122131Y0104049D01*
X0122665Y0104049D01*
X0123749Y0104049D02*
X0124283Y0104049D01*
X0125351Y0102981D01*
X0125351Y0101913D02*
X0125351Y0104049D01*
X0126438Y0104049D02*
X0126438Y0101380D01*
X0126972Y0100846D01*
X0127506Y0100846D01*
X0128040Y0101913D02*
X0126438Y0101913D01*
X0128040Y0101913D02*
X0128573Y0102447D01*
X0128573Y0104049D01*
X0129661Y0103515D02*
X0129661Y0102447D01*
X0130195Y0101913D01*
X0131796Y0101913D01*
X0131796Y0100846D02*
X0131796Y0104049D01*
X0130195Y0104049D01*
X0129661Y0103515D01*
X0132884Y0103515D02*
X0133418Y0104049D01*
X0134485Y0104049D01*
X0135019Y0103515D01*
X0135019Y0102447D01*
X0134485Y0101913D01*
X0133418Y0101913D01*
X0132884Y0102447D01*
X0132884Y0103515D01*
X0136107Y0104049D02*
X0137708Y0104049D01*
X0138242Y0103515D01*
X0138242Y0102447D01*
X0137708Y0101913D01*
X0136107Y0101913D01*
X0137718Y0100076D02*
X0137718Y0096873D01*
X0139319Y0096873D01*
X0139853Y0097407D01*
X0139853Y0098475D01*
X0139319Y0099009D01*
X0137718Y0099009D01*
X0136097Y0099009D02*
X0135029Y0099009D01*
X0134495Y0098475D01*
X0134495Y0096873D01*
X0136097Y0096873D01*
X0136630Y0097407D01*
X0136097Y0097941D01*
X0134495Y0097941D01*
X0133408Y0096873D02*
X0133408Y0099009D01*
X0132874Y0099009D01*
X0132340Y0098475D01*
X0131806Y0099009D01*
X0131272Y0098475D01*
X0131272Y0096873D01*
X0132340Y0096873D02*
X0132340Y0098475D01*
X0130185Y0097407D02*
X0129651Y0096873D01*
X0128050Y0096873D01*
X0128050Y0098475D01*
X0128583Y0099009D01*
X0129651Y0099009D01*
X0129651Y0097941D02*
X0128050Y0097941D01*
X0126962Y0097407D02*
X0126428Y0096873D01*
X0124827Y0096873D01*
X0124827Y0096340D02*
X0124827Y0099009D01*
X0126428Y0099009D01*
X0126962Y0098475D01*
X0126962Y0097407D01*
X0125895Y0095806D02*
X0125361Y0095806D01*
X0124827Y0096340D01*
X0123739Y0097407D02*
X0123739Y0098475D01*
X0123206Y0099009D01*
X0122138Y0099009D01*
X0121604Y0098475D01*
X0121604Y0097941D01*
X0123739Y0097941D01*
X0123739Y0097407D02*
X0123206Y0096873D01*
X0122138Y0096873D01*
X0120517Y0096873D02*
X0118915Y0096873D01*
X0118381Y0097407D01*
X0118915Y0097941D01*
X0119983Y0097941D01*
X0120517Y0098475D01*
X0119983Y0099009D01*
X0118381Y0099009D01*
X0121591Y0095036D02*
X0121591Y0091833D01*
X0122672Y0091833D02*
X0123206Y0092367D01*
X0123206Y0094502D01*
X0123739Y0093969D02*
X0122672Y0093969D01*
X0121591Y0093435D02*
X0121057Y0093969D01*
X0119989Y0093969D01*
X0119456Y0093435D01*
X0119456Y0091833D01*
X0118368Y0092367D02*
X0118368Y0093435D01*
X0117834Y0093969D01*
X0116767Y0093969D01*
X0116233Y0093435D01*
X0116233Y0092901D01*
X0118368Y0092901D01*
X0118368Y0092367D02*
X0117834Y0091833D01*
X0116767Y0091833D01*
X0111923Y0093435D02*
X0110855Y0093435D01*
X0111389Y0094502D02*
X0110855Y0095036D01*
X0111389Y0094502D02*
X0111389Y0091833D01*
X0109774Y0092367D02*
X0109240Y0091833D01*
X0107639Y0091833D01*
X0109774Y0092367D02*
X0109774Y0093969D01*
X0108163Y0096873D02*
X0106561Y0096873D01*
X0107102Y0106953D02*
X0107102Y0110156D01*
X0106014Y0110156D02*
X0106014Y0109622D01*
X0104947Y0108555D01*
X0104947Y0106953D01*
X0104947Y0108555D02*
X0103879Y0109622D01*
X0103879Y0110156D01*
X0104940Y0111993D02*
X0104940Y0115196D01*
X0103339Y0115196D01*
X0102805Y0114662D01*
X0102805Y0113595D01*
X0103339Y0113061D01*
X0104940Y0113061D01*
X0103872Y0113061D02*
X0102805Y0111993D01*
X0106028Y0113595D02*
X0106561Y0113061D01*
X0108163Y0113061D01*
X0108163Y0111993D02*
X0108163Y0115196D01*
X0106561Y0115196D01*
X0106028Y0114662D01*
X0106028Y0113595D01*
X0109237Y0110156D02*
X0107102Y0106953D01*
X0109237Y0106953D02*
X0109237Y0110156D01*
X0110325Y0109089D02*
X0110325Y0106953D01*
X0110325Y0108555D02*
X0112460Y0108555D01*
X0112460Y0109089D02*
X0111392Y0110156D01*
X0110325Y0109089D01*
X0112460Y0109089D02*
X0112460Y0106953D01*
X0113007Y0111993D02*
X0112473Y0112527D01*
X0112473Y0113061D01*
X0113007Y0113595D01*
X0114074Y0113595D01*
X0114608Y0114129D01*
X0114608Y0114662D01*
X0114074Y0115196D01*
X0113007Y0115196D01*
X0112473Y0114662D01*
X0111926Y0117033D02*
X0110858Y0117033D01*
X0110325Y0117567D01*
X0110325Y0119702D01*
X0110858Y0120236D01*
X0111926Y0120236D01*
X0112460Y0119702D01*
X0112460Y0117567D01*
X0111926Y0117033D01*
X0109237Y0117033D02*
X0108169Y0118101D01*
X0107102Y0117033D01*
X0107102Y0120236D01*
X0106014Y0120236D02*
X0103879Y0117033D01*
X0103879Y0120236D01*
X0103866Y0122073D02*
X0103866Y0124209D01*
X0102264Y0124209D01*
X0101731Y0123675D01*
X0101731Y0122073D01*
X0100643Y0122073D02*
X0099042Y0122073D01*
X0098508Y0122607D01*
X0099042Y0123141D01*
X0100109Y0123141D01*
X0100643Y0123675D01*
X0100109Y0124209D01*
X0098508Y0124209D01*
X0104953Y0123675D02*
X0104953Y0123141D01*
X0107088Y0123141D01*
X0107088Y0122607D02*
X0107088Y0123675D01*
X0106555Y0124209D01*
X0105487Y0124209D01*
X0104953Y0123675D01*
X0105487Y0122073D02*
X0106555Y0122073D01*
X0107088Y0122607D01*
X0108176Y0122073D02*
X0108176Y0125276D01*
X0108176Y0124209D02*
X0109777Y0124209D01*
X0110311Y0123675D01*
X0110311Y0122607D01*
X0109777Y0122073D01*
X0108176Y0122073D01*
X0109237Y0120236D02*
X0109237Y0117033D01*
X0106014Y0117033D02*
X0106014Y0120236D01*
X0111395Y0124209D02*
X0111929Y0124209D01*
X0112997Y0123141D01*
X0112997Y0122073D02*
X0112997Y0124209D01*
X0114084Y0123675D02*
X0114618Y0124209D01*
X0115686Y0124209D01*
X0116220Y0123675D01*
X0116220Y0122607D01*
X0115686Y0122073D01*
X0114618Y0122073D01*
X0114084Y0122607D01*
X0114084Y0123675D01*
X0117307Y0124209D02*
X0117841Y0123675D01*
X0119442Y0123675D01*
X0117841Y0123675D02*
X0117307Y0123141D01*
X0117307Y0122607D01*
X0117841Y0122073D01*
X0119442Y0122073D01*
X0119442Y0125276D01*
X0117841Y0125276D01*
X0117307Y0124742D01*
X0117307Y0124209D01*
X0117304Y0120236D02*
X0116770Y0119702D01*
X0116770Y0118635D01*
X0117304Y0118101D01*
X0118905Y0118101D01*
X0117838Y0118101D02*
X0116770Y0117033D01*
X0116757Y0115196D02*
X0115689Y0115196D01*
X0116223Y0115196D02*
X0116223Y0111993D01*
X0116757Y0111993D02*
X0115689Y0111993D01*
X0114608Y0112527D02*
X0114074Y0111993D01*
X0113007Y0111993D01*
X0116770Y0110156D02*
X0118905Y0110156D01*
X0118905Y0106953D01*
X0119993Y0107487D02*
X0119993Y0109622D01*
X0120527Y0110156D01*
X0121594Y0110156D01*
X0122128Y0109622D01*
X0122128Y0107487D01*
X0121594Y0106953D01*
X0120527Y0106953D01*
X0119993Y0107487D01*
X0118905Y0108555D02*
X0117838Y0108555D01*
X0121601Y0111993D02*
X0121067Y0112527D01*
X0121067Y0114662D01*
X0121601Y0115196D01*
X0123202Y0115196D01*
X0123202Y0111993D01*
X0121601Y0111993D01*
X0124290Y0111993D02*
X0125357Y0113061D01*
X0124824Y0113061D02*
X0126425Y0113061D01*
X0126425Y0111993D02*
X0126425Y0115196D01*
X0124824Y0115196D01*
X0124290Y0114662D01*
X0124290Y0113595D01*
X0124824Y0113061D01*
X0126438Y0110156D02*
X0126438Y0109622D01*
X0127506Y0108555D01*
X0127506Y0106953D01*
X0127506Y0108555D02*
X0128573Y0109622D01*
X0128573Y0110156D01*
X0129661Y0110156D02*
X0131796Y0110156D01*
X0130729Y0110156D02*
X0130729Y0106953D01*
X0132884Y0106953D02*
X0132884Y0110156D01*
X0132337Y0111993D02*
X0131269Y0111993D01*
X0130735Y0112527D01*
X0130735Y0114662D01*
X0131269Y0115196D01*
X0132337Y0115196D01*
X0132870Y0114662D01*
X0132870Y0112527D01*
X0132337Y0111993D01*
X0133958Y0112527D02*
X0134492Y0111993D01*
X0136093Y0111993D01*
X0136093Y0115196D01*
X0134492Y0115196D01*
X0133958Y0114662D01*
X0133958Y0114129D01*
X0134492Y0113595D01*
X0136093Y0113595D01*
X0134492Y0113595D02*
X0133958Y0113061D01*
X0133958Y0112527D01*
X0135019Y0110156D02*
X0132884Y0106953D01*
X0135019Y0106953D02*
X0135019Y0110156D01*
X0136107Y0109089D02*
X0136107Y0106953D01*
X0136107Y0108555D02*
X0138242Y0108555D01*
X0138242Y0109089D02*
X0137174Y0110156D01*
X0136107Y0109089D01*
X0138242Y0109089D02*
X0138242Y0106953D01*
X0139329Y0106953D02*
X0140397Y0108021D01*
X0139863Y0108021D02*
X0141464Y0108021D01*
X0141464Y0106953D02*
X0141464Y0110156D01*
X0139863Y0110156D01*
X0139329Y0109622D01*
X0139329Y0108555D01*
X0139863Y0108021D01*
X0142552Y0108555D02*
X0142552Y0109622D01*
X0143086Y0110156D01*
X0144687Y0110156D01*
X0144687Y0106953D01*
X0144687Y0108021D02*
X0143086Y0108021D01*
X0142552Y0108555D01*
X0143620Y0108021D02*
X0142552Y0106953D01*
X0143086Y0104049D02*
X0142552Y0103515D01*
X0142552Y0102981D01*
X0144687Y0102981D01*
X0144687Y0102447D02*
X0144687Y0103515D01*
X0144153Y0104049D01*
X0143086Y0104049D01*
X0143086Y0101913D02*
X0144153Y0101913D01*
X0144687Y0102447D01*
X0145775Y0101913D02*
X0145775Y0103515D01*
X0146309Y0104049D01*
X0147376Y0104049D01*
X0147910Y0103515D01*
X0147910Y0105116D02*
X0147910Y0101913D01*
X0150065Y0101913D02*
X0150065Y0105116D01*
X0148998Y0105116D02*
X0151133Y0105116D01*
X0151133Y0106953D02*
X0150065Y0108021D01*
X0148998Y0106953D01*
X0148998Y0110156D01*
X0147910Y0109089D02*
X0146842Y0110156D01*
X0145775Y0109089D01*
X0145775Y0106953D01*
X0145775Y0108555D02*
X0147910Y0108555D01*
X0147910Y0109089D02*
X0147910Y0106953D01*
X0151133Y0106953D02*
X0151133Y0110156D01*
X0150065Y0111993D02*
X0150065Y0115196D01*
X0148998Y0115196D02*
X0151133Y0115196D01*
X0150599Y0117033D02*
X0149531Y0117033D01*
X0148998Y0117567D01*
X0148998Y0120236D01*
X0147910Y0119702D02*
X0147910Y0119169D01*
X0147376Y0118635D01*
X0146309Y0118635D01*
X0145775Y0118101D01*
X0145775Y0117567D01*
X0146309Y0117033D01*
X0147376Y0117033D01*
X0147910Y0117567D01*
X0147910Y0119702D02*
X0147376Y0120236D01*
X0146309Y0120236D01*
X0145775Y0119702D01*
X0144687Y0120236D02*
X0144687Y0117033D01*
X0142552Y0117033D01*
X0142005Y0115196D02*
X0140937Y0115196D01*
X0140404Y0114662D01*
X0140937Y0113595D02*
X0140404Y0113061D01*
X0140404Y0112527D01*
X0140937Y0111993D01*
X0142005Y0111993D01*
X0142539Y0112527D01*
X0142005Y0113595D02*
X0140937Y0113595D01*
X0142005Y0113595D02*
X0142539Y0114129D01*
X0142539Y0114662D01*
X0142005Y0115196D01*
X0143620Y0115196D02*
X0144687Y0115196D01*
X0144153Y0115196D02*
X0144153Y0111993D01*
X0143620Y0111993D02*
X0144687Y0111993D01*
X0145775Y0111993D02*
X0145775Y0115196D01*
X0145775Y0113595D02*
X0147910Y0113595D01*
X0147910Y0115196D02*
X0147910Y0111993D01*
X0150599Y0117033D02*
X0151133Y0117567D01*
X0151133Y0120236D01*
X0150065Y0122073D02*
X0151133Y0123141D01*
X0151133Y0124209D01*
X0150065Y0125276D01*
X0148984Y0123675D02*
X0148984Y0122607D01*
X0148450Y0122073D01*
X0146849Y0122073D01*
X0145761Y0122073D02*
X0144694Y0123141D01*
X0144694Y0124209D01*
X0145761Y0125276D01*
X0146849Y0124209D02*
X0148450Y0124209D01*
X0148984Y0123675D01*
X0143613Y0124742D02*
X0143079Y0125276D01*
X0142012Y0125276D01*
X0141478Y0124742D01*
X0141478Y0124209D01*
X0143613Y0122073D01*
X0141478Y0122073D01*
X0140390Y0122607D02*
X0138255Y0124742D01*
X0138255Y0122607D01*
X0138789Y0122073D01*
X0139856Y0122073D01*
X0140390Y0122607D01*
X0140390Y0124742D01*
X0139856Y0125276D01*
X0138789Y0125276D01*
X0138255Y0124742D01*
X0137167Y0124209D02*
X0136100Y0125276D01*
X0136100Y0122073D01*
X0137167Y0122073D02*
X0135032Y0122073D01*
X0133945Y0122607D02*
X0133411Y0122073D01*
X0132343Y0122073D01*
X0131810Y0122607D01*
X0131810Y0123675D01*
X0132343Y0124209D01*
X0132877Y0124209D01*
X0133945Y0123675D01*
X0133945Y0125276D01*
X0131810Y0125276D01*
X0127499Y0122607D02*
X0126965Y0122073D01*
X0126432Y0122073D01*
X0125898Y0122607D01*
X0125898Y0125276D01*
X0126432Y0125276D02*
X0125364Y0125276D01*
X0124276Y0122607D02*
X0123743Y0122607D01*
X0123743Y0122073D01*
X0124276Y0122073D01*
X0124276Y0122607D01*
X0123749Y0120236D02*
X0123216Y0119702D01*
X0123216Y0117567D01*
X0123749Y0117033D01*
X0124817Y0117033D01*
X0125351Y0117567D01*
X0125351Y0119702D01*
X0124817Y0120236D01*
X0123749Y0120236D01*
X0122128Y0120236D02*
X0122128Y0117567D01*
X0121594Y0117033D01*
X0120527Y0117033D01*
X0119993Y0117567D01*
X0119993Y0120236D01*
X0118905Y0120236D02*
X0117304Y0120236D01*
X0118905Y0120236D02*
X0118905Y0117033D01*
X0126438Y0119702D02*
X0126438Y0120236D01*
X0126438Y0119702D02*
X0127506Y0118635D01*
X0127506Y0117033D01*
X0127506Y0118635D02*
X0128573Y0119702D01*
X0128573Y0120236D01*
X0128580Y0115196D02*
X0127513Y0114129D01*
X0127513Y0111993D01*
X0127513Y0113595D02*
X0129648Y0113595D01*
X0129648Y0114129D02*
X0129648Y0111993D01*
X0129648Y0114129D02*
X0128580Y0115196D01*
X0133951Y0117033D02*
X0133951Y0120236D01*
X0132884Y0120236D02*
X0135019Y0120236D01*
X0136107Y0119169D02*
X0136107Y0117033D01*
X0136107Y0118635D02*
X0138242Y0118635D01*
X0138242Y0119169D02*
X0138242Y0117033D01*
X0138242Y0119169D02*
X0137174Y0120236D01*
X0136107Y0119169D01*
X0142552Y0120236D02*
X0144687Y0120236D01*
X0144687Y0118635D02*
X0143620Y0118635D01*
X0150065Y0100076D02*
X0150599Y0099542D01*
X0150599Y0096873D01*
X0151133Y0098475D02*
X0150065Y0098475D01*
X0148984Y0098475D02*
X0148984Y0097407D01*
X0148450Y0096873D01*
X0147383Y0096873D01*
X0146849Y0097407D01*
X0146849Y0098475D01*
X0147383Y0099009D01*
X0148450Y0099009D01*
X0148984Y0098475D01*
X0151133Y0095036D02*
X0151133Y0091833D01*
X0149531Y0091833D01*
X0148998Y0092367D01*
X0148998Y0093435D01*
X0149531Y0093969D01*
X0151133Y0093969D01*
X0147910Y0093435D02*
X0147910Y0092367D01*
X0147376Y0091833D01*
X0146309Y0091833D01*
X0145775Y0092367D01*
X0145775Y0093435D01*
X0146309Y0093969D01*
X0147376Y0093969D01*
X0147910Y0093435D01*
X0145761Y0096873D02*
X0145761Y0099009D01*
X0144694Y0099009D02*
X0145761Y0097941D01*
X0144694Y0099009D02*
X0144160Y0099009D01*
X0144153Y0093969D02*
X0143086Y0093969D01*
X0142552Y0093435D01*
X0142552Y0091833D01*
X0144153Y0091833D01*
X0144687Y0092367D01*
X0144153Y0092901D01*
X0142552Y0092901D01*
X0141464Y0092901D02*
X0140397Y0093969D01*
X0139863Y0093969D01*
X0138779Y0093435D02*
X0138245Y0093969D01*
X0136644Y0093969D01*
X0136644Y0095036D02*
X0136644Y0091833D01*
X0138245Y0091833D01*
X0138779Y0092367D01*
X0138779Y0093435D01*
X0141464Y0093969D02*
X0141464Y0091833D01*
X0132333Y0093969D02*
X0131266Y0093969D01*
X0131800Y0094502D02*
X0131800Y0092367D01*
X0131266Y0091833D01*
X0130185Y0092367D02*
X0129651Y0091833D01*
X0128583Y0091833D01*
X0128050Y0092367D01*
X0128050Y0093435D01*
X0128583Y0093969D01*
X0129651Y0093969D01*
X0130185Y0093435D01*
X0130185Y0092367D01*
X0130185Y0097407D02*
X0129651Y0097941D01*
X0122131Y0105116D02*
X0122131Y0105650D01*
X0087215Y0093969D02*
X0085080Y0091833D01*
X0085603Y0098475D02*
X0084536Y0098475D01*
X0077083Y0075346D02*
X0077083Y0073211D01*
X0080285Y0073211D01*
X0080285Y0072123D02*
X0080285Y0069988D01*
X0077083Y0069988D01*
X0077083Y0072123D01*
X0078684Y0071056D02*
X0078684Y0069988D01*
X0078150Y0068900D02*
X0077616Y0068900D01*
X0077083Y0068367D01*
X0077083Y0067299D01*
X0077616Y0066765D01*
X0078684Y0067299D02*
X0078684Y0068367D01*
X0078150Y0068900D01*
X0079752Y0068900D02*
X0080285Y0068367D01*
X0080285Y0067299D01*
X0079752Y0066765D01*
X0079218Y0066765D01*
X0078684Y0067299D01*
X0080285Y0065678D02*
X0077083Y0065678D01*
X0077083Y0063542D02*
X0080285Y0063542D01*
X0079218Y0064610D01*
X0080285Y0065678D01*
X0083883Y0067099D02*
X0083883Y0068167D01*
X0084416Y0068700D01*
X0085484Y0068700D01*
X0085484Y0067633D01*
X0086552Y0068700D02*
X0087085Y0068167D01*
X0087085Y0067099D01*
X0086552Y0066565D01*
X0084416Y0066565D01*
X0083883Y0067099D01*
X0083883Y0069788D02*
X0087085Y0069788D01*
X0083883Y0071923D01*
X0087085Y0071923D01*
X0087085Y0073011D02*
X0087085Y0074612D01*
X0086552Y0075146D01*
X0084416Y0075146D01*
X0083883Y0074612D01*
X0083883Y0073011D01*
X0087085Y0073011D01*
X0073685Y0073211D02*
X0073685Y0075346D01*
X0073685Y0074278D02*
X0070483Y0074278D01*
X0070483Y0072123D02*
X0070483Y0069988D01*
X0073685Y0069988D01*
X0073685Y0072123D01*
X0072084Y0071056D02*
X0072084Y0069988D01*
X0071550Y0068900D02*
X0072084Y0068367D01*
X0072084Y0067299D01*
X0072618Y0066765D01*
X0073152Y0066765D01*
X0073685Y0067299D01*
X0073685Y0068367D01*
X0073152Y0068900D01*
X0071550Y0068900D02*
X0071016Y0068900D01*
X0070483Y0068367D01*
X0070483Y0067299D01*
X0071016Y0066765D01*
X0070483Y0065678D02*
X0070483Y0063542D01*
X0073685Y0063542D01*
X0073685Y0065678D01*
X0072084Y0064610D02*
X0072084Y0063542D01*
X0072084Y0062455D02*
X0071550Y0061921D01*
X0071550Y0060320D01*
X0071550Y0061387D02*
X0070483Y0062455D01*
X0072084Y0062455D02*
X0073152Y0062455D01*
X0073685Y0061921D01*
X0073685Y0060320D01*
X0070483Y0060320D01*
X0070483Y0059232D02*
X0073685Y0059232D01*
X0073685Y0057097D02*
X0070483Y0059232D01*
X0070483Y0057097D02*
X0073685Y0057097D01*
X0073267Y0051136D02*
X0072733Y0050602D01*
X0074868Y0048467D01*
X0074334Y0047933D01*
X0073267Y0047933D01*
X0072733Y0048467D01*
X0072733Y0050602D01*
X0073267Y0051136D02*
X0074334Y0051136D01*
X0074868Y0050602D01*
X0074868Y0048467D01*
X0075956Y0048467D02*
X0075956Y0050602D01*
X0078091Y0048467D01*
X0077557Y0047933D01*
X0076489Y0047933D01*
X0075956Y0048467D01*
X0078091Y0048467D02*
X0078091Y0050602D01*
X0077557Y0051136D01*
X0076489Y0051136D01*
X0075956Y0050602D01*
X0079178Y0050069D02*
X0081314Y0047933D01*
X0082401Y0047933D02*
X0084536Y0047933D01*
X0082401Y0050069D01*
X0082401Y0050602D01*
X0082935Y0051136D01*
X0084002Y0051136D01*
X0084536Y0050602D01*
X0085624Y0050602D02*
X0085624Y0049535D01*
X0086158Y0049001D01*
X0087759Y0049001D01*
X0087759Y0047933D02*
X0087759Y0051136D01*
X0086158Y0051136D01*
X0085624Y0050602D01*
X0088847Y0051136D02*
X0088847Y0047933D01*
X0090982Y0047933D02*
X0090982Y0051136D01*
X0089914Y0050069D01*
X0088847Y0051136D01*
X0081314Y0050069D02*
X0079178Y0047933D01*
X0068423Y0047933D02*
X0067355Y0047933D01*
X0067889Y0047933D02*
X0067889Y0051136D01*
X0068423Y0051136D02*
X0067355Y0051136D01*
X0066274Y0050069D02*
X0064673Y0050069D01*
X0064139Y0049535D01*
X0064139Y0047933D01*
X0062517Y0048467D02*
X0062517Y0050602D01*
X0061984Y0050069D02*
X0063051Y0050069D01*
X0062517Y0048467D02*
X0061984Y0047933D01*
X0060903Y0048467D02*
X0060903Y0049535D01*
X0060369Y0050069D01*
X0059301Y0050069D01*
X0058768Y0049535D01*
X0058768Y0049001D01*
X0060903Y0049001D01*
X0060903Y0048467D02*
X0060369Y0047933D01*
X0059301Y0047933D01*
X0057680Y0047933D02*
X0057680Y0050069D01*
X0057680Y0049001D02*
X0056612Y0050069D01*
X0056079Y0050069D01*
X0054994Y0050069D02*
X0054994Y0047933D01*
X0052859Y0047933D02*
X0052859Y0049535D01*
X0053393Y0050069D01*
X0054994Y0050069D01*
X0051772Y0048467D02*
X0051238Y0049001D01*
X0049637Y0049001D01*
X0049637Y0049535D02*
X0049637Y0047933D01*
X0051238Y0047933D01*
X0051772Y0048467D01*
X0051238Y0050069D02*
X0050170Y0050069D01*
X0049637Y0049535D01*
X0048549Y0051136D02*
X0048015Y0051136D01*
X0048015Y0047933D01*
X0048549Y0047933D02*
X0047481Y0047933D01*
X0043178Y0047933D02*
X0043178Y0051136D01*
X0042110Y0049001D02*
X0041043Y0047933D01*
X0041043Y0051136D01*
X0039955Y0050069D02*
X0039421Y0050069D01*
X0039421Y0047933D01*
X0039955Y0047933D02*
X0038887Y0047933D01*
X0037806Y0047933D02*
X0037806Y0051136D01*
X0035671Y0051136D01*
X0034584Y0050069D02*
X0034050Y0050069D01*
X0034050Y0047933D01*
X0034584Y0047933D02*
X0033516Y0047933D01*
X0034050Y0051136D02*
X0034050Y0051670D01*
X0036739Y0049535D02*
X0037806Y0049535D01*
X0039421Y0051136D02*
X0039421Y0051670D01*
X0042110Y0049001D02*
X0043178Y0047933D01*
X0029212Y0050069D02*
X0028145Y0047933D01*
X0027077Y0050069D01*
X0025990Y0050069D02*
X0024922Y0051136D01*
X0024922Y0047933D01*
X0023855Y0047933D02*
X0025990Y0047933D01*
X0022767Y0047933D02*
X0022233Y0047933D01*
X0022233Y0048467D01*
X0022767Y0048467D01*
X0022767Y0047933D01*
X0021156Y0047933D02*
X0019020Y0047933D01*
X0020088Y0047933D02*
X0020088Y0051136D01*
X0021156Y0050069D01*
X0036195Y0101913D02*
X0037262Y0101913D01*
X0036728Y0101913D02*
X0036728Y0104049D01*
X0037262Y0104049D01*
X0032965Y0104049D02*
X0032431Y0104049D01*
X0032431Y0105116D02*
X0032431Y0105650D01*
X0032965Y0106953D02*
X0032965Y0110156D01*
X0030830Y0110156D01*
X0031898Y0108555D02*
X0032965Y0108555D01*
X0026520Y0107487D02*
X0025986Y0107487D01*
X0025986Y0106953D01*
X0026520Y0106953D01*
X0026520Y0107487D01*
X0066274Y0050069D02*
X0066274Y0047933D01*
D12*
X0046547Y0059283D02*
X0046841Y0059915D01*
X0047022Y0060589D01*
X0047083Y0061283D01*
X0047083Y0065283D01*
X0047022Y0065978D01*
X0046841Y0066652D01*
X0046547Y0067283D01*
X0046147Y0067855D01*
X0045654Y0068348D01*
X0045083Y0068748D01*
X0044451Y0069042D01*
X0043777Y0069223D01*
X0043083Y0069283D01*
X0025083Y0069283D01*
X0024388Y0069223D01*
X0023715Y0069042D01*
X0023083Y0068748D01*
X0022512Y0068348D01*
X0022019Y0067855D01*
X0021619Y0067283D01*
X0021324Y0066652D01*
X0021143Y0065978D01*
X0021083Y0065283D01*
X0021083Y0061283D01*
X0021143Y0060589D01*
X0021324Y0059915D01*
X0021619Y0059283D01*
X0022019Y0058712D01*
X0022512Y0058219D01*
X0023083Y0057819D01*
X0023715Y0057525D01*
X0024388Y0057344D01*
X0025083Y0057283D01*
X0043083Y0057283D01*
X0043777Y0057344D01*
X0044451Y0057525D01*
X0045083Y0057819D01*
X0045654Y0058219D01*
X0046147Y0058712D01*
X0046547Y0059283D01*
X0046385Y0059052D02*
X0021781Y0059052D01*
X0021354Y0059851D02*
X0046811Y0059851D01*
X0047027Y0060649D02*
X0021138Y0060649D01*
X0021083Y0061448D02*
X0047083Y0061448D01*
X0047083Y0062246D02*
X0021083Y0062246D01*
X0021083Y0063045D02*
X0047083Y0063045D01*
X0047083Y0063843D02*
X0021083Y0063843D01*
X0021083Y0064642D02*
X0047083Y0064642D01*
X0047069Y0065440D02*
X0021096Y0065440D01*
X0021213Y0066239D02*
X0046952Y0066239D01*
X0046662Y0067037D02*
X0021504Y0067037D01*
X0022005Y0067836D02*
X0046160Y0067836D01*
X0045244Y0068634D02*
X0022921Y0068634D01*
X0022477Y0058254D02*
X0045688Y0058254D01*
X0044191Y0057455D02*
X0023974Y0057455D01*
D13*
X0017783Y0061719D02*
X0013512Y0061719D01*
X0013512Y0063854D02*
X0014580Y0063854D01*
X0017783Y0063854D01*
X0016715Y0065989D02*
X0016715Y0059583D01*
X0014580Y0059583D02*
X0014580Y0065989D01*
M02*
