G75*
%MOIN*%
%OFA0B0*%
%FSLAX25Y25*%
%IPPOS*%
%LPD*%
%AMOC8*
5,1,8,0,0,1.08239X$1,22.5*
%
%ADD10C,0.00000*%
%ADD11C,0.21000*%
%ADD12C,0.12268*%
%ADD13C,0.03937*%
%ADD14C,0.02578*%
%ADD15C,0.01200*%
%ADD16R,0.02578X0.02578*%
D10*
X0006083Y0042283D02*
X0006083Y0214207D01*
X0006080Y0214441D01*
X0006072Y0214675D01*
X0006058Y0214909D01*
X0006038Y0215143D01*
X0006013Y0215376D01*
X0005983Y0215608D01*
X0005947Y0215839D01*
X0005905Y0216070D01*
X0005858Y0216299D01*
X0005806Y0216528D01*
X0005748Y0216755D01*
X0005684Y0216980D01*
X0005616Y0217204D01*
X0005542Y0217426D01*
X0005462Y0217647D01*
X0005378Y0217865D01*
X0005288Y0218082D01*
X0005194Y0218296D01*
X0005094Y0218508D01*
X0004989Y0218717D01*
X0004879Y0218924D01*
X0004764Y0219129D01*
X0004645Y0219330D01*
X0004520Y0219529D01*
X0004391Y0219724D01*
X0004258Y0219917D01*
X0004120Y0220106D01*
X0003977Y0220292D01*
X0003830Y0220474D01*
X0003679Y0220653D01*
X0003523Y0220828D01*
X0003364Y0220999D01*
X0003200Y0221167D01*
X0001083Y0226278D02*
X0001083Y0239134D01*
X0178248Y0239134D01*
X0178248Y0042283D01*
X0006083Y0042283D01*
X0135496Y0133957D02*
X0135498Y0134034D01*
X0135504Y0134110D01*
X0135514Y0134186D01*
X0135528Y0134261D01*
X0135545Y0134336D01*
X0135567Y0134409D01*
X0135592Y0134482D01*
X0135622Y0134553D01*
X0135654Y0134622D01*
X0135691Y0134689D01*
X0135730Y0134755D01*
X0135773Y0134818D01*
X0135820Y0134879D01*
X0135869Y0134938D01*
X0135922Y0134994D01*
X0135977Y0135047D01*
X0136035Y0135097D01*
X0136095Y0135144D01*
X0136158Y0135188D01*
X0136223Y0135229D01*
X0136290Y0135266D01*
X0136359Y0135300D01*
X0136429Y0135330D01*
X0136501Y0135356D01*
X0136575Y0135378D01*
X0136649Y0135397D01*
X0136724Y0135412D01*
X0136800Y0135423D01*
X0136876Y0135430D01*
X0136953Y0135433D01*
X0137029Y0135432D01*
X0137106Y0135427D01*
X0137182Y0135418D01*
X0137258Y0135405D01*
X0137332Y0135388D01*
X0137406Y0135368D01*
X0137479Y0135343D01*
X0137550Y0135315D01*
X0137620Y0135283D01*
X0137688Y0135248D01*
X0137754Y0135209D01*
X0137818Y0135167D01*
X0137879Y0135121D01*
X0137939Y0135072D01*
X0137995Y0135021D01*
X0138049Y0134966D01*
X0138100Y0134909D01*
X0138148Y0134849D01*
X0138193Y0134787D01*
X0138234Y0134722D01*
X0138272Y0134656D01*
X0138307Y0134588D01*
X0138337Y0134517D01*
X0138365Y0134446D01*
X0138388Y0134373D01*
X0138408Y0134299D01*
X0138424Y0134224D01*
X0138436Y0134148D01*
X0138444Y0134072D01*
X0138448Y0133995D01*
X0138448Y0133919D01*
X0138444Y0133842D01*
X0138436Y0133766D01*
X0138424Y0133690D01*
X0138408Y0133615D01*
X0138388Y0133541D01*
X0138365Y0133468D01*
X0138337Y0133397D01*
X0138307Y0133326D01*
X0138272Y0133258D01*
X0138234Y0133192D01*
X0138193Y0133127D01*
X0138148Y0133065D01*
X0138100Y0133005D01*
X0138049Y0132948D01*
X0137995Y0132893D01*
X0137939Y0132842D01*
X0137879Y0132793D01*
X0137818Y0132747D01*
X0137754Y0132705D01*
X0137688Y0132666D01*
X0137620Y0132631D01*
X0137550Y0132599D01*
X0137479Y0132571D01*
X0137406Y0132546D01*
X0137332Y0132526D01*
X0137258Y0132509D01*
X0137182Y0132496D01*
X0137106Y0132487D01*
X0137029Y0132482D01*
X0136953Y0132481D01*
X0136876Y0132484D01*
X0136800Y0132491D01*
X0136724Y0132502D01*
X0136649Y0132517D01*
X0136575Y0132536D01*
X0136501Y0132558D01*
X0136429Y0132584D01*
X0136359Y0132614D01*
X0136290Y0132648D01*
X0136223Y0132685D01*
X0136158Y0132726D01*
X0136095Y0132770D01*
X0136035Y0132817D01*
X0135977Y0132867D01*
X0135922Y0132920D01*
X0135869Y0132976D01*
X0135820Y0133035D01*
X0135773Y0133096D01*
X0135730Y0133159D01*
X0135691Y0133225D01*
X0135654Y0133292D01*
X0135622Y0133361D01*
X0135592Y0133432D01*
X0135567Y0133505D01*
X0135545Y0133578D01*
X0135528Y0133653D01*
X0135514Y0133728D01*
X0135504Y0133804D01*
X0135498Y0133880D01*
X0135496Y0133957D01*
X0148489Y0079626D02*
X0148491Y0079703D01*
X0148497Y0079779D01*
X0148507Y0079855D01*
X0148521Y0079930D01*
X0148538Y0080005D01*
X0148560Y0080078D01*
X0148585Y0080151D01*
X0148615Y0080222D01*
X0148647Y0080291D01*
X0148684Y0080358D01*
X0148723Y0080424D01*
X0148766Y0080487D01*
X0148813Y0080548D01*
X0148862Y0080607D01*
X0148915Y0080663D01*
X0148970Y0080716D01*
X0149028Y0080766D01*
X0149088Y0080813D01*
X0149151Y0080857D01*
X0149216Y0080898D01*
X0149283Y0080935D01*
X0149352Y0080969D01*
X0149422Y0080999D01*
X0149494Y0081025D01*
X0149568Y0081047D01*
X0149642Y0081066D01*
X0149717Y0081081D01*
X0149793Y0081092D01*
X0149869Y0081099D01*
X0149946Y0081102D01*
X0150022Y0081101D01*
X0150099Y0081096D01*
X0150175Y0081087D01*
X0150251Y0081074D01*
X0150325Y0081057D01*
X0150399Y0081037D01*
X0150472Y0081012D01*
X0150543Y0080984D01*
X0150613Y0080952D01*
X0150681Y0080917D01*
X0150747Y0080878D01*
X0150811Y0080836D01*
X0150872Y0080790D01*
X0150932Y0080741D01*
X0150988Y0080690D01*
X0151042Y0080635D01*
X0151093Y0080578D01*
X0151141Y0080518D01*
X0151186Y0080456D01*
X0151227Y0080391D01*
X0151265Y0080325D01*
X0151300Y0080257D01*
X0151330Y0080186D01*
X0151358Y0080115D01*
X0151381Y0080042D01*
X0151401Y0079968D01*
X0151417Y0079893D01*
X0151429Y0079817D01*
X0151437Y0079741D01*
X0151441Y0079664D01*
X0151441Y0079588D01*
X0151437Y0079511D01*
X0151429Y0079435D01*
X0151417Y0079359D01*
X0151401Y0079284D01*
X0151381Y0079210D01*
X0151358Y0079137D01*
X0151330Y0079066D01*
X0151300Y0078995D01*
X0151265Y0078927D01*
X0151227Y0078861D01*
X0151186Y0078796D01*
X0151141Y0078734D01*
X0151093Y0078674D01*
X0151042Y0078617D01*
X0150988Y0078562D01*
X0150932Y0078511D01*
X0150872Y0078462D01*
X0150811Y0078416D01*
X0150747Y0078374D01*
X0150681Y0078335D01*
X0150613Y0078300D01*
X0150543Y0078268D01*
X0150472Y0078240D01*
X0150399Y0078215D01*
X0150325Y0078195D01*
X0150251Y0078178D01*
X0150175Y0078165D01*
X0150099Y0078156D01*
X0150022Y0078151D01*
X0149946Y0078150D01*
X0149869Y0078153D01*
X0149793Y0078160D01*
X0149717Y0078171D01*
X0149642Y0078186D01*
X0149568Y0078205D01*
X0149494Y0078227D01*
X0149422Y0078253D01*
X0149352Y0078283D01*
X0149283Y0078317D01*
X0149216Y0078354D01*
X0149151Y0078395D01*
X0149088Y0078439D01*
X0149028Y0078486D01*
X0148970Y0078536D01*
X0148915Y0078589D01*
X0148862Y0078645D01*
X0148813Y0078704D01*
X0148766Y0078765D01*
X0148723Y0078828D01*
X0148684Y0078894D01*
X0148647Y0078961D01*
X0148615Y0079030D01*
X0148585Y0079101D01*
X0148560Y0079174D01*
X0148538Y0079247D01*
X0148521Y0079322D01*
X0148507Y0079397D01*
X0148497Y0079473D01*
X0148491Y0079549D01*
X0148489Y0079626D01*
X0003199Y0221166D02*
X0003075Y0221293D01*
X0002955Y0221423D01*
X0002837Y0221556D01*
X0002723Y0221692D01*
X0002612Y0221830D01*
X0002505Y0221972D01*
X0002401Y0222115D01*
X0002300Y0222262D01*
X0002204Y0222411D01*
X0002110Y0222562D01*
X0002021Y0222715D01*
X0001936Y0222870D01*
X0001854Y0223028D01*
X0001776Y0223187D01*
X0001702Y0223349D01*
X0001632Y0223512D01*
X0001566Y0223676D01*
X0001505Y0223843D01*
X0001447Y0224010D01*
X0001393Y0224180D01*
X0001344Y0224350D01*
X0001299Y0224521D01*
X0001258Y0224694D01*
X0001221Y0224868D01*
X0001188Y0225042D01*
X0001160Y0225217D01*
X0001136Y0225393D01*
X0001117Y0225569D01*
X0001102Y0225746D01*
X0001091Y0225923D01*
X0001084Y0226101D01*
X0001082Y0226278D01*
D11*
X0146618Y0181004D03*
D12*
X0012500Y0230020D03*
D13*
X0072083Y0079683D03*
X0078683Y0079683D03*
X0085483Y0079683D03*
D14*
X0090883Y0082283D03*
X0095083Y0073283D03*
X0095083Y0068283D03*
X0099083Y0065283D03*
X0102483Y0060683D03*
X0107083Y0060683D03*
X0107083Y0056883D03*
X0107083Y0053083D03*
X0107083Y0049283D03*
X0107083Y0045283D03*
X0114308Y0054783D03*
X0117857Y0054783D03*
X0116083Y0062283D03*
X0113683Y0064283D03*
X0116083Y0066283D03*
X0118483Y0064283D03*
X0125483Y0065283D03*
X0125483Y0070083D03*
X0130083Y0070083D03*
X0130083Y0065283D03*
X0127083Y0057083D03*
X0127083Y0053483D03*
X0113683Y0074283D03*
X0107083Y0077283D03*
X0118683Y0086483D03*
X0122683Y0086483D03*
X0127083Y0086483D03*
X0161083Y0098283D03*
X0167283Y0062083D03*
X0167283Y0054483D03*
X0132083Y0141283D03*
X0137683Y0145483D03*
X0140283Y0154883D03*
X0145483Y0155483D03*
X0143083Y0209283D03*
X0101083Y0201283D03*
X0097083Y0162283D03*
X0094083Y0154883D03*
X0094083Y0147283D03*
X0079683Y0082883D03*
X0063965Y0080283D03*
D15*
X0065683Y0079683D01*
X0072083Y0079683D01*
X0074769Y0077040D02*
X0075996Y0077040D01*
X0075488Y0077549D02*
X0076548Y0076489D01*
X0077933Y0075915D01*
X0079432Y0075915D01*
X0080817Y0076489D01*
X0081877Y0077549D01*
X0082451Y0078934D01*
X0082451Y0080433D01*
X0082202Y0081034D01*
X0082301Y0081134D01*
X0082772Y0082269D01*
X0082772Y0083498D01*
X0082301Y0084633D01*
X0081432Y0085502D01*
X0080297Y0085972D01*
X0079068Y0085972D01*
X0077933Y0085502D01*
X0077064Y0084633D01*
X0076594Y0083498D01*
X0076594Y0082897D01*
X0076548Y0082878D01*
X0075488Y0081818D01*
X0075383Y0081564D01*
X0075277Y0081818D01*
X0074217Y0082878D01*
X0072832Y0083452D01*
X0071333Y0083452D01*
X0069948Y0082878D01*
X0069153Y0082083D01*
X0066533Y0082083D01*
X0065714Y0082902D01*
X0064579Y0083372D01*
X0063350Y0083372D01*
X0062215Y0082902D01*
X0061346Y0082033D01*
X0060876Y0080898D01*
X0060876Y0079669D01*
X0061346Y0078534D01*
X0062215Y0077665D01*
X0063350Y0077195D01*
X0064579Y0077195D01*
X0065000Y0077369D01*
X0065205Y0077283D01*
X0065276Y0077283D01*
X0065342Y0077260D01*
X0065751Y0077283D01*
X0069153Y0077283D01*
X0069948Y0076489D01*
X0071333Y0075915D01*
X0072832Y0075915D01*
X0074217Y0076489D01*
X0075277Y0077549D01*
X0075383Y0077803D01*
X0075488Y0077549D01*
X0078683Y0079683D02*
X0079683Y0082883D01*
X0082468Y0084231D02*
X0088462Y0084231D01*
X0088264Y0084033D02*
X0087794Y0082898D01*
X0087794Y0081669D01*
X0088264Y0080534D01*
X0089133Y0079665D01*
X0090268Y0079195D01*
X0091497Y0079195D01*
X0092632Y0079665D01*
X0092851Y0079883D01*
X0105314Y0079883D01*
X0104464Y0079033D01*
X0103994Y0077898D01*
X0103994Y0076669D01*
X0104464Y0075534D01*
X0104683Y0075315D01*
X0104683Y0068639D01*
X0104647Y0068522D01*
X0104683Y0068165D01*
X0104683Y0067806D01*
X0104729Y0067693D01*
X0104741Y0067572D01*
X0104911Y0067256D01*
X0105048Y0066924D01*
X0105134Y0066838D01*
X0111235Y0055438D01*
X0111219Y0055398D01*
X0111219Y0054169D01*
X0111689Y0053034D01*
X0112558Y0052165D01*
X0113693Y0051695D01*
X0114922Y0051695D01*
X0116058Y0052165D01*
X0116083Y0052190D01*
X0116108Y0052165D01*
X0117243Y0051695D01*
X0118472Y0051695D01*
X0119607Y0052165D01*
X0120476Y0053034D01*
X0120946Y0054169D01*
X0120946Y0055398D01*
X0120476Y0056533D01*
X0120160Y0056850D01*
X0120119Y0057678D01*
X0121840Y0058883D01*
X0153045Y0058883D01*
X0153485Y0058870D01*
X0153521Y0058883D01*
X0153560Y0058883D01*
X0153967Y0059052D01*
X0154378Y0059207D01*
X0154406Y0059234D01*
X0154442Y0059249D01*
X0154753Y0059560D01*
X0162406Y0066750D01*
X0162442Y0066765D01*
X0162753Y0067076D01*
X0163074Y0067377D01*
X0163090Y0067412D01*
X0163117Y0067440D01*
X0163286Y0067846D01*
X0163467Y0068247D01*
X0163468Y0068286D01*
X0163483Y0068322D01*
X0163483Y0068762D01*
X0163496Y0069202D01*
X0163483Y0069238D01*
X0163483Y0096315D01*
X0163701Y0096534D01*
X0164172Y0097669D01*
X0164172Y0098898D01*
X0163701Y0100033D01*
X0162832Y0100902D01*
X0161697Y0101372D01*
X0160468Y0101372D01*
X0159333Y0100902D01*
X0158464Y0100033D01*
X0157994Y0098898D01*
X0157994Y0097669D01*
X0158464Y0096534D01*
X0158683Y0096315D01*
X0158683Y0069837D01*
X0152132Y0063683D01*
X0121292Y0063683D01*
X0121028Y0063730D01*
X0120819Y0063683D01*
X0120605Y0063683D01*
X0120358Y0063581D01*
X0120096Y0063523D01*
X0119921Y0063400D01*
X0119723Y0063318D01*
X0119534Y0063129D01*
X0116448Y0060966D01*
X0116200Y0060849D01*
X0116060Y0060695D01*
X0115889Y0060575D01*
X0115743Y0060345D01*
X0115559Y0060142D01*
X0115489Y0059946D01*
X0115377Y0059770D01*
X0115329Y0059501D01*
X0115237Y0059243D01*
X0115247Y0059035D01*
X0115211Y0058829D01*
X0115270Y0058563D01*
X0115297Y0058022D01*
X0109483Y0068885D01*
X0109483Y0075315D01*
X0109701Y0075534D01*
X0110172Y0076669D01*
X0110172Y0076800D01*
X0111027Y0075945D01*
X0110594Y0074898D01*
X0110594Y0073669D01*
X0111064Y0072534D01*
X0111933Y0071665D01*
X0113068Y0071195D01*
X0114297Y0071195D01*
X0115432Y0071665D01*
X0116301Y0072534D01*
X0116772Y0073669D01*
X0116772Y0074898D01*
X0116301Y0076033D01*
X0116083Y0076252D01*
X0116083Y0077161D01*
X0115717Y0078043D01*
X0110117Y0083643D01*
X0109442Y0084318D01*
X0108560Y0084683D01*
X0092851Y0084683D01*
X0092632Y0084902D01*
X0091497Y0085372D01*
X0090268Y0085372D01*
X0089133Y0084902D01*
X0088264Y0084033D01*
X0087850Y0083033D02*
X0082772Y0083033D01*
X0082592Y0081834D02*
X0087794Y0081834D01*
X0088222Y0080636D02*
X0082367Y0080636D01*
X0082451Y0079437D02*
X0089682Y0079437D01*
X0092083Y0079437D02*
X0104868Y0079437D01*
X0104135Y0078239D02*
X0082163Y0078239D01*
X0081369Y0077040D02*
X0103994Y0077040D01*
X0104336Y0075842D02*
X0008083Y0075842D01*
X0008083Y0077040D02*
X0069396Y0077040D01*
X0070321Y0083033D02*
X0065399Y0083033D01*
X0062530Y0083033D02*
X0008083Y0083033D01*
X0008083Y0084231D02*
X0076898Y0084231D01*
X0076594Y0083033D02*
X0073844Y0083033D01*
X0075261Y0081834D02*
X0075504Y0081834D01*
X0077861Y0085430D02*
X0008083Y0085430D01*
X0008083Y0086628D02*
X0158683Y0086628D01*
X0158683Y0085430D02*
X0081505Y0085430D01*
X0090883Y0082283D02*
X0108083Y0082283D01*
X0113683Y0076683D01*
X0113683Y0074283D01*
X0116014Y0072246D02*
X0158683Y0072246D01*
X0158683Y0071048D02*
X0109483Y0071048D01*
X0109483Y0072246D02*
X0111351Y0072246D01*
X0110687Y0073445D02*
X0109483Y0073445D01*
X0109483Y0074643D02*
X0110594Y0074643D01*
X0110985Y0075842D02*
X0109829Y0075842D01*
X0107083Y0077283D02*
X0107083Y0068283D01*
X0114308Y0054783D01*
X0115350Y0051872D02*
X0116816Y0051872D01*
X0118899Y0051872D02*
X0176448Y0051872D01*
X0176448Y0053070D02*
X0120491Y0053070D01*
X0120946Y0054269D02*
X0176448Y0054269D01*
X0176448Y0055467D02*
X0120918Y0055467D01*
X0120344Y0056666D02*
X0176448Y0056666D01*
X0176448Y0057864D02*
X0120385Y0057864D01*
X0117657Y0058883D02*
X0121083Y0061283D01*
X0153083Y0061283D01*
X0161083Y0068799D01*
X0161083Y0098283D01*
X0157994Y0098614D02*
X0008083Y0098614D01*
X0008083Y0099812D02*
X0158372Y0099812D01*
X0159595Y0101011D02*
X0008083Y0101011D01*
X0008083Y0102209D02*
X0176448Y0102209D01*
X0176448Y0101011D02*
X0162571Y0101011D01*
X0163793Y0099812D02*
X0176448Y0099812D01*
X0176448Y0098614D02*
X0164172Y0098614D01*
X0164066Y0097415D02*
X0176448Y0097415D01*
X0176448Y0096216D02*
X0163483Y0096216D01*
X0163483Y0095018D02*
X0176448Y0095018D01*
X0176448Y0093819D02*
X0163483Y0093819D01*
X0163483Y0092621D02*
X0176448Y0092621D01*
X0176448Y0091422D02*
X0163483Y0091422D01*
X0163483Y0090224D02*
X0176448Y0090224D01*
X0176448Y0089025D02*
X0163483Y0089025D01*
X0163483Y0087827D02*
X0176448Y0087827D01*
X0176448Y0086628D02*
X0163483Y0086628D01*
X0163483Y0085430D02*
X0176448Y0085430D01*
X0176448Y0084231D02*
X0163483Y0084231D01*
X0163483Y0083033D02*
X0176448Y0083033D01*
X0176448Y0081834D02*
X0163483Y0081834D01*
X0163483Y0080636D02*
X0176448Y0080636D01*
X0176448Y0079437D02*
X0163483Y0079437D01*
X0163483Y0078239D02*
X0176448Y0078239D01*
X0176448Y0077040D02*
X0163483Y0077040D01*
X0163483Y0075842D02*
X0176448Y0075842D01*
X0176448Y0074643D02*
X0163483Y0074643D01*
X0163483Y0073445D02*
X0176448Y0073445D01*
X0176448Y0072246D02*
X0163483Y0072246D01*
X0163483Y0071048D02*
X0176448Y0071048D01*
X0176448Y0069849D02*
X0163483Y0069849D01*
X0163483Y0068651D02*
X0176448Y0068651D01*
X0176448Y0067452D02*
X0163122Y0067452D01*
X0161878Y0066254D02*
X0176448Y0066254D01*
X0176448Y0065055D02*
X0160603Y0065055D01*
X0159327Y0063857D02*
X0176448Y0063857D01*
X0176448Y0062658D02*
X0158051Y0062658D01*
X0156775Y0061460D02*
X0176448Y0061460D01*
X0176448Y0060261D02*
X0155500Y0060261D01*
X0153995Y0059063D02*
X0176448Y0059063D01*
X0176448Y0050673D02*
X0008083Y0050673D01*
X0008083Y0049475D02*
X0176448Y0049475D01*
X0176448Y0048276D02*
X0008083Y0048276D01*
X0008083Y0047078D02*
X0176448Y0047078D01*
X0176448Y0045879D02*
X0008083Y0045879D01*
X0008083Y0044681D02*
X0176448Y0044681D01*
X0176448Y0044283D02*
X0008083Y0044283D01*
X0008083Y0215831D01*
X0007993Y0217155D01*
X0007726Y0218455D01*
X0007287Y0219708D01*
X0006683Y0220890D01*
X0005926Y0221979D01*
X0005279Y0222911D01*
X0004763Y0223921D01*
X0004387Y0224991D01*
X0004159Y0226102D01*
X0004083Y0227234D01*
X0004083Y0237283D01*
X0017083Y0237283D01*
X0029789Y0214594D01*
X0029789Y0212497D01*
X0030989Y0211296D01*
X0112688Y0211296D01*
X0113675Y0212283D01*
X0114083Y0212283D01*
X0124083Y0237283D01*
X0176448Y0237283D01*
X0176448Y0044283D01*
X0158683Y0069849D02*
X0109483Y0069849D01*
X0109608Y0068651D02*
X0157419Y0068651D01*
X0156144Y0067452D02*
X0110250Y0067452D01*
X0110891Y0066254D02*
X0154868Y0066254D01*
X0153592Y0065055D02*
X0111533Y0065055D01*
X0112174Y0063857D02*
X0152317Y0063857D01*
X0158683Y0073445D02*
X0116679Y0073445D01*
X0116772Y0074643D02*
X0158683Y0074643D01*
X0158683Y0075842D02*
X0116381Y0075842D01*
X0116083Y0077040D02*
X0147917Y0077040D01*
X0148109Y0076848D02*
X0149313Y0076350D01*
X0150616Y0076350D01*
X0151820Y0076848D01*
X0152742Y0077770D01*
X0153241Y0078974D01*
X0153241Y0080278D01*
X0152742Y0081482D01*
X0151820Y0082404D01*
X0150616Y0082902D01*
X0149313Y0082902D01*
X0148109Y0082404D01*
X0147187Y0081482D01*
X0146688Y0080278D01*
X0146688Y0078974D01*
X0147187Y0077770D01*
X0148109Y0076848D01*
X0146993Y0078239D02*
X0115521Y0078239D01*
X0114323Y0079437D02*
X0146688Y0079437D01*
X0146837Y0080636D02*
X0113124Y0080636D01*
X0111926Y0081834D02*
X0147539Y0081834D01*
X0152390Y0081834D02*
X0158683Y0081834D01*
X0158683Y0080636D02*
X0153093Y0080636D01*
X0153241Y0079437D02*
X0158683Y0079437D01*
X0158683Y0078239D02*
X0152936Y0078239D01*
X0152012Y0077040D02*
X0158683Y0077040D01*
X0158683Y0083033D02*
X0110727Y0083033D01*
X0109529Y0084231D02*
X0158683Y0084231D01*
X0158683Y0087827D02*
X0008083Y0087827D01*
X0008083Y0089025D02*
X0158683Y0089025D01*
X0158683Y0090224D02*
X0008083Y0090224D01*
X0008083Y0091422D02*
X0158683Y0091422D01*
X0158683Y0092621D02*
X0008083Y0092621D01*
X0008083Y0093819D02*
X0158683Y0093819D01*
X0158683Y0095018D02*
X0008083Y0095018D01*
X0008083Y0096216D02*
X0158683Y0096216D01*
X0158099Y0097415D02*
X0008083Y0097415D01*
X0008083Y0103408D02*
X0176448Y0103408D01*
X0176448Y0104606D02*
X0008083Y0104606D01*
X0008083Y0105805D02*
X0176448Y0105805D01*
X0176448Y0107003D02*
X0008083Y0107003D01*
X0008083Y0108202D02*
X0176448Y0108202D01*
X0176448Y0109400D02*
X0008083Y0109400D01*
X0008083Y0110599D02*
X0176448Y0110599D01*
X0176448Y0111797D02*
X0008083Y0111797D01*
X0008083Y0112996D02*
X0176448Y0112996D01*
X0176448Y0114194D02*
X0008083Y0114194D01*
X0008083Y0115393D02*
X0176448Y0115393D01*
X0176448Y0116591D02*
X0008083Y0116591D01*
X0008083Y0117790D02*
X0176448Y0117790D01*
X0176448Y0118988D02*
X0008083Y0118988D01*
X0008083Y0120187D02*
X0176448Y0120187D01*
X0176448Y0121385D02*
X0008083Y0121385D01*
X0008083Y0122584D02*
X0176448Y0122584D01*
X0176448Y0123782D02*
X0008083Y0123782D01*
X0008083Y0124981D02*
X0176448Y0124981D01*
X0176448Y0126179D02*
X0008083Y0126179D01*
X0008083Y0127378D02*
X0176448Y0127378D01*
X0176448Y0128576D02*
X0008083Y0128576D01*
X0008083Y0129775D02*
X0176448Y0129775D01*
X0176448Y0130973D02*
X0138331Y0130973D01*
X0138828Y0131179D02*
X0139750Y0132101D01*
X0140249Y0133305D01*
X0140249Y0134608D01*
X0139750Y0135813D01*
X0138828Y0136734D01*
X0137624Y0137233D01*
X0136321Y0137233D01*
X0135117Y0136734D01*
X0134195Y0135813D01*
X0133696Y0134608D01*
X0133696Y0133305D01*
X0134195Y0132101D01*
X0135117Y0131179D01*
X0136321Y0130680D01*
X0137624Y0130680D01*
X0138828Y0131179D01*
X0139779Y0132172D02*
X0176448Y0132172D01*
X0176448Y0133370D02*
X0140249Y0133370D01*
X0140249Y0134569D02*
X0176448Y0134569D01*
X0176448Y0135767D02*
X0139769Y0135767D01*
X0138269Y0136966D02*
X0176448Y0136966D01*
X0176448Y0138164D02*
X0008083Y0138164D01*
X0008083Y0136966D02*
X0135676Y0136966D01*
X0134176Y0135767D02*
X0008083Y0135767D01*
X0008083Y0134569D02*
X0133696Y0134569D01*
X0133696Y0133370D02*
X0008083Y0133370D01*
X0008083Y0132172D02*
X0134165Y0132172D01*
X0135613Y0130973D02*
X0008083Y0130973D01*
X0008083Y0139363D02*
X0176448Y0139363D01*
X0176448Y0140561D02*
X0008083Y0140561D01*
X0008083Y0141760D02*
X0176448Y0141760D01*
X0176448Y0142958D02*
X0139526Y0142958D01*
X0139432Y0142865D02*
X0140301Y0143734D01*
X0140772Y0144869D01*
X0140772Y0146098D01*
X0140301Y0147233D01*
X0139432Y0148102D01*
X0138297Y0148572D01*
X0137988Y0148572D01*
X0137917Y0148643D01*
X0137242Y0149318D01*
X0136360Y0149683D01*
X0096051Y0149683D01*
X0095832Y0149902D01*
X0094697Y0150372D01*
X0093468Y0150372D01*
X0092333Y0149902D01*
X0091464Y0149033D01*
X0090994Y0147898D01*
X0090994Y0146669D01*
X0091464Y0145534D01*
X0092333Y0144665D01*
X0093468Y0144195D01*
X0094697Y0144195D01*
X0095832Y0144665D01*
X0096051Y0144883D01*
X0134594Y0144883D01*
X0134594Y0144869D01*
X0135064Y0143734D01*
X0135933Y0142865D01*
X0137068Y0142395D01*
X0138297Y0142395D01*
X0139432Y0142865D01*
X0140477Y0144157D02*
X0176448Y0144157D01*
X0176448Y0145355D02*
X0140772Y0145355D01*
X0140583Y0146554D02*
X0176448Y0146554D01*
X0176448Y0147752D02*
X0139782Y0147752D01*
X0137609Y0148951D02*
X0176448Y0148951D01*
X0176448Y0150150D02*
X0095235Y0150150D01*
X0094697Y0151795D02*
X0095832Y0152265D01*
X0096051Y0152483D01*
X0138314Y0152483D01*
X0138533Y0152265D01*
X0139668Y0151795D01*
X0140897Y0151795D01*
X0142032Y0152265D01*
X0142901Y0153134D01*
X0143066Y0153532D01*
X0143733Y0152865D01*
X0144868Y0152395D01*
X0146097Y0152395D01*
X0147232Y0152865D01*
X0148101Y0153734D01*
X0148572Y0154869D01*
X0148572Y0156098D01*
X0148101Y0157233D01*
X0147232Y0158102D01*
X0146299Y0158489D01*
X0142798Y0163449D01*
X0142717Y0163643D01*
X0142525Y0163835D01*
X0142368Y0164058D01*
X0142191Y0164170D01*
X0142042Y0164318D01*
X0141791Y0164422D01*
X0141561Y0164567D01*
X0141354Y0164603D01*
X0141160Y0164683D01*
X0140888Y0164683D01*
X0140620Y0164730D01*
X0140415Y0164683D01*
X0099051Y0164683D01*
X0098832Y0164902D01*
X0097697Y0165372D01*
X0096468Y0165372D01*
X0095333Y0164902D01*
X0094464Y0164033D01*
X0093994Y0162898D01*
X0093994Y0161669D01*
X0094464Y0160534D01*
X0095333Y0159665D01*
X0096468Y0159195D01*
X0097697Y0159195D01*
X0098832Y0159665D01*
X0099051Y0159883D01*
X0139439Y0159883D01*
X0140788Y0157972D01*
X0139668Y0157972D01*
X0138533Y0157502D01*
X0138314Y0157283D01*
X0096051Y0157283D01*
X0095832Y0157502D01*
X0094697Y0157972D01*
X0093468Y0157972D01*
X0092333Y0157502D01*
X0091464Y0156633D01*
X0090994Y0155498D01*
X0090994Y0154269D01*
X0091464Y0153134D01*
X0092333Y0152265D01*
X0093468Y0151795D01*
X0094697Y0151795D01*
X0092930Y0150150D02*
X0008083Y0150150D01*
X0008083Y0151348D02*
X0176448Y0151348D01*
X0176448Y0152547D02*
X0146464Y0152547D01*
X0144501Y0152547D02*
X0142314Y0152547D01*
X0140283Y0154883D02*
X0094083Y0154883D01*
X0092051Y0152547D02*
X0008083Y0152547D01*
X0008083Y0153745D02*
X0091211Y0153745D01*
X0090994Y0154944D02*
X0008083Y0154944D01*
X0008083Y0156142D02*
X0091261Y0156142D01*
X0092171Y0157341D02*
X0008083Y0157341D01*
X0008083Y0158539D02*
X0140388Y0158539D01*
X0139542Y0159738D02*
X0098905Y0159738D01*
X0097083Y0162283D02*
X0140683Y0162283D01*
X0145483Y0155483D01*
X0147994Y0157341D02*
X0176448Y0157341D01*
X0176448Y0158539D02*
X0146263Y0158539D01*
X0145417Y0159738D02*
X0176448Y0159738D01*
X0176448Y0160936D02*
X0144571Y0160936D01*
X0143725Y0162135D02*
X0176448Y0162135D01*
X0176448Y0163333D02*
X0142879Y0163333D01*
X0141618Y0164532D02*
X0176448Y0164532D01*
X0176448Y0165730D02*
X0008083Y0165730D01*
X0008083Y0164532D02*
X0094962Y0164532D01*
X0094174Y0163333D02*
X0008083Y0163333D01*
X0008083Y0162135D02*
X0093994Y0162135D01*
X0094297Y0160936D02*
X0008083Y0160936D01*
X0008083Y0159738D02*
X0095260Y0159738D01*
X0095994Y0157341D02*
X0138371Y0157341D01*
X0135883Y0147283D02*
X0094083Y0147283D01*
X0091642Y0145355D02*
X0008083Y0145355D01*
X0008083Y0144157D02*
X0134889Y0144157D01*
X0135839Y0142958D02*
X0008083Y0142958D01*
X0008083Y0146554D02*
X0091041Y0146554D01*
X0090994Y0147752D02*
X0008083Y0147752D01*
X0008083Y0148951D02*
X0091430Y0148951D01*
X0100468Y0198195D02*
X0099333Y0198665D01*
X0098464Y0199534D01*
X0097994Y0200669D01*
X0097994Y0201898D01*
X0098464Y0203033D01*
X0099333Y0203902D01*
X0100468Y0204372D01*
X0101697Y0204372D01*
X0102832Y0203902D01*
X0103051Y0203683D01*
X0135883Y0203683D01*
X0139994Y0209165D01*
X0139994Y0209898D01*
X0140464Y0211033D01*
X0141333Y0211902D01*
X0142468Y0212372D01*
X0143697Y0212372D01*
X0144832Y0211902D01*
X0145701Y0211033D01*
X0146172Y0209898D01*
X0146172Y0208669D01*
X0145701Y0207534D01*
X0144832Y0206665D01*
X0143797Y0206236D01*
X0139184Y0200086D01*
X0139117Y0199924D01*
X0138900Y0199707D01*
X0138716Y0199462D01*
X0138566Y0199373D01*
X0138442Y0199249D01*
X0138159Y0199131D01*
X0137895Y0198975D01*
X0137722Y0198950D01*
X0137560Y0198883D01*
X0137253Y0198883D01*
X0136949Y0198840D01*
X0136780Y0198883D01*
X0103051Y0198883D01*
X0102832Y0198665D01*
X0101697Y0198195D01*
X0100468Y0198195D01*
X0098709Y0199288D02*
X0008083Y0199288D01*
X0008083Y0198090D02*
X0176448Y0198090D01*
X0176448Y0199288D02*
X0138482Y0199288D01*
X0139485Y0200487D02*
X0176448Y0200487D01*
X0176448Y0201685D02*
X0140384Y0201685D01*
X0141283Y0202884D02*
X0176448Y0202884D01*
X0176448Y0204083D02*
X0142182Y0204083D01*
X0143081Y0205281D02*
X0176448Y0205281D01*
X0176448Y0206480D02*
X0144385Y0206480D01*
X0145761Y0207678D02*
X0176448Y0207678D01*
X0176448Y0208877D02*
X0146172Y0208877D01*
X0146098Y0210075D02*
X0176448Y0210075D01*
X0176448Y0211274D02*
X0145461Y0211274D01*
X0143083Y0209283D02*
X0137083Y0201283D01*
X0101083Y0201283D01*
X0102397Y0204083D02*
X0136182Y0204083D01*
X0137081Y0205281D02*
X0008083Y0205281D01*
X0008083Y0204083D02*
X0099768Y0204083D01*
X0098402Y0202884D02*
X0008083Y0202884D01*
X0008083Y0201685D02*
X0097994Y0201685D01*
X0098069Y0200487D02*
X0008083Y0200487D01*
X0008083Y0196891D02*
X0176448Y0196891D01*
X0176448Y0195693D02*
X0008083Y0195693D01*
X0008083Y0194494D02*
X0176448Y0194494D01*
X0176448Y0193296D02*
X0008083Y0193296D01*
X0008083Y0192097D02*
X0176448Y0192097D01*
X0176448Y0190899D02*
X0008083Y0190899D01*
X0008083Y0189700D02*
X0176448Y0189700D01*
X0176448Y0188502D02*
X0008083Y0188502D01*
X0008083Y0187303D02*
X0176448Y0187303D01*
X0176448Y0186105D02*
X0008083Y0186105D01*
X0008083Y0184906D02*
X0176448Y0184906D01*
X0176448Y0183708D02*
X0008083Y0183708D01*
X0008083Y0182509D02*
X0176448Y0182509D01*
X0176448Y0181311D02*
X0008083Y0181311D01*
X0008083Y0180112D02*
X0176448Y0180112D01*
X0176448Y0178914D02*
X0008083Y0178914D01*
X0008083Y0177715D02*
X0176448Y0177715D01*
X0176448Y0176517D02*
X0008083Y0176517D01*
X0008083Y0175318D02*
X0176448Y0175318D01*
X0176448Y0174120D02*
X0008083Y0174120D01*
X0008083Y0172921D02*
X0176448Y0172921D01*
X0176448Y0171723D02*
X0008083Y0171723D01*
X0008083Y0170524D02*
X0176448Y0170524D01*
X0176448Y0169326D02*
X0008083Y0169326D01*
X0008083Y0168127D02*
X0176448Y0168127D01*
X0176448Y0166929D02*
X0008083Y0166929D01*
X0008083Y0206480D02*
X0137980Y0206480D01*
X0138879Y0207678D02*
X0008083Y0207678D01*
X0008083Y0208877D02*
X0139777Y0208877D01*
X0140067Y0210075D02*
X0008083Y0210075D01*
X0008083Y0211274D02*
X0140704Y0211274D01*
X0122308Y0232847D02*
X0176448Y0232847D01*
X0176448Y0234045D02*
X0122787Y0234045D01*
X0123267Y0235244D02*
X0176448Y0235244D01*
X0176448Y0236442D02*
X0123746Y0236442D01*
X0121829Y0231648D02*
X0176448Y0231648D01*
X0176448Y0230450D02*
X0121349Y0230450D01*
X0120870Y0229251D02*
X0176448Y0229251D01*
X0176448Y0228053D02*
X0120390Y0228053D01*
X0119911Y0226854D02*
X0176448Y0226854D01*
X0176448Y0225656D02*
X0119432Y0225656D01*
X0118952Y0224457D02*
X0176448Y0224457D01*
X0176448Y0223259D02*
X0118473Y0223259D01*
X0117993Y0222060D02*
X0176448Y0222060D01*
X0176448Y0220862D02*
X0117514Y0220862D01*
X0117035Y0219663D02*
X0176448Y0219663D01*
X0176448Y0218465D02*
X0116555Y0218465D01*
X0116076Y0217266D02*
X0176448Y0217266D01*
X0176448Y0216068D02*
X0115596Y0216068D01*
X0115117Y0214869D02*
X0176448Y0214869D01*
X0176448Y0213671D02*
X0114638Y0213671D01*
X0114158Y0212472D02*
X0176448Y0212472D01*
X0176448Y0156142D02*
X0148553Y0156142D01*
X0148572Y0154944D02*
X0176448Y0154944D01*
X0176448Y0153745D02*
X0148106Y0153745D01*
X0137683Y0145483D02*
X0135883Y0147283D01*
X0104683Y0074643D02*
X0008083Y0074643D01*
X0008083Y0073445D02*
X0104683Y0073445D01*
X0104683Y0072246D02*
X0008083Y0072246D01*
X0008083Y0071048D02*
X0104683Y0071048D01*
X0104683Y0069849D02*
X0008083Y0069849D01*
X0008083Y0068651D02*
X0104683Y0068651D01*
X0104805Y0067452D02*
X0008083Y0067452D01*
X0008083Y0066254D02*
X0105447Y0066254D01*
X0106088Y0065055D02*
X0008083Y0065055D01*
X0008083Y0063857D02*
X0106730Y0063857D01*
X0107371Y0062658D02*
X0008083Y0062658D01*
X0008083Y0061460D02*
X0108013Y0061460D01*
X0108654Y0060261D02*
X0008083Y0060261D01*
X0008083Y0059063D02*
X0109296Y0059063D01*
X0109937Y0057864D02*
X0008083Y0057864D01*
X0008083Y0056666D02*
X0110578Y0056666D01*
X0111220Y0055467D02*
X0008083Y0055467D01*
X0008083Y0054269D02*
X0111219Y0054269D01*
X0111674Y0053070D02*
X0008083Y0053070D01*
X0008083Y0051872D02*
X0113266Y0051872D01*
X0117857Y0054783D02*
X0117657Y0058883D01*
X0115246Y0059063D02*
X0114740Y0059063D01*
X0114098Y0060261D02*
X0115667Y0060261D01*
X0117152Y0061460D02*
X0113457Y0061460D01*
X0112815Y0062658D02*
X0118862Y0062658D01*
X0061641Y0078239D02*
X0008083Y0078239D01*
X0008083Y0079437D02*
X0060972Y0079437D01*
X0060876Y0080636D02*
X0008083Y0080636D01*
X0008083Y0081834D02*
X0061263Y0081834D01*
X0029814Y0212472D02*
X0008083Y0212472D01*
X0008083Y0213671D02*
X0029789Y0213671D01*
X0029635Y0214869D02*
X0008083Y0214869D01*
X0008067Y0216068D02*
X0028964Y0216068D01*
X0028292Y0217266D02*
X0007970Y0217266D01*
X0007723Y0218465D02*
X0027621Y0218465D01*
X0026950Y0219663D02*
X0007303Y0219663D01*
X0006697Y0220862D02*
X0026279Y0220862D01*
X0025608Y0222060D02*
X0005870Y0222060D01*
X0005101Y0223259D02*
X0024937Y0223259D01*
X0024265Y0224457D02*
X0004575Y0224457D01*
X0004251Y0225656D02*
X0023594Y0225656D01*
X0022923Y0226854D02*
X0004108Y0226854D01*
X0004083Y0228053D02*
X0022252Y0228053D01*
X0021581Y0229251D02*
X0004083Y0229251D01*
X0004083Y0230450D02*
X0020910Y0230450D01*
X0020238Y0231648D02*
X0004083Y0231648D01*
X0004083Y0232847D02*
X0019567Y0232847D01*
X0018896Y0234045D02*
X0004083Y0234045D01*
X0004083Y0235244D02*
X0018225Y0235244D01*
X0017554Y0236442D02*
X0004083Y0236442D01*
D16*
X0014083Y0219283D03*
X0020083Y0223283D03*
X0139083Y0234283D03*
X0172083Y0234283D03*
X0140083Y0167283D03*
X0167883Y0105883D03*
X0167883Y0090883D03*
X0011083Y0048283D03*
M02*
