G75*
%MOIN*%
%OFA0B0*%
%FSLAX25Y25*%
%IPPOS*%
%LPD*%
%AMOC8*
5,1,8,0,0,1.08239X$1,22.5*
%
%ADD10C,0.00000*%
%ADD11R,0.05912X0.11424*%
%ADD12R,0.11424X0.05912*%
%ADD13R,0.05912X0.05912*%
%ADD14R,0.08274X0.02369*%
%ADD15C,0.03353*%
%ADD16R,0.07498X0.06699*%
%ADD17R,0.06306X0.05518*%
%ADD18C,0.21400*%
%ADD19C,0.12668*%
%ADD20R,0.02000X0.03400*%
%ADD21R,0.07900X0.07900*%
%ADD22R,0.05518X0.06699*%
%ADD23R,0.04534X0.04652*%
%ADD24R,0.06699X0.05518*%
%ADD25R,0.04731X0.04337*%
%ADD26R,0.05361X0.01817*%
%ADD27C,0.04337*%
%ADD28R,0.04337X0.04731*%
%ADD29R,0.05124X0.01975*%
D10*
X0006083Y0042283D02*
X0006083Y0214207D01*
X0006080Y0214441D01*
X0006072Y0214675D01*
X0006058Y0214909D01*
X0006038Y0215143D01*
X0006013Y0215376D01*
X0005983Y0215608D01*
X0005947Y0215839D01*
X0005905Y0216070D01*
X0005858Y0216299D01*
X0005806Y0216528D01*
X0005748Y0216755D01*
X0005684Y0216980D01*
X0005616Y0217204D01*
X0005542Y0217426D01*
X0005462Y0217647D01*
X0005378Y0217865D01*
X0005288Y0218082D01*
X0005194Y0218296D01*
X0005094Y0218508D01*
X0004989Y0218717D01*
X0004879Y0218924D01*
X0004764Y0219129D01*
X0004645Y0219330D01*
X0004520Y0219529D01*
X0004391Y0219724D01*
X0004258Y0219917D01*
X0004120Y0220106D01*
X0003977Y0220292D01*
X0003830Y0220474D01*
X0003679Y0220653D01*
X0003523Y0220828D01*
X0003364Y0220999D01*
X0003200Y0221167D01*
X0001083Y0226278D02*
X0001083Y0239134D01*
X0178248Y0239134D01*
X0178248Y0042283D01*
X0006083Y0042283D01*
X0135496Y0133957D02*
X0135498Y0134034D01*
X0135504Y0134110D01*
X0135514Y0134186D01*
X0135528Y0134261D01*
X0135545Y0134336D01*
X0135567Y0134409D01*
X0135592Y0134482D01*
X0135622Y0134553D01*
X0135654Y0134622D01*
X0135691Y0134689D01*
X0135730Y0134755D01*
X0135773Y0134818D01*
X0135820Y0134879D01*
X0135869Y0134938D01*
X0135922Y0134994D01*
X0135977Y0135047D01*
X0136035Y0135097D01*
X0136095Y0135144D01*
X0136158Y0135188D01*
X0136223Y0135229D01*
X0136290Y0135266D01*
X0136359Y0135300D01*
X0136429Y0135330D01*
X0136501Y0135356D01*
X0136575Y0135378D01*
X0136649Y0135397D01*
X0136724Y0135412D01*
X0136800Y0135423D01*
X0136876Y0135430D01*
X0136953Y0135433D01*
X0137029Y0135432D01*
X0137106Y0135427D01*
X0137182Y0135418D01*
X0137258Y0135405D01*
X0137332Y0135388D01*
X0137406Y0135368D01*
X0137479Y0135343D01*
X0137550Y0135315D01*
X0137620Y0135283D01*
X0137688Y0135248D01*
X0137754Y0135209D01*
X0137818Y0135167D01*
X0137879Y0135121D01*
X0137939Y0135072D01*
X0137995Y0135021D01*
X0138049Y0134966D01*
X0138100Y0134909D01*
X0138148Y0134849D01*
X0138193Y0134787D01*
X0138234Y0134722D01*
X0138272Y0134656D01*
X0138307Y0134588D01*
X0138337Y0134517D01*
X0138365Y0134446D01*
X0138388Y0134373D01*
X0138408Y0134299D01*
X0138424Y0134224D01*
X0138436Y0134148D01*
X0138444Y0134072D01*
X0138448Y0133995D01*
X0138448Y0133919D01*
X0138444Y0133842D01*
X0138436Y0133766D01*
X0138424Y0133690D01*
X0138408Y0133615D01*
X0138388Y0133541D01*
X0138365Y0133468D01*
X0138337Y0133397D01*
X0138307Y0133326D01*
X0138272Y0133258D01*
X0138234Y0133192D01*
X0138193Y0133127D01*
X0138148Y0133065D01*
X0138100Y0133005D01*
X0138049Y0132948D01*
X0137995Y0132893D01*
X0137939Y0132842D01*
X0137879Y0132793D01*
X0137818Y0132747D01*
X0137754Y0132705D01*
X0137688Y0132666D01*
X0137620Y0132631D01*
X0137550Y0132599D01*
X0137479Y0132571D01*
X0137406Y0132546D01*
X0137332Y0132526D01*
X0137258Y0132509D01*
X0137182Y0132496D01*
X0137106Y0132487D01*
X0137029Y0132482D01*
X0136953Y0132481D01*
X0136876Y0132484D01*
X0136800Y0132491D01*
X0136724Y0132502D01*
X0136649Y0132517D01*
X0136575Y0132536D01*
X0136501Y0132558D01*
X0136429Y0132584D01*
X0136359Y0132614D01*
X0136290Y0132648D01*
X0136223Y0132685D01*
X0136158Y0132726D01*
X0136095Y0132770D01*
X0136035Y0132817D01*
X0135977Y0132867D01*
X0135922Y0132920D01*
X0135869Y0132976D01*
X0135820Y0133035D01*
X0135773Y0133096D01*
X0135730Y0133159D01*
X0135691Y0133225D01*
X0135654Y0133292D01*
X0135622Y0133361D01*
X0135592Y0133432D01*
X0135567Y0133505D01*
X0135545Y0133578D01*
X0135528Y0133653D01*
X0135514Y0133728D01*
X0135504Y0133804D01*
X0135498Y0133880D01*
X0135496Y0133957D01*
X0148489Y0079626D02*
X0148491Y0079703D01*
X0148497Y0079779D01*
X0148507Y0079855D01*
X0148521Y0079930D01*
X0148538Y0080005D01*
X0148560Y0080078D01*
X0148585Y0080151D01*
X0148615Y0080222D01*
X0148647Y0080291D01*
X0148684Y0080358D01*
X0148723Y0080424D01*
X0148766Y0080487D01*
X0148813Y0080548D01*
X0148862Y0080607D01*
X0148915Y0080663D01*
X0148970Y0080716D01*
X0149028Y0080766D01*
X0149088Y0080813D01*
X0149151Y0080857D01*
X0149216Y0080898D01*
X0149283Y0080935D01*
X0149352Y0080969D01*
X0149422Y0080999D01*
X0149494Y0081025D01*
X0149568Y0081047D01*
X0149642Y0081066D01*
X0149717Y0081081D01*
X0149793Y0081092D01*
X0149869Y0081099D01*
X0149946Y0081102D01*
X0150022Y0081101D01*
X0150099Y0081096D01*
X0150175Y0081087D01*
X0150251Y0081074D01*
X0150325Y0081057D01*
X0150399Y0081037D01*
X0150472Y0081012D01*
X0150543Y0080984D01*
X0150613Y0080952D01*
X0150681Y0080917D01*
X0150747Y0080878D01*
X0150811Y0080836D01*
X0150872Y0080790D01*
X0150932Y0080741D01*
X0150988Y0080690D01*
X0151042Y0080635D01*
X0151093Y0080578D01*
X0151141Y0080518D01*
X0151186Y0080456D01*
X0151227Y0080391D01*
X0151265Y0080325D01*
X0151300Y0080257D01*
X0151330Y0080186D01*
X0151358Y0080115D01*
X0151381Y0080042D01*
X0151401Y0079968D01*
X0151417Y0079893D01*
X0151429Y0079817D01*
X0151437Y0079741D01*
X0151441Y0079664D01*
X0151441Y0079588D01*
X0151437Y0079511D01*
X0151429Y0079435D01*
X0151417Y0079359D01*
X0151401Y0079284D01*
X0151381Y0079210D01*
X0151358Y0079137D01*
X0151330Y0079066D01*
X0151300Y0078995D01*
X0151265Y0078927D01*
X0151227Y0078861D01*
X0151186Y0078796D01*
X0151141Y0078734D01*
X0151093Y0078674D01*
X0151042Y0078617D01*
X0150988Y0078562D01*
X0150932Y0078511D01*
X0150872Y0078462D01*
X0150811Y0078416D01*
X0150747Y0078374D01*
X0150681Y0078335D01*
X0150613Y0078300D01*
X0150543Y0078268D01*
X0150472Y0078240D01*
X0150399Y0078215D01*
X0150325Y0078195D01*
X0150251Y0078178D01*
X0150175Y0078165D01*
X0150099Y0078156D01*
X0150022Y0078151D01*
X0149946Y0078150D01*
X0149869Y0078153D01*
X0149793Y0078160D01*
X0149717Y0078171D01*
X0149642Y0078186D01*
X0149568Y0078205D01*
X0149494Y0078227D01*
X0149422Y0078253D01*
X0149352Y0078283D01*
X0149283Y0078317D01*
X0149216Y0078354D01*
X0149151Y0078395D01*
X0149088Y0078439D01*
X0149028Y0078486D01*
X0148970Y0078536D01*
X0148915Y0078589D01*
X0148862Y0078645D01*
X0148813Y0078704D01*
X0148766Y0078765D01*
X0148723Y0078828D01*
X0148684Y0078894D01*
X0148647Y0078961D01*
X0148615Y0079030D01*
X0148585Y0079101D01*
X0148560Y0079174D01*
X0148538Y0079247D01*
X0148521Y0079322D01*
X0148507Y0079397D01*
X0148497Y0079473D01*
X0148491Y0079549D01*
X0148489Y0079626D01*
X0003199Y0221166D02*
X0003075Y0221293D01*
X0002955Y0221423D01*
X0002837Y0221556D01*
X0002723Y0221692D01*
X0002612Y0221830D01*
X0002505Y0221972D01*
X0002401Y0222115D01*
X0002300Y0222262D01*
X0002204Y0222411D01*
X0002110Y0222562D01*
X0002021Y0222715D01*
X0001936Y0222870D01*
X0001854Y0223028D01*
X0001776Y0223187D01*
X0001702Y0223349D01*
X0001632Y0223512D01*
X0001566Y0223676D01*
X0001505Y0223843D01*
X0001447Y0224010D01*
X0001393Y0224180D01*
X0001344Y0224350D01*
X0001299Y0224521D01*
X0001258Y0224694D01*
X0001221Y0224868D01*
X0001188Y0225042D01*
X0001160Y0225217D01*
X0001136Y0225393D01*
X0001117Y0225569D01*
X0001102Y0225746D01*
X0001091Y0225923D01*
X0001084Y0226101D01*
X0001082Y0226278D01*
D11*
X0040343Y0090512D03*
X0048217Y0090512D03*
X0056091Y0090512D03*
X0063965Y0090512D03*
X0071839Y0090512D03*
X0079713Y0090512D03*
X0087587Y0090512D03*
X0095461Y0090512D03*
X0103335Y0090512D03*
D12*
X0111209Y0100354D03*
X0111209Y0108228D03*
X0111209Y0116102D03*
X0111209Y0123976D03*
X0111209Y0131850D03*
X0111209Y0139724D03*
X0111209Y0147598D03*
X0111209Y0155472D03*
X0111209Y0163346D03*
X0111209Y0171220D03*
X0111209Y0179095D03*
X0111209Y0186969D03*
X0111209Y0194843D03*
X0032469Y0194843D03*
X0032469Y0186969D03*
X0032469Y0179095D03*
X0032469Y0171220D03*
X0032469Y0163346D03*
X0032469Y0155472D03*
X0032469Y0147598D03*
X0032469Y0139724D03*
X0032469Y0131850D03*
X0032469Y0123976D03*
X0032469Y0116102D03*
X0032469Y0108228D03*
X0032469Y0100354D03*
D13*
X0040343Y0208622D03*
X0048217Y0208622D03*
X0056091Y0208622D03*
X0063965Y0208622D03*
X0071839Y0208622D03*
X0079713Y0208622D03*
X0087587Y0208622D03*
X0095461Y0208622D03*
X0103335Y0208622D03*
D14*
X0134020Y0130413D03*
X0134020Y0127264D03*
X0134020Y0124114D03*
X0134020Y0120965D03*
X0134020Y0117815D03*
X0134020Y0114665D03*
X0134020Y0111516D03*
X0134020Y0108366D03*
X0134020Y0105217D03*
X0134020Y0102067D03*
X0134020Y0098917D03*
X0134020Y0095768D03*
X0134020Y0092618D03*
X0134020Y0089469D03*
X0134020Y0086319D03*
X0134020Y0083169D03*
X0152917Y0083169D03*
X0152917Y0086319D03*
X0152917Y0089469D03*
X0152917Y0092618D03*
X0152917Y0095768D03*
X0152917Y0098917D03*
X0152917Y0102067D03*
X0152917Y0105217D03*
X0152917Y0108366D03*
X0152917Y0111516D03*
X0152917Y0114665D03*
X0152917Y0117815D03*
X0152917Y0120965D03*
X0152917Y0124114D03*
X0152917Y0127264D03*
X0152917Y0130413D03*
D15*
X0136972Y0133957D03*
X0149965Y0079626D03*
D16*
X0163083Y0079882D03*
X0163083Y0068685D03*
D17*
X0125483Y0182743D03*
X0125483Y0190224D03*
X0125483Y0198343D03*
X0125483Y0205824D03*
D18*
X0146618Y0181004D03*
D19*
X0012500Y0230020D03*
D20*
X0111358Y0070887D03*
X0114508Y0070887D03*
X0117657Y0070887D03*
X0120807Y0070887D03*
X0120807Y0057680D03*
X0117657Y0057680D03*
X0114508Y0057680D03*
X0111358Y0057680D03*
D21*
X0116083Y0064283D03*
D22*
X0112546Y0049583D03*
X0120420Y0049583D03*
D23*
X0123438Y0075683D03*
X0130328Y0075683D03*
D24*
X0104483Y0073020D03*
X0104483Y0065146D03*
D25*
X0112283Y0078737D03*
X0117883Y0075737D03*
X0117883Y0082430D03*
X0112283Y0085430D03*
D26*
X0131665Y0144606D03*
X0131665Y0147165D03*
X0131665Y0149724D03*
X0131665Y0152283D03*
X0131665Y0154843D03*
X0131665Y0157402D03*
X0131665Y0159961D03*
X0154500Y0159961D03*
X0154500Y0157402D03*
X0154500Y0154843D03*
X0154500Y0152283D03*
X0154500Y0149724D03*
X0154500Y0147165D03*
X0154500Y0144606D03*
D27*
X0174311Y0098283D03*
X0174311Y0076883D03*
X0174311Y0058683D03*
X0129083Y0232283D03*
X0011713Y0145783D03*
X0011713Y0133972D03*
X0011713Y0122161D03*
X0011713Y0110350D03*
D28*
X0094736Y0079283D03*
X0101429Y0079283D03*
D29*
X0148539Y0206724D03*
X0148539Y0209283D03*
X0148539Y0211843D03*
X0155626Y0211843D03*
X0155626Y0206724D03*
M02*
